<?xml version="1.0" standalone="no"?>
<!DOCTYPE svg PUBLIC "-//W3C//DTD SVG 1.1//EN" "http://www.w3.org/Graphics/SVG/1.1/DTD/svg11.dtd" >
<svg xmlns="http://www.w3.org/2000/svg">
<metadata></metadata>
<defs>
<font id="chronicles_of_a_heroregular" horiz-adv-x="948" >
<font-face units-per-em="2048" ascent="1638" descent="-410" />
<missing-glyph horiz-adv-x="576" />
<glyph horiz-adv-x="0" />
<glyph unicode="&#xd;" horiz-adv-x="576" />
<glyph unicode=" "  horiz-adv-x="576" />
<glyph unicode="&#x09;" horiz-adv-x="576" />
<glyph unicode="&#xa0;" horiz-adv-x="576" />
<glyph unicode="!" horiz-adv-x="694" d="M0 700q0 68 64 132q56 56 118 56q40 0 54 -30q12 -26 0 -64q-16 -50 -60 -93t-92 -55q-84 -20 -84 54zM134 1134q0 36 114 242q82 150 110 206q112 228 112 354q0 42 -12 76q-10 10 -10 18q0 26 78 36q102 14 106 -22q2 -20 2 -46q0 -182 -124 -468q-68 -124 -182 -378 q0 -20 4 -36q4 -30 -42 -38q-32 -6 -68 -2q-88 10 -88 58z" />
<glyph unicode="&#x22;" horiz-adv-x="594" d="M8 1826q8 58 40 124q50 100 110 100q50 0 50 -80q0 -42 -34 -278q-26 -178 -74 -178q-36 0 -66 112q-34 130 -26 200zM280 1826q26 174 124 218q14 6 24 6q34 0 46 -54q8 -38 2 -80q-8 -62 -32 -224q-28 -178 -74 -178q-34 0 -66 112q-36 124 -24 200z" />
<glyph unicode="#" horiz-adv-x="1452" d="M4 1010q6 96 106 108q30 4 106 12l130 10q14 32 34 88l34 94q-74 -6 -218 -24q-68 -28 -76 -30q-32 0 -28 70q6 98 108 110q88 12 266 24q72 236 72 362q0 34 -4 62q-8 12 -8 22q0 30 66 50q32 10 52 10q34 0 34 -28q0 -178 -76 -468q94 8 284 32q60 194 60 316 q0 36 -6 66q-6 10 -6 20q0 30 64 52q30 10 52 10q34 0 34 -28q0 -162 -60 -412q190 40 296 104q20 20 34 20q24 0 38 -44q8 -24 8 -42q0 -36 -32 -50q-158 -70 -382 -120q-6 -24 -32 -102l-32 -98q198 38 308 108q20 20 36 20q44 0 44 -86q0 -36 -32 -50q-186 -80 -404 -126 q-32 -84 -92 -254q0 4 2 -44q2 -62 -94 -62q-72 0 -72 54q0 18 10 46q46 126 86 230q-168 -28 -272 -38q-52 -136 -66 -186v-44q6 -62 -92 -62q-72 0 -72 56q0 22 38 124l36 96q-126 -10 -178 -18q-60 -30 -76 -30q-32 0 -28 70zM496 1152q126 8 272 28q30 76 74 198 q-148 -28 -284 -42z" />
<glyph unicode="$" horiz-adv-x="1124" d="M0 1144q0 52 72 52q14 0 28 -2q138 -104 296 -106q38 104 110 316q-150 -40 -208 -40q-114 0 -114 94q0 32 24 80q132 260 384 322q-4 50 -16 84q-10 12 -10 22q0 30 76 58q44 16 72 16q32 0 34 -26q6 -66 4 -136q80 -4 120 -10q70 -20 70 -56q0 -10 -8 -26 q-30 -58 -86 -54q-46 14 -106 14q-14 -92 -30 -168q84 20 144 18q120 12 168 -62q30 -46 30 -102q0 -30 -10 -62q-58 -110 -166 -214t-222 -164q-68 -24 -126 -28q-32 -96 -40 -126q0 -12 6 -46t-36 -54q-32 -14 -72 -16q-92 -2 -92 62q0 22 52 176q-184 20 -304 118 q-44 36 -44 66zM356 1504q6 -30 56 -14q58 18 132 42q26 106 38 182q-128 -52 -178 -126q-56 -52 -48 -84zM582 1118q4 0 8 2l8 2q232 134 282 260q8 20 8 36q0 50 -74 50q-42 0 -132 -20q-52 -192 -100 -330z" />
<glyph unicode="%" horiz-adv-x="1440" d="M10 1302q0 18 2 40q136 414 506 558q40 4 74 4q292 0 296 -266q148 228 180 346q-6 54 94 86q38 12 58 12q22 0 22 -16q0 -8 -4 -18q-100 -238 -346 -600q50 30 116 54q42 4 80 4q286 0 286 -280q0 -84 -28 -190q-76 -152 -248 -234q-152 -74 -336 -74q-30 0 -74 4 q-196 18 -192 168q-84 -110 -114 -156q-6 -16 -22 -50q-26 -72 -122 -72q-54 0 -54 34q0 30 38 80q76 102 336 442q-136 -52 -284 -52q-30 0 -76 4q-188 16 -188 172zM158 1366q0 -96 124 -108q20 -2 52 -2q120 0 218 48q110 54 160 152q18 68 18 124q0 182 -188 182 q-24 0 -50 -2q-242 -94 -332 -364q-2 -16 -2 -30zM646 966q0 -94 126 -106q130 -12 246 36q128 54 184 162q18 66 18 122q0 186 -186 186q-26 0 -54 -4q-242 -94 -330 -364q-4 -18 -4 -32z" />
<glyph unicode="&#x26;" horiz-adv-x="896" d="M2 1100q0 146 286 296q-102 -2 -142 60q-12 18 -12 42q0 56 68 136q102 118 290 172q0 68 -16 108q-10 12 -10 22q0 30 76 58q44 16 72 16q32 0 34 -26q8 -84 4 -148q66 8 150 8q42 -4 60 -66q2 -12 2 -22q0 -40 -58 -44q-50 10 -102 10q-212 0 -368 -128 q-42 -58 -42 -80q2 -30 50 -20q130 28 320 68q74 -12 68 -58t-64 -72q-318 -110 -496 -248q-52 -40 -52 -84t38 -67t84 -23q24 0 54 4q130 42 358 178q24 14 42 14q48 0 48 -52q0 -28 -36 -64q-158 -100 -274 -148q-32 -90 -42 -134q0 -10 6 -44q6 -36 -36 -56 q-32 -16 -72 -16q-52 -2 -74 20q-28 24 -14 74q18 68 34 106q-2 -2 -8 -2q-162 28 -210 122q-16 46 -16 88z" />
<glyph unicode="'" horiz-adv-x="538" d="M132 1674q0 36 34 110l80 176q20 42 54 74q46 42 82 24q30 -14 34 -62q8 -106 -144 -258q-100 -100 -130 -86q-10 4 -10 22z" />
<glyph unicode="(" horiz-adv-x="732" d="M14 1112q0 460 462 990q66 42 106 42q48 0 48 -50q0 -46 -50 -106q-424 -514 -424 -810q0 -246 208 -534q34 -32 34 -60q0 -32 -38 -54t-72 -22q-38 0 -74 30q-200 276 -200 574z" />
<glyph unicode=")" horiz-adv-x="732" d="M-28 570q2 34 60 74q438 410 438 756q0 250 -166 588q-16 44 -16 76q0 80 70 80q40 0 92 -42q164 -326 164 -630q0 -504 -470 -934q-48 -30 -86 -30q-28 0 -57 18t-29 44z" />
<glyph unicode="*" horiz-adv-x="732" d="M-6 1578q0 34 38 54q58 20 170 62q-26 36 -84 102h-28q-12 -2 -12 8q0 26 52 84q62 68 94 68q12 0 20 -8q28 -38 84 -112q6 32 6 60q0 62 -32 102q-12 6 -12 12q0 14 64 30q94 22 104 -2q38 -86 14 -218q84 58 116 130q2 22 14 22q14 0 40 -34q48 -62 30 -88 q-70 -104 -200 -184q62 -48 126 -48q20 0 40 4q12 6 18 6q18 0 -24 -64q-54 -82 -82 -82q-88 2 -170 48q-32 -70 -36 -94q12 -24 12 -32q0 -24 -96 -30t-96 30q0 32 52 136q-42 -16 -122 -52q-26 -36 -32 -38q-18 0 -48 62q-20 42 -20 66z" />
<glyph unicode="+" horiz-adv-x="1124" d="M0 1294q0 36 40 42q76 10 210 16q170 6 212 12q26 116 32 220t-36 166q-14 8 -14 18q0 22 68 48q48 18 78 18q24 0 30 -16q30 -88 26 -204q-4 -114 -22 -228q202 36 264 120q4 20 16 20q24 0 67 -52t43 -78q0 -12 -8 -18q-142 -112 -416 -154q-32 -102 -76 -292 q2 -8 9 -24t7 -24q0 -38 -102 -48q-44 -4 -70 6q-36 14 -28 56q0 4 86 302q-94 -6 -280 -28q-38 -28 -42 -30q-40 0 -76 78q-18 38 -18 74z" />
<glyph unicode="," horiz-adv-x="454" d="M-26 492q0 28 34 110q16 38 58 136q66 142 130 142q54 0 62 -68q10 -104 -144 -258q-100 -100 -130 -86q-10 6 -10 24z" />
<glyph unicode="-" d="M4 1126q4 38 90 42q106 -4 320 -4q254 10 318 110q16 8 34 8q44 0 82 -54q22 -30 22 -54q0 -30 -46 -38q-116 -102 -380 -128q-102 -10 -191 -9t-127 -3q-12 -10 -26 -10q-44 0 -80 70q-18 36 -16 70z" />
<glyph unicode="." horiz-adv-x="366" d="M10 734q16 52 70 96t108 44q60 0 60 -54q0 -62 -66 -122q-46 -42 -94 -52q-50 -10 -71 15t-7 73z" />
<glyph unicode="/" d="M-14 650q0 32 36 80q206 270 470 624q326 438 374 624q-6 54 96 86q38 12 56 12q24 0 24 -16q0 -8 -4 -18q-126 -296 -448 -744q-12 -16 -226 -302q-176 -236 -194 -282q-20 -56 -48 -77t-84 -21q-52 0 -52 34z" />
<glyph unicode="0" horiz-adv-x="1010" d="M2 854q66 656 362 980q118 130 292 134q232 6 304 -118q54 -94 44 -348q-54 -322 -228 -574q-98 -142 -244 -234q-102 -64 -224 -64q-52 0 -108 12q-98 10 -142 64q-36 44 -56 148zM138 878q0 -52 68 -82q48 -22 112 -26q278 -18 488 540q54 144 50 220q-10 186 -40 232 q-50 76 -212 66q-184 -38 -332 -406q-122 -302 -128 -514q-6 -16 -6 -30z" />
<glyph unicode="1" horiz-adv-x="620" d="M82 666l124 570q74 342 166 554q-94 -16 -168 -102q-26 -20 -44 -20q-40 0 -40 70q0 56 58 96q110 114 282 114q22 10 42 10q68 0 68 -50q0 -26 -22 -68q-234 -440 -304 -1106q12 -56 -82 -90q-34 -12 -56 -12q-32 0 -24 34z" />
<glyph unicode="2" horiz-adv-x="1174" d="M-8 776q0 34 142 128q824 548 816 768q-2 78 -106 78q-172 0 -622 -218q-22 -4 -40 -4q-56 0 -58 36q-4 44 140 102q442 260 714 260q170 0 170 -122q0 -110 -156 -318q-196 -262 -738 -682q18 -6 56 -6q84 0 292 34q276 46 376 90q60 -18 50 -74q-10 -58 -134 -92 q-184 -96 -460 -106q-278 -10 -396 38q-48 38 -46 88z" />
<glyph unicode="3" horiz-adv-x="1162" d="M12 1166q-2 46 138 114q320 156 536 214q208 200 208 292q0 74 -114 74q-176 0 -614 -212q-22 -4 -40 -4q-56 0 -58 36q-4 44 138 102q444 260 710 260q174 0 174 -134t-212 -378q28 2 52 2q158 0 158 -102q0 -40 -22 -92q-90 -216 -728 -622q-22 -34 -77 -62t-101 -34 t-54 14q-10 26 70 82q700 486 700 628q0 52 -76 52q-164 0 -690 -266q-22 -4 -40 -4q-56 0 -58 40z" />
<glyph unicode="4" horiz-adv-x="922" d="M12 1132q0 24 28 42l78 334q56 212 112 320q12 70 30 92q28 34 94 36q60 0 60 -44q0 -26 -26 -74q-128 -236 -222 -638q174 22 380 86q44 200 66 278q46 168 96 264q8 26 14 54q14 72 110 74q58 0 58 -44q0 -28 -24 -74q-110 -208 -188 -510q60 20 128 46q26 10 44 10 q40 0 62 -36q10 -16 10 -30q0 -30 -50 -42q-120 -46 -228 -84q-62 -262 -80 -462q12 -56 -82 -88q-34 -12 -56 -12q-32 0 -24 34q10 40 56 240l56 242q-212 -70 -314 -80q-78 -26 -86 -28q-38 0 -76 42q-26 30 -26 52z" />
<glyph unicode="5" horiz-adv-x="1124" d="M-22 1154q0 22 36 54q62 272 78 332q56 210 110 316q2 6 8 36q-6 14 -6 24q0 36 56 52q28 14 56 14q14 0 28 -4q258 32 652 178q22 8 42 8q40 0 64 -36q10 -16 10 -30q0 -30 -50 -42l-334 -122q-200 -72 -338 -88q-8 -4 -50 -18q-104 -204 -188 -540q478 234 744 234 q164 0 164 -98q0 -236 -754 -720q-48 -74 -178 -94q-46 -8 -54 14q-12 24 68 80q700 484 700 628q0 54 -76 54q-166 0 -690 -266q-22 -4 -38 -4q-60 0 -60 38z" />
<glyph unicode="6" horiz-adv-x="1314" d="M-12 1012q0 106 34 218q78 258 251 472t409 342q172 94 318 94q44 0 84 -8q32 6 58 6q62 0 70 -44q10 -60 -62 -62q-238 -10 -462 -142q-326 -194 -462 -602q590 372 866 372q192 0 184 -178q-8 -192 -158 -410q-144 -210 -352 -350q-220 -150 -414 -150q-166 0 -298 146 q-66 144 -66 296zM170 960q0 -54 28 -110q64 -130 152 -134q204 -10 444 186q216 176 292 366q20 50 20 92q0 106 -126 100q-228 -10 -758 -338q-52 -84 -52 -162z" />
<glyph unicode="7" horiz-adv-x="1010" d="M0 1872q0 52 118 62q322 26 826 182q26 8 50 8q70 0 70 -54q0 -28 -38 -76q-168 -208 -392 -640q-208 -400 -284 -636q4 -56 -110 -90q-40 -12 -64 -12q-28 0 -28 16q0 8 6 20l172 358q220 458 364 718q86 154 144 238l-316 -94q-190 -54 -320 -66q-68 -26 -102 -26 q-56 0 -86 60q-10 20 -10 32z" />
<glyph unicode="8" horiz-adv-x="1264" d="M-2 822q0 18 4 40q88 266 462 514q-160 18 -160 150q0 18 4 40q54 176 240 346q166 154 356 232q36 4 68 4q238 0 238 -252q0 -76 -24 -170q-56 -122 -262 -232q160 -54 160 -256q0 -88 -28 -196q-82 -158 -370 -284q-254 -110 -444 -110q-244 0 -244 174zM148 886 q0 -96 124 -108q140 -12 354 76q226 96 286 210q18 66 18 122q0 184 -190 184q-24 0 -50 -2q-152 -58 -328 -196q-214 -168 -214 -286zM460 1562q0 -16 2 -32q6 -34 72 -40q118 -10 298 70q188 86 234 186q12 54 12 96q0 134 -156 134q-24 0 -52 -2q-128 -54 -240 -144 q-170 -138 -170 -268z" />
<glyph unicode="9" horiz-adv-x="1326" d="M-4 678q-2 32 20 44q16 12 50 10q32 -2 66 -2q204 0 406 92q342 156 526 548q-566 -278 -852 -278q-216 0 -216 164q0 138 132 322q104 144 244 264q304 258 580 258q214 0 348 -182q36 -114 36 -226q0 -144 -62 -290q-106 -250 -301 -442t-445 -294q-162 -66 -274 -66 q-74 0 -134 26q-122 -12 -124 52zM182 1362q0 -84 116 -88q234 -10 790 258q72 92 72 178q0 34 -14 72q-28 78 -74 108t-126 30q-186 0 -414 -146q-220 -142 -316 -310q-34 -60 -34 -102z" />
<glyph unicode=":" horiz-adv-x="454" d="M10 734q16 52 70 96t108 44q60 0 60 -54q0 -62 -66 -122q-46 -42 -94 -52q-50 -10 -71 15t-7 73zM126 1190q-12 26 0 64q18 52 72 96t108 44q60 0 60 -54q0 -68 -76 -132q-54 -44 -110 -44q-38 0 -54 26z" />
<glyph unicode=";" horiz-adv-x="454" d="M-26 492q0 28 34 110q16 38 58 136q66 142 130 142q54 0 62 -68q10 -104 -144 -258q-100 -100 -130 -86q-10 6 -10 24zM126 1190q-12 26 0 64q18 52 72 96t108 44q60 0 60 -54q0 -68 -76 -132q-54 -44 -110 -44q-38 0 -54 26z" />
<glyph unicode="=" horiz-adv-x="1188" d="M16 1026q2 34 60 42q90 14 226 20q176 10 226 14q316 32 396 138q24 12 48 12q50 0 96 -48q30 -30 30 -52q0 -28 -56 -40q-150 -122 -472 -162q-102 -12 -398 -44q-16 -14 -34 -14q-52 0 -100 64q-26 34 -22 70zM16 1382q4 46 116 50q4 2 144 6q306 10 490 62 q110 30 158 94q24 12 48 12q50 0 96 -48q30 -30 30 -52q0 -28 -56 -40q-154 -126 -472 -162q-102 -10 -398 -42q-16 -14 -34 -14q-52 0 -100 64q-24 34 -22 70z" />
<glyph unicode="?" horiz-adv-x="1098" d="M8 1854q-12 48 118 110q290 96 532 104q360 12 360 -160q0 -74 -78 -184q-130 -184 -578 -466q36 -12 82 -12q42 0 98 12q108 24 196 66q66 -20 66 -80t-116 -96q-164 -102 -308 -110t-270 44q-52 40 -62 92t116 138q634 342 634 508q0 102 -178 102q-172 0 -510 -102 q-20 -4 -38 -4q-56 0 -64 38zM116 738q16 50 60 94t94 54q52 12 73 -16t5 -78q-16 -48 -60 -92t-92 -56q-50 -12 -72 17t-8 77z" />
<glyph unicode="@" horiz-adv-x="1174" d="M-4 902q66 658 360 980q118 130 292 134q258 8 381 -109t113 -373q-52 -308 -240 -564q-214 -292 -476 -292q-70 0 -110 12q-110 12 -196 60q-108 60 -124 152zM134 940q0 -44 94 -76q128 -42 206 -48q206 -14 406 322q50 84 100 206q60 146 56 218q-8 168 -124 248 q-104 74 -276 64q-184 -38 -332 -406q-130 -322 -130 -528zM240 1108q0 18 10 36q144 168 266 204q106 48 252 46q14 60 40 120q6 34 -30 34q-34 0 -86 -10q-92 -44 -202 -132q-30 -24 -62 0q-32 22 -2 56q94 104 254 168q80 22 132 22q102 0 102 -84q-82 -164 -134 -424 q-104 -168 -316 -164q-168 18 -204 70q-20 30 -20 58zM372 1134q-4 -44 18 -56t68 -10q88 -10 137 9t97 89q26 80 24 128q-26 8 -56 8q-122 0 -224 -86q-30 -26 -64 -82z" />
<glyph unicode="A" horiz-adv-x="1136" d="M-14 606q0 6 4 16q50 128 154 302q6 26 24 40q44 72 374 526q292 402 316 462q14 34 20 44q34 52 110 52q36 34 88 54q16 6 26 6q6 0 10 -2q10 -3 10 -16q0 -203 -106 -774q44 -20 50 -64q1 -4 1 -8q0 -40 -77 -60q-64 -314 -112 -458q0 -68 -36 -114t-102 -46 q-24 0 -40 14q-11 9 -11 29q0 22 13 57q70 192 138 478q-294 -86 -614 -302q-48 -86 -66 -156v-6q0 -50 -92 -80q-38 -12 -58 -12q-24 0 -24 18zM358 1062q160 84 252 126q146 68 262 100q76 354 84 578q-74 -96 -304 -398q-170 -222 -294 -406z" />
<glyph unicode="B" horiz-adv-x="1036" d="M2 620l90 354q58 232 116 466q88 320 162 448q4 24 11 54t40 49t67 19q190 80 336 80q30 0 60 -2q136 -28 136 -128q0 -128 -170 -386q-58 -88 -130 -160q25 1 47 1q44 0 77 -3q136 -28 136 -128q0 -136 -168 -386q-94 -140 -249 -224t-323 -84q-26 0 -52 2q-36 8 -62 28 q-38 -24 -86 -30q-7 -1 -13 -1q-12 0 -17 3q-10 6 -10 17q0 5 2 11zM174 762q26 -32 64 -34h13q120 0 255 70q124 64 224 168q72 96 114 180q12 24 12 46q0 52 -70 84q-38 3 -76 3q-231 0 -444 -95q-64 -234 -92 -422zM334 1414q26 -20 48 -20h10q107 0 206 80 q30 24 170 168q72 96 114 180q12 24 12 46q0 52 -70 84q-19 1 -39 1q-119 0 -255 -51v-2l-2 -2q-94 -168 -194 -484z" />
<glyph unicode="C" horiz-adv-x="972" d="M0 912q122 806 682 1142q70 42 114 42q30 0 50 -16q56 -48 66 -128q24 -84 24 -160t-16 -162q1 -9 1 -18q0 -71 -73 -120q-38 -26 -60 -26q-26 0 -28 36q26 102 26 184q0 50 -10 92q-25 102 -60 102h-4q-234 -106 -378 -392q-84 -166 -184 -528q0 -170 84 -170 q24 0 56 16q112 54 236 140l226 156q18 12 30 12q28 0 36 -56q2 -17 2 -32q0 -60 -38 -88q-330 -252 -540 -320q-44 -14 -76 -14q-72 0 -108 66q-54 100 -58 242z" />
<glyph unicode="D" horiz-adv-x="1048" d="M-4 664q82 348 186 724l78 278q52 174 102 266q10 60 28 84q24 32 78 38q8 1 14 1q24 0 40 -11q20 -14 18 -48q190 52 364 52q38 0 70 -2q150 -54 150 -212q0 -52 -16 -114q-66 -258 -246 -526q-168 -252 -384 -440q-156 -136 -250 -136q-34 0 -60 18q-36 8 -56 24 q-40 -24 -82 -28q-20 -2 -29 5q-6 5 -6 16q0 5 1 11zM172 834q40 -32 90 -32q76 0 174 76q162 126 297 323t199 397q26 82 26 146q0 88 -54 134q-28 2 -58 2q-176 0 -390 -70q-204 -466 -284 -976z" />
<glyph unicode="E" horiz-adv-x="1098" d="M-4 952q0 110 76 194q118 130 300 236h-6q-129 0 -180 88q-16 28 -16 62q0 82 90 200q238 310 782 310q56 -6 78 -80q4 -14 4 -28q0 -50 -76 -54q-62 14 -126 14q-116 0 -230 -40q-188 -66 -304 -168q-38 -58 -38 -96q0 -64 66 -64q14 0 28 2q138 38 418 98 q92 -17 92 -66v-6q-6 -54 -82 -92q-398 -148 -658 -378q-66 -58 -66 -128q0 -38 22 -82q44 -90 152 -90q28 0 60 6q124 46 244 116q40 22 234 152q34 22 60 22q48 0 48 -52q0 -40 -50 -94q-384 -280 -624 -294q-212 40 -274 178q-24 72 -24 134z" />
<glyph unicode="F" d="M-4 664l122 548q72 320 166 528q-10 22 -10 42q0 38 32 72q16 10 58 34q250 140 466 140q124 0 232 -48q60 -6 60 -85v-5q-2 -80 -72 -80h-10q-112 70 -252 70q-142 0 -338 -108q-120 -220 -208 -580q204 182 412 182q24 0 46 -2q8 2 15 2q41 0 59 -60q6 -18 6 -34 q0 -42 -50 -56q-44 10 -88 10q-228 0 -452 -280q-16 -84 -34 -226q1 -6 1 -12q0 -46 -81 -74q-34 -12 -56 -12q-26 0 -26 22q0 5 2 12z" />
<glyph unicode="G" horiz-adv-x="986" d="M0 912q124 810 680 1142q70 42 116 42q30 0 50 -16q56 -46 64 -128q24 -78 24 -168q0 -74 -16 -154q1 -9 1 -18q0 -70 -73 -120q-38 -26 -58 -26q-26 0 -30 36q26 104 26 186q0 54 -8 90q-23 102 -60 102h-4q-232 -106 -378 -392q-90 -176 -184 -528v-15q0 -157 84 -157 q24 0 56 18q82 34 228 130q192 124 192 190q10 18 10 32q0 30 -52 30q-16 2 -31 2q-47 0 -87 -14l-108 -36q-20 -18 -36 -18q-40 0 -40 74q0 38 24 72q138 72 282 72q38 0 60 -4q176 -32 176 -144q0 -30 -12 -66q-60 -176 -268 -320q-166 -116 -386 -188q-42 -14 -76 -14 q-74 0 -110 66q-54 98 -56 242z" />
<glyph unicode="H" horiz-adv-x="1074" d="M4 680q40 168 160 572q114 386 154 568q12 56 37 76t81 20q58 0 58 -42q0 -26 -26 -72q-156 -280 -256 -762l326 166q94 48 226 86q46 198 74 300q54 194 106 284q12 66 37 94t87 28q58 0 58 -40q0 -26 -26 -72q-116 -208 -204 -546q60 0 90 -60q6 -12 6 -24 q0 -42 -88 -62q-12 -4 -46 -12q-48 -214 -60 -356q1 -6 1 -12q0 -46 -83 -74q-36 -12 -56 -12q-26 0 -26 20q6 20 50 206l46 192q-274 -86 -546 -268q-12 -70 -18 -134q1 -6 1 -12q0 -46 -81 -74q-34 -12 -56 -12q-28 0 -28 22q0 6 2 12z" />
<glyph unicode="I" horiz-adv-x="1060" d="M4 694q0 38 30 72q156 94 302 140l112 478q64 274 154 464q-116 -46 -234 -124q-12 -6 -20 -6q-24 0 -38 30q-14 24 -14 50q0 40 32 72q292 176 526 176q124 0 232 -50q60 -6 60 -90q-2 -80 -77 -80h-7q-110 70 -240 70q-22 0 -44 -2q0 -2 -2 -4q-216 -372 -294 -954 q38 4 76 4q124 0 234 -50q60 -6 60 -90q-2 -78 -72 -78h-10q-111 68 -250 68q-21 0 -44 -2q-166 -12 -404 -170q-10 -4 -20 -4q-48 0 -48 80z" />
<glyph unicode="J" horiz-adv-x="796" d="M4 950q0 78 40 78q12 0 26 -22l68 -110q86 -140 149 -140h3q36 2 54 84q32 142 114 510q72 320 152 488q-108 -42 -234 -126q-10 -4 -20 -4q-26 0 -44 46q-8 20 -8 34q0 40 32 72q290 174 524 174q126 0 234 -50q60 -6 60 -90q-2 -78 -72 -78h-10q-110 68 -236 68 q-46 0 -50 -2l-2 -2q-100 -166 -194 -550q-76 -310 -110 -564q-36 -140 -160 -140q-122 0 -234 120q-66 72 -74 148q-8 30 -8 56z" />
<glyph unicode="K" horiz-adv-x="922" d="M2 662q34 150 160 704l62 268q36 156 92 256q12 68 36 95t88 27q60 0 60 -42q0 -24 -26 -70q-106 -186 -196 -552l264 290q150 164 286 258q74 66 96 66q30 0 69 -20t39 -46q0 -30 -62 -68q-304 -188 -642 -604q404 -192 468 -498q10 -16 10 -32q0 -36 -48 -70 q-28 -20 -52 -20q-34 0 -60 40q-22 294 -408 462q-6 -6 -10 -12l-8 -12q-42 -196 -56 -356q1 -6 1 -12q0 -46 -81 -74q-34 -12 -56 -12q-28 0 -28 22q0 6 2 12z" />
<glyph unicode="L" horiz-adv-x="922" d="M-4 724q0 38 28 72h2q46 184 150 540q110 380 146 536q12 56 37 76t81 20q60 0 60 -40q0 -26 -26 -72q-208 -368 -292 -976q198 90 366 90q126 0 234 -50q60 -6 60 -90q-2 -78 -72 -78h-10q-111 68 -249 68q-21 0 -43 -2q-166 -12 -404 -170q-10 -4 -20 -4q-48 0 -48 80z " />
<glyph unicode="M" horiz-adv-x="1250" d="M2 676l130 574q84 370 176 542q2 16 14 50q12 72 110 72q60 0 60 -42q0 -26 -26 -72q-48 -86 -102 -222q184 160 342 242q44 14 76 14q60 0 60 -52q0 -40 -26 -116q-4 -22 -12 -64q170 146 314 218q44 14 76 14q60 0 60 -52q0 -40 -26 -116q-20 -120 -112 -508 q-44 -186 -62 -254q-38 -142 -76 -252q0 -48 -94 -58q-12 -1 -21 -1q-43 0 -43 29q0 18 16 48q50 140 136 474q40 154 58 240q28 132 46 242q-8 12 -24 12q-64 0 -282 -196l-90 -398q-46 -204 -114 -392q0 -48 -96 -58q-12 -1 -21 -1q-43 0 -43 29q0 18 18 48 q50 140 136 474q40 154 58 240q28 132 46 242q-10 12 -26 12q-36 0 -104 -50q-98 -72 -234 -196q-108 -350 -136 -652q1 -6 1 -12q0 -46 -81 -74q-34 -12 -56 -12q-28 0 -28 22q0 6 2 12z" />
<glyph unicode="N" horiz-adv-x="922" d="M0 664l132 576q84 370 174 540q4 12 14 50q12 70 110 70q58 0 58 -40q0 -28 -24 -72q-46 -84 -92 -202q84 60 210 124l218 112q44 14 76 14q60 0 60 -52q0 -40 -26 -118q-26 -150 -112 -508l-62 -256q-28 -118 -74 -250q0 -46 -96 -58q-11 -1 -20 -1q-44 0 -44 31 q0 18 16 48q54 146 136 474q40 160 104 482q-8 12 -30 12q-44 0 -142 -48q-146 -72 -276 -180q-114 -340 -148 -684q1 -6 1 -12q0 -46 -81 -74q-34 -12 -56 -12q-28 0 -28 22q0 6 2 12z" />
<glyph unicode="O" horiz-adv-x="1010" d="M2 854q66 656 362 980q118 130 292 134h21q214 0 283 -118q46 -79 45 -273q0 -36 -1 -75q-54 -322 -228 -574q-98 -142 -244 -234q-102 -64 -224 -64q-52 0 -108 12q-98 10 -142 64q-36 44 -56 148zM138 878q0 -52 68 -82q48 -22 112 -26q9 -1 17 -1q267 0 471 541 q50 134 50 209v11q-10 186 -40 232q-44 67 -176 67q-17 0 -36 -1q-184 -38 -332 -406q-122 -302 -128 -514q-6 -16 -6 -30z" />
<glyph unicode="P" horiz-adv-x="896" d="M0 662l166 698q48 200 68 270q50 176 96 256q8 32 14 48q12 64 104 68h6q58 0 58 -40q0 -20 -14 -50q184 76 332 76q28 0 54 -2q50 -10 82 -78q28 -58 28 -116q0 -150 -194 -442q-210 -316 -472 -316q-24 0 -48 2q-38 8 -62 30q-46 -214 -58 -344q1 -6 1 -11 q0 -42 -81 -69q-36 -12 -56 -12q-26 0 -26 20q0 6 2 12zM254 1222q34 -50 76 -52h10l206 82q38 30 170 168q70 94 140 240q28 58 28 100q0 62 -60 90q-16 1 -32 1q-152 0 -372 -99q-96 -228 -166 -530z" />
<glyph unicode="Q" horiz-adv-x="1010" d="M-2 856q66 658 358 980q118 130 292 134h21q214 0 283 -118q47 -82 47 -285q0 -30 -1 -63q-54 -360 -274 -634q6 -20 16 -70l14 -76q30 -62 30 -86q0 -42 -50 -76q-20 -14 -36 -14q-38 0 -54 94q-8 46 -20 122q-156 -130 -326 -130q-24 0 -104 10q-98 12 -142 64 q-36 44 -54 148zM132 880q0 -96 180 -108q8 -1 16 -1q132 0 260 155q-40 138 -178 366q-18 14 -18 36q0 30 33 82t59 52q14 0 22 -18q58 -130 166 -402q68 106 118 236q60 156 60 243v11q-10 178 -42 230q-43 69 -180 69q-15 0 -30 -1q-182 -38 -332 -408 q-122 -302 -128 -512q-6 -16 -6 -30z" />
<glyph unicode="R" horiz-adv-x="884" d="M2 668q10 42 170 698q50 204 68 270q48 174 96 256q4 24 12 48q12 66 104 70h5q59 0 59 -42q0 -20 -14 -48q190 74 332 74q28 0 54 -2q52 -10 84 -78q26 -54 26 -116q0 -206 -208 -468t-408 -288q150 -122 282 -278q28 -20 42 -32q36 -24 36 -64q0 -26 -14 -54 q-16 -34 -40 -34q-32 0 -78 58q-214 268 -400 378q-34 -172 -46 -286q1 -6 1 -12q0 -44 -81 -70q-36 -12 -56 -12q-28 0 -28 21q0 5 2 11zM258 1230q32 -50 78 -52h15q104 0 201 80q22 18 168 168q76 102 142 240q26 54 26 100q0 62 -60 90q-16 1 -32 1q-152 0 -372 -99 q-96 -230 -166 -528z" />
<glyph unicode="S" horiz-adv-x="1048" d="M2 914q0 30 20 55t50 25q14 0 28 -4q142 -200 316 -200q84 0 186 48q208 174 278 432q9 32 9 57q0 34 -18 53q-19 20 -56 20q-23 0 -53 -8q-68 -18 -214 -76q-136 -54 -214 -72q-18 -4 -38 -4q-54 0 -84 46q-26 40 -26 98q0 52 22 116q170 502 542 502q60 0 122 -14 q74 -28 74 -80q0 -38 -25 -66q-22 -24 -52 -24h-9q-48 24 -106 24q-68 0 -146 -34q-146 -64 -204 -188q-49 -66 -49 -130q0 -9 1 -18q4 -50 30 -50q10 0 26 8q272 129 423 129q11 0 21 -1q18 2 34 2q84 0 128 -72q36 -58 36 -148q0 -42 -10 -90q-54 -154 -158 -306 q-110 -164 -230 -256q-116 -54 -226 -54q-60 0 -118 16q-172 48 -268 166q-42 52 -42 98z" />
<glyph unicode="T" horiz-adv-x="556" d="M12 1752q0 38 28 72q288 176 524 176q124 0 234 -50q60 -6 60 -90q-2 -80 -77 -80h-7q-106 70 -234 70q-22 0 -44 -2q-4 -8 -8 -14q-116 -222 -198 -538q-78 -292 -104 -568q1 -6 1 -12q0 -46 -83 -76q-40 -14 -56 -14q-32 0 -24 36l126 582q78 356 170 560 q-112 -44 -240 -128q-10 -4 -20 -4q-48 0 -48 80z" />
<glyph unicode="U" horiz-adv-x="910" d="M6 678q0 40 26 118q26 146 112 506q42 174 136 508q0 48 96 58q11 1 20 1q44 0 44 -31q0 -18 -16 -48q-56 -140 -138 -474q-48 -190 -58 -240q-32 -146 -44 -242q8 -12 30 -12q36 0 126 42q138 64 262 162l94 402q58 246 132 380q12 68 36 95t88 27q58 0 58 -42 q0 -26 -24 -70q-116 -210 -200 -516q-78 -280 -104 -544q1 -6 1 -12q0 -46 -83 -74q-36 -12 -56 -12q-26 0 -26 20q8 20 26 102q6 26 22 92q-132 -90 -424 -232q-46 -16 -78 -16q-58 0 -58 52z" />
<glyph unicode="V" horiz-adv-x="934" d="M94 1386q40 216 58 298q36 170 80 294q0 24 4 52q0 40 45 73t87 33q54 0 54 -44q0 -20 -12 -52q-144 -386 -226 -918q-26 -168 -28 -284q250 326 458 608q288 392 336 572v6q0 48 96 80q36 12 58 12t22 -16q0 -8 -4 -18q-126 -296 -448 -744q-28 -40 -226 -302 q-176 -234 -194 -282q-14 -38 -20 -48q-12 -20 -48 -36q-32 -14 -56 -14h-6q-42 -36 -88 -54q-15 -6 -25 -6q-6 0 -11 2q-10 3 -10 17q0 209 104 771z" />
<glyph unicode="W" horiz-adv-x="1212" d="M0 682q0 40 26 118q56 314 186 804q40 148 62 212q0 46 96 56q11 1 20 1q44 0 44 -31q0 -18 -16 -46q-58 -146 -138 -476l-58 -240q-30 -122 -44 -240q8 -12 26 -12q60 0 280 196l90 400q42 182 114 392q-2 46 94 56q11 1 20 1q44 0 44 -31q0 -18 -16 -46 q-44 -108 -136 -476l-60 -238q-30 -118 -44 -242q10 -12 26 -12q60 0 274 190q48 208 96 418q66 264 136 392q4 28 12 50q14 70 112 70q60 0 60 -40q0 -26 -26 -72q-232 -410 -304 -1060q1 -6 1 -12q0 -46 -83 -74q-36 -12 -56 -12q-24 0 -24 18q0 8 2 16l16 72q4 22 18 70 q-176 -148 -302 -208q-44 -14 -78 -14q-60 0 -60 50q0 40 28 118q2 28 12 64q-168 -146 -314 -218q-44 -14 -76 -14q-60 0 -60 50z" />
<glyph unicode="X" horiz-adv-x="986" d="M-8 664q0 32 36 80l468 620q-86 358 -100 548q-24 72 -24 78q0 62 66 112q22 16 46 16q46 0 50 -78q14 -224 70 -526q226 324 268 480v6q0 48 94 78q38 12 58 12q24 0 24 -18q0 -6 -4 -16q-102 -248 -410 -692q86 -434 192 -622q16 -12 16 -34q0 -30 -40 -94t-66 -64 q-14 0 -20 20q-108 314 -186 648l-192 -252q-142 -186 -163 -240t-47 -75t-84 -21q-52 0 -52 34z" />
<glyph unicode="Y" horiz-adv-x="846" d="M-6 944q0 4 24 118q94 444 176 746q34 122 60 200q-2 44 96 56q12 1 21 1q43 0 43 -29q0 -18 -16 -48q-54 -134 -130 -440l-56 -224q-30 -118 -42 -224q8 -12 30 -12q38 0 128 42q136 64 264 164q60 258 88 364q64 248 120 348q6 22 14 52q12 70 110 70q60 0 60 -42 q0 -26 -26 -72q-114 -204 -232 -658q-110 -422 -132 -656q1 -6 1 -12q0 -46 -83 -74q-36 -12 -56 -12q-32 0 -24 34q38 164 122 504q-124 -86 -424 -232q-46 -16 -78 -16q-58 0 -58 52z" />
<glyph unicode="Z" horiz-adv-x="960" d="M-4 624q-5 17 -5 34q0 38 29 72q4 2 14 8q142 226 424 672l176 274q92 144 196 258q-58 18 -126 18q-204 0 -464 -172q-10 -4 -20 -4q-26 0 -44 46q-8 20 -8 34q0 40 32 72q290 174 524 174q126 0 234 -50q20 0 40 -22q36 -12 46 -44q2 -5 2 -10q0 -27 -44 -66 q-146 -128 -390 -488q-216 -320 -358 -584q154 58 290 58q124 0 234 -48q60 -6 60 -90q-2 -80 -77 -80h-7q-109 68 -248 68q-21 0 -44 -2q-166 -12 -404 -170q-10 -4 -18 -4q-28 0 -44 46z" />
<glyph unicode="_" horiz-adv-x="1098" d="M6 582q0 58 68 54q80 -4 280 -30q178 -24 280 -24q220 0 294 72q16 4 32 4q58 0 102 -66q20 -30 20 -50q0 -34 -62 -36q-158 -86 -488 -76q-58 2 -198 16q-126 12 -198 12q-14 -8 -26 -8q-58 0 -92 82q-12 28 -12 50z" />
<glyph unicode="a" horiz-adv-x="986" d="M2 820q0 26 12 50q212 244 378 292q150 64 360 64q20 86 56 170q1 5 1 9q0 37 -45 37q-50 0 -120 -12q-132 -62 -286 -186q-22 -18 -46 -18q-22 0 -45 16t-23 36t22 44q132 146 360 238q114 32 188 32q144 0 146 -118q-124 -248 -190 -604q-149 -234 -442 -234h-10 q-238 26 -286 100q-30 46 -30 84zM188 858q-1 -9 -1 -16q0 -47 31 -66q25 -15 71 -15q10 0 21 1q46 -7 85 -7q63 0 107 18q72 29 142 127l24 92q10 39 10 77v13q-46 12 -88 12q-66 0 -176 -46q-90 -38 -133 -73t-93 -117z" />
<glyph unicode="b" horiz-adv-x="910" d="M-2 660q40 160 128 476q86 282 180 454q8 38 14 50q12 72 105 72h5q60 0 60 -42q0 -28 -26 -72q-62 -106 -114 -224q195 82 355 82q24 0 47 -2q136 -28 136 -128q0 -132 -170 -388q-210 -316 -470 -316q-24 0 -48 2q-46 10 -74 40q-38 -30 -88 -36q-22 -2 -34 5 q-8 5 -8 15q0 5 2 12zM170 814q36 -52 80 -54h14q103 0 202 80q32 26 170 168q72 96 114 180q12 24 12 44q0 52 -70 84q-26 2 -52 2q-130 0 -356 -100q-84 -216 -114 -404z" />
<glyph unicode="c" horiz-adv-x="858" d="M0 830q140 518 616 728q58 26 96 26q36 0 62 -27t28 -65q12 -40 12 -84q0 -56 -20 -122v-6q0 -48 -66 -82q-32 -16 -50 -16q-22 0 -22 24q22 60 22 104q0 90 -52 104q-190 -94 -306 -226q-104 -120 -194 -328q-1 -8 -1 -15q0 -65 51 -65q26 0 66 16q30 12 366 182 q12 6 22 6q28 0 42 -48q5 -20 5 -36q0 -37 -29 -54q-284 -160 -462 -204q-40 -10 -66 -10q-120 0 -120 198z" />
<glyph unicode="d" horiz-adv-x="998" d="M0 790q136 488 614 686q58 24 98 24t64 -26q28 66 62 132q2 16 14 50q12 72 105 72h5q60 0 60 -42q0 -26 -26 -72q-266 -472 -306 -876q1 -6 1 -12q0 -45 -83 -72q-38 -12 -56 -12q-26 0 -26 20q4 10 14 52q2 14 10 40q-204 -104 -364 -142q-34 -8 -64 -8 q-122 0 -122 175v11zM124 818q-1 -7 0 -13q0 -61 52 -61q26 0 64 14q122 46 174 74q92 50 180 92q76 224 76 336v16q-2 58 -46 66q-188 -88 -302 -212q-104 -112 -198 -312z" />
<glyph unicode="e" horiz-adv-x="896" d="M4 842q0 78 58 136q88 88 228 160h-6q-97 0 -136 60q-12 18 -12 42q0 56 68 136q180 210 600 210q42 -4 60 -66q2 -12 2 -22q0 -40 -58 -44q-52 10 -106 10q-204 0 -366 -128q-40 -54 -40 -80q0 -30 48 -20q126 28 322 68q68 -11 68 -51v-7q-6 -46 -64 -72 q-304 -94 -496 -248q-52 -42 -52 -84q0 -44 38 -67t84 -23q24 0 54 4q130 42 358 178q24 14 42 14q46 0 46 -50q0 -30 -36 -66q-292 -190 -478 -200q-162 28 -210 122q-16 46 -16 88z" />
<glyph unicode="f" horiz-adv-x="740" d="M4 1204q0 32 22 58q84 50 174 86q78 216 194 372q80 152 258 182h18q168 0 176 -180q4 -20 4 -38q0 -58 -46 -96q-28 -22 -42 -22q-26 0 -36 40q-8 176 -72 176q-22 0 -48 -18q-114 -114 -230 -368q34 4 66 4q96 0 184 -40q48 -6 48 -70q-2 -64 -62 -64h-4 q-84 56 -188 56q-48 0 -98 -12q-118 -290 -186 -594q-22 -48 -58 -48q-22 0 -44 14t-22 34q0 14 10 30q76 322 128 494q-40 -22 -92 -54q-10 -4 -16 -4q-38 0 -38 62z" />
<glyph unicode="g" horiz-adv-x="960" d="M-196 494q0 20 23 35t45 15q34 0 70 -36q158 -60 384 -82q42 -4 80 -4q166 0 254 78q32 56 32 114q0 62 -34 124q-172 -104 -388 -104q-30 0 -78 4q-190 16 -190 172q0 20 2 40q136 414 508 558q44 4 62 4q46 118 146 192q14 16 36 16q50 0 94 -40q30 -28 30 -58.5 t-50 -45.5q-60 -40 -74 -98q122 -62 122 -240q0 -88 -28 -196q-30 -60 -68 -100q36 -80 50 -160q5 -31 5 -61q0 -63 -23 -119q-36 -88 -122 -130q-124 -60 -310 -60q-254 0 -502 98q-76 48 -76 84zM150 872q0 -94 126 -106q26 -2 51 -2q102 0 195 38q128 54 184 162 q18 66 18 122q0 184 -190 184q-24 0 -50 -2q-240 -94 -330 -364q-4 -18 -4 -32z" />
<glyph unicode="h" horiz-adv-x="884" d="M8 664q70 278 130 474q86 286 180 456q4 12 14 50q12 72 110 72q60 0 60 -42q0 -18 -82 -176q-18 -36 -50 -102q154 56 278 56q30 0 58 -2q20 6 36 6q92 0 92 -186v-24q-6 -248 -262 -612q-24 -44 -50 -44q-52 0 -52 70q0 32 16 76q116 132 192 334q34 90 34 164 q0 70 -64 80q-16 1 -33 1q-136 0 -311 -71q-110 -276 -134 -516q1 -6 1 -12q0 -46 -81 -74q-34 -12 -56 -12q-28 0 -28 22q0 6 2 12z" />
<glyph unicode="i" horiz-adv-x="392" d="M6 660l110 440q30 120 106 260q4 28 12 50q14 70 112 70q60 0 60 -40q0 -26 -26 -72q-114 -200 -150 -308q-40 -120 -62 -336q1 -6 1 -12q0 -46 -81 -74q-34 -12 -56 -12q-28 0 -28 22q0 6 2 12zM294 1674q16 46 59 82t91 36q24 0 36 -13t12 -33q0 -46 -51 -99t-97 -53 q-34 0 -47 24q-7 14 -7 30q0 12 4 26z" />
<glyph unicode="j" horiz-adv-x="518" d="M-384 466q0 54 40 90q24 22 46 22t34 -38q14 -174 76 -174q22 0 50 22q142 152 270 524q98 286 154 582q18 50 56 50q12 0 28 -6q40 -14 40 -40q0 -14 -10 -30q-86 -430 -114 -532q-80 -296 -214 -496q-82 -168 -250 -192q-28 -4 -40 -4q-146 0 -160 176q-6 24 -6 46z M294 1746q0 42 62 96q50 44 98 44t48 -46q0 -50 -54 -102t-94 -52q-24 0 -42 18t-18 42z" />
<glyph unicode="k" horiz-adv-x="972" d="M2 664q90 350 128 476q82 270 182 454q6 30 14 52q12 70 110 70q60 0 60 -42q0 -26 -26 -72q-92 -162 -162 -334q168 62 268 126q88 56 230 186q14 26 48 26q30 0 68 -16q62 -26 62 -48q0 -10 -16 -22q-198 -144 -232 -168q-134 -92 -244 -148q72 14 136 14q26 0 50 -2 q28 8 52 8q58 0 90 -54q28 -46 28 -106q0 -160 -226 -480q-24 -46 -50 -46q-52 0 -52 72q0 32 16 76q100 112 154 240q16 38 16 72q0 82 -130 82q-140 0 -366 -100q-36 -132 -46 -252q1 -6 1 -12q0 -46 -81 -74q-34 -12 -56 -12q-28 0 -28 22q0 6 2 12z" />
<glyph unicode="l" horiz-adv-x="492" d="M4 662q38 154 160 478q118 308 156 478q12 56 37 76t81 20q60 0 60 -40q0 -26 -26 -72q-266 -472 -306 -876q1 -6 1 -12q0 -46 -81 -74q-34 -12 -56 -12q-28 0 -28 22q0 6 2 12z" />
<glyph unicode="m" horiz-adv-x="1074" d="M0 664l112 442q30 122 104 258q2 16 14 50q12 72 110 72q60 0 60 -42q0 -22 -58 -130l-28 -52q112 88 220 142q44 14 76 14q60 0 60 -52q0 -40 -26 -116v-8q126 100 244 162q44 14 76 14q62 0 62 -52q0 -4 -26 -116q-94 -398 -148 -554q0 -48 -96 -58q-12 -1 -21 -1 q-43 0 -43 29q0 20 18 50q110 296 138 494q-10 12 -26 12q-50 0 -210 -134q-46 -194 -114 -392q0 -48 -96 -58q-12 -1 -21 -1q-43 0 -43 29q0 20 18 50q110 300 136 494q-10 12 -26 12q-54 0 -244 -164q-36 -104 -60 -330q1 -6 1 -12q0 -46 -81 -74q-34 -12 -56 -12 q-28 0 -28 22q0 6 2 12z" />
<glyph unicode="n" horiz-adv-x="834" d="M2 664l110 442q28 116 106 258q4 28 12 50q14 72 112 72q60 0 60 -42q0 -28 -36 -90q-14 -24 -50 -90l-46 -90q154 116 380 230q44 14 76 14q60 0 60 -52q0 -8 -25 -115t-63 -269q-36 -144 -84 -286q0 -48 -96 -58q-11 -1 -20 -1q-44 0 -44 31q0 18 16 48 q112 290 138 494q-10 12 -30 12q-40 0 -122 -48q-124 -72 -254 -186q-24 -104 -38 -260q1 -6 1 -12q0 -46 -81 -74q-34 -12 -56 -12q-28 0 -28 22q0 6 2 12z" />
<glyph unicode="o" horiz-adv-x="960" d="M8 810q0 18 2 40q136 414 506 558q40 4 76 4q194 0 254 -112q38 -72 38 -170q0 -84 -28 -188q-76 -150 -248 -234q-156 -76 -338 -76q-28 0 -74 4q-188 16 -188 174zM156 872q0 -98 124 -108q24 -2 48 -2q122 0 220 48q112 54 162 154q18 68 18 124q0 182 -184 182 q-26 0 -54 -4q-244 -94 -332 -362q-2 -16 -2 -32z" />
<glyph unicode="p" d="M-50 394q78 310 128 476q86 282 180 454q2 16 14 50q12 72 110 72q48 0 54 -42q167 59 306 59q20 0 40 -1q136 -28 136 -128q0 -138 -168 -388q-212 -316 -470 -316q-98 0 -130 52q-30 -118 -40 -224q1 -6 1 -12q0 -46 -81 -74q-34 -12 -56 -12q-26 0 -26 22q0 5 2 12z M194 834q36 -64 86 -66h14q103 0 202 80q32 26 170 168q72 96 114 180q12 24 12 44q0 52 -70 84q-24 2 -50 2q-124 0 -300 -74q-110 -212 -178 -418z" />
<glyph unicode="q" d="M0 406q8 120 118 244q-108 38 -108 154q0 20 4 42q138 414 508 558q56 4 78 4q46 114 146 192q14 16 36 16q50 0 94 -40q30 -28 30 -58.5t-50 -45.5q-64 -44 -76 -106q110 -66 110 -234q0 -86 -28 -194q-144 -278 -528 -306q-196 -129 -196 -261q0 -14 2 -27 q34 -72 158 -72q30 0 50 2q166 16 234 100q20 38 60 38q26 0 58 -15t32 -37q0 -28 -52 -62q-206 -134 -394 -134q-42 0 -86 8q-201 36 -201 213q0 11 1 21zM162 868q0 -98 124 -108q24 -2 48 -2q108 0 200 38q128 52 182 164q18 66 18 120q0 186 -186 186q-26 0 -54 -4 q-242 -94 -330 -362q-2 -16 -2 -32z" />
<glyph unicode="r" horiz-adv-x="872" d="M0 664l112 442q32 130 104 258q8 38 14 50q12 72 110 72q60 0 60 -42q0 -26 -26 -72q-8 -16 -22 -40q178 127 326 127q13 0 26 -1q18 6 32 6q98 0 98 -166q0 -60 -18 -140q1 -12 1 -22q0 -75 -75 -92q-16 -6 -30 -6q-34 0 -34 32q0 14 8 38q23 64 23 120q0 12 -1 24 q-4 60 -64 70q-108 0 -238 -104q-50 -40 -194 -188q-30 -106 -50 -302q1 -6 1 -12q0 -46 -81 -74q-34 -12 -56 -12q-28 0 -28 22q0 6 2 12z" />
<glyph unicode="s" horiz-adv-x="1112" d="M-2 818q0 16 10 28q23 29 63 29q13 0 27 -3q144 -108 298 -108q88 0 198 36q234 132 284 260q8 20 8 36q0 52 -74 52q-54 0 -262 -56q-192 -52 -254 -52q-114 0 -114 96q0 34 24 80q174 338 542 338q60 0 122 -10q70 -18 70 -56q0 -10 -8 -26q-28 -54 -81 -54h-7 q-46 16 -98 16q-70 0 -146 -26q-140 -48 -200 -132q-49 -47 -49 -78q0 -4 1 -8q5 -18 27 -18q13 0 31 6q66 22 276 82l14 4q72 20 140 20h12q16 2 31 2q95 0 139 -66q30 -46 30 -98q0 -32 -12 -64q-124 -240 -386 -380q-116 -36 -226 -36q-56 0 -118 12q-174 34 -270 110 q-42 34 -42 64z" />
<glyph unicode="t" horiz-adv-x="790" d="M66 1302q0 36 24 66q102 70 194 108q70 198 158 352q10 38 34 38q32 0 66 -36t34 -68q0 -34 -34 -70q-46 -82 -84 -168q22 2 44 2q100 0 186 -46q48 -6 48 -80q-2 -72 -60 -72h-6q-84 62 -184 62q-42 0 -86 -10q-14 -32 -168 -508q-8 -24 -8 -38q0 -48 66 -47q12 0 26 1 h5q35 0 87 24q78 36 88 40q48 0 48 -55q0 -67 -36 -95q-212 -64 -286 -64h-8q-70 4 -110 62q-33 45 -33 105q0 9 1 19q50 160 152 482q-36 -22 -104 -70q-8 -4 -16 -4q-38 0 -38 70z" />
<glyph unicode="u" horiz-adv-x="858" d="M-6 684q0 6 26 120q86 384 146 554q-2 44 96 56q12 1 21 1q43 0 43 -29q0 -18 -16 -48q-110 -278 -138 -496q8 -12 26 -12q32 0 100 50q106 78 230 192q48 166 112 286q4 12 14 50q12 72 110 72q60 0 60 -42q0 -26 -26 -72q-112 -202 -148 -308q-42 -124 -64 -336 q1 -6 1 -12q0 -46 -83 -74q-36 -12 -56 -12q-26 0 -26 20q0 6 36 148l28 112q-208 -184 -356 -254q-46 -16 -78 -16q-58 0 -58 50z" />
<glyph unicode="v" horiz-adv-x="694" d="M0 668q0 6 4 14q40 346 40 518q0 136 -24 250q2 75 77 75q7 0 15 -1q84 -6 90 -94q5 -97 5 -167q0 -35 -1 -63q-6 -98 -30 -238q106 108 204 272q4 6 166 298q24 44 66 44q24 0 48 -16q42 -28 42 -62q0 -20 -12 -38q-174 -272 -530 -744q-2 -89 -71 -89q-8 0 -17 1 q-72 10 -72 40z" />
<glyph unicode="w" horiz-adv-x="1150" d="M2 684q0 6 26 120q86 384 146 554q-2 44 96 56q12 1 21 1q43 0 43 -29q0 -18 -16 -48q-110 -278 -138 -496q8 -12 24 -12q54 0 230 150q44 188 110 378q-2 44 94 56q12 1 21 1q43 0 43 -29q0 -18 -16 -48q-108 -288 -136 -496q8 -12 24 -12q58 0 262 178q52 208 128 350 q4 28 12 50q14 72 112 72q60 0 60 -42q0 -26 -26 -72q-114 -206 -150 -308q-40 -118 -62 -336q1 -6 1 -12q0 -46 -83 -74q-36 -12 -56 -12q-32 0 -24 34q32 124 46 186q-154 -128 -286 -194q-46 -16 -80 -16q-58 0 -58 50q0 40 28 120q0 8 4 20q-144 -114 -264 -174 q-46 -16 -78 -16q-58 0 -58 50z" />
<glyph unicode="x" horiz-adv-x="884" d="M0 666q0 8 10 20q156 184 350 392l-188 344q-20 12 -20 22q0 18 46 36q26 10 48 10q34 0 50 -30q94 -180 162 -284q128 128 238 210q12 12 35 42t63 30q28 0 64 -18q44 -20 44 -44q0 -30 -60 -72q-172 -120 -320 -254q104 -170 146 -276q2 -6 24 -42q14 -26 14 -46 q0 -42 -46 -86q-26 -24 -44 -24q-38 0 -58 84q-80 166 -142 288q-138 -148 -232 -296q-10 -44 -76 -44q-14 0 -34 4q-74 8 -74 34z" />
<glyph unicode="y" horiz-adv-x="820" d="M-192 446q0 22 26 39t50 17q36 0 66 -36q145 -58 245 -58h7q100 2 220 98q62 88 144 374q-108 -76 -222 -132l-204 -100q-46 -16 -78 -16q-58 0 -58 50q0 8 25 118t63 278q38 148 84 278q-2 44 94 56q12 1 21 1q43 0 43 -29q0 -18 -16 -48q-112 -296 -138 -496 q10 -14 34 -14q40 0 128 42q138 66 264 170q20 96 24 172q1 11 1 21q0 59 -21 85q-2 94 86 142q26 14 42 14q38 0 38 -63v-13q10 -32 10 -82q0 -44 -8 -102q-46 -332 -200 -698q-96 -226 -360 -226q-152 0 -344 80q-66 44 -66 78z" />
<glyph unicode="z" horiz-adv-x="1074" d="M-6 766q0 44 63 45q5 0 11 -1q0 4 4 4q254 242 336 312q194 170 364 276q-92 12 -164 12q-36 0 -60 -2q-92 -8 -256 -44q-14 -8 -28 -8q-36 0 -80 58q-32 42 -32 62t28 22l454 32q28 2 66 2q96 0 212 -20q18 0 52 4q6 1 11 1q61 0 91 -83q6 -18 6 -34q0 -40 -54 -40 q-16 0 -38 4q-4 -4 -12 -8q-188 -102 -398 -258q-266 -198 -328 -324l-2 -2q128 -25 222 -25q19 0 36 1q104 6 278 40q12 8 24 8q36 0 80 -62q30 -42 30 -62q0 -18 -26 -20q-70 -4 -456 -24q-19 -1 -39 -1q-106 0 -237 27q-28 -4 -52 -4h-9q-61 0 -89 78q-8 22 -8 34z" />
<glyph unicode="&#xad;" d="M4 1126q4 38 90 42q106 -4 320 -4q254 10 318 110q16 8 34 8q44 0 82 -54q22 -30 22 -54q0 -30 -46 -38q-116 -102 -380 -128q-102 -10 -191 -9t-127 -3q-12 -10 -26 -10q-44 0 -80 70q-18 36 -16 70z" />
<glyph unicode="&#xd2;" horiz-adv-x="670" d="M10 1982q4 48 36 62q36 16 80 -22q36 -30 55 -71t79 -181q34 -78 34 -110q0 -24 -20 -24q-40 0 -128 94q-70 74 -96 114q-46 70 -40 138zM282 1982q6 48 36 62q36 16 80 -22q36 -32 55 -72t79 -180q34 -78 34 -110q0 -24 -20 -24q-42 0 -136 102q-140 152 -128 244z" />
<glyph unicode="&#xd3;" horiz-adv-x="670" d="M8 1660q0 36 34 110l80 176q20 42 54 74q46 42 82 24q30 -14 34 -62q8 -106 -144 -258q-100 -100 -130 -86q-10 4 -10 22zM278 1662q0 28 36 108l80 176q20 42 54 74q46 42 82 24q30 -14 34 -62q8 -106 -144 -258q-100 -100 -130 -86q-12 4 -12 24z" />
<glyph unicode="&#xd4;" horiz-adv-x="428" d="M8 1660q0 36 34 110l80 176q20 42 54 74q46 42 82 24q30 -14 34 -62q8 -106 -144 -258q-100 -100 -130 -86q-10 4 -10 22z" />
<glyph unicode="&#xd5;" horiz-adv-x="428" d="M8 1660q0 36 34 110l80 176q20 42 54 74q46 42 82 24q30 -14 34 -62q8 -106 -144 -258q-100 -100 -130 -86q-10 4 -10 22z" />
<glyph unicode="&#x2000;" horiz-adv-x="1082" />
<glyph unicode="&#x2001;" horiz-adv-x="2164" />
<glyph unicode="&#x2002;" horiz-adv-x="1082" />
<glyph unicode="&#x2003;" horiz-adv-x="2164" />
<glyph unicode="&#x2004;" horiz-adv-x="721" />
<glyph unicode="&#x2005;" horiz-adv-x="541" />
<glyph unicode="&#x2006;" horiz-adv-x="360" />
<glyph unicode="&#x2007;" horiz-adv-x="360" />
<glyph unicode="&#x2008;" horiz-adv-x="270" />
<glyph unicode="&#x2009;" horiz-adv-x="432" />
<glyph unicode="&#x200a;" horiz-adv-x="120" />
<glyph unicode="&#x2010;" d="M4 1126q4 38 90 42q106 -4 320 -4q254 10 318 110q16 8 34 8q44 0 82 -54q22 -30 22 -54q0 -30 -46 -38q-116 -102 -380 -128q-102 -10 -191 -9t-127 -3q-12 -10 -26 -10q-44 0 -80 70q-18 36 -16 70z" />
<glyph unicode="&#x2011;" d="M4 1126q4 38 90 42q106 -4 320 -4q254 10 318 110q16 8 34 8q44 0 82 -54q22 -30 22 -54q0 -30 -46 -38q-116 -102 -380 -128q-102 -10 -191 -9t-127 -3q-12 -10 -26 -10q-44 0 -80 70q-18 36 -16 70z" />
<glyph unicode="&#x2012;" d="M4 1126q4 38 90 42q106 -4 320 -4q254 10 318 110q16 8 34 8q44 0 82 -54q22 -30 22 -54q0 -30 -46 -38q-116 -102 -380 -128q-102 -10 -191 -9t-127 -3q-12 -10 -26 -10q-44 0 -80 70q-18 36 -16 70z" />
<glyph unicode="&#x2013;" horiz-adv-x="1105" d="M3 1126q5 38 107 42q125 -4 378 -4q300 10 376 110q19 8 40 8q52 0 97 -54q26 -30 26 -54q0 -30 -54 -38q-138 -102 -450 -128q-120 -10 -225.5 -9t-150.5 -3q-14 -10 -30 -10q-52 0 -95 70q-21 36 -19 70z" />
<glyph unicode="&#x2014;" horiz-adv-x="2129" d="M3 1126q10 38 213 42q251 -4 757 -4q600 10 752 110q38 8 80 8q104 0 194 -54q52 -30 52 -54q0 -30 -109 -38q-274 -102 -898 -128q-241 -10 -451.5 -9t-300.5 -3q-28 -10 -62 -10q-104 0 -189 70q-42 36 -38 70z" />
<glyph unicode="&#x2018;" horiz-adv-x="428" d="M16 1960q-8 -106 144 -258q100 -100 130 -86q10 4 10 22q0 36 -34 110l-80 176q-20 42 -54 74q-46 42 -82 24q-30 -14 -34 -62z" />
<glyph unicode="&#x2019;" horiz-adv-x="526" d="M114 1662q0 36 34 110l80 176q20 42 54 74q46 42 82 24q30 -14 34 -62q8 -106 -144 -258q-100 -100 -130 -86q-10 4 -10 22z" />
<glyph unicode="&#x201c;" horiz-adv-x="670" d="M10 1982q4 48 36 62q36 16 80 -22q36 -30 55 -71t79 -181q34 -78 34 -110q0 -24 -20 -24q-40 0 -128 94q-70 74 -96 114q-46 70 -40 138zM282 1982q6 48 36 62q36 16 80 -22q36 -32 55 -72t79 -180q34 -78 34 -110q0 -24 -20 -24q-42 0 -136 102q-140 152 -128 244z" />
<glyph unicode="&#x201d;" horiz-adv-x="670" d="M8 1660q0 36 34 110l80 176q20 42 54 74q46 42 82 24q30 -14 34 -62q8 -106 -144 -258q-100 -100 -130 -86q-10 4 -10 22zM278 1662q0 28 36 108l80 176q20 42 54 74q46 42 82 24q30 -14 34 -62q8 -106 -144 -258q-100 -100 -130 -86q-12 4 -12 24z" />
<glyph unicode="&#x202f;" horiz-adv-x="432" />
<glyph unicode="&#x205f;" horiz-adv-x="541" />
<glyph unicode="&#x25fc;" horiz-adv-x="1490" d="M0 0v1490h1490v-1490h-1490z" />
</font>
</defs>
</svg>
