<?xml version="1.0" standalone="no"?>
<!DOCTYPE svg PUBLIC "-//W3C//DTD SVG 1.1//EN" "http://www.w3.org/Graphics/SVG/1.1/DTD/svg11.dtd" >
<svg xmlns="http://www.w3.org/2000/svg">
<metadata></metadata>
<defs>
<font id="jargon_brknormal" horiz-adv-x="768" >
<font-face units-per-em="2048" ascent="1638" descent="-410" />
<missing-glyph horiz-adv-x="500" />
<glyph horiz-adv-x="0" />
<glyph horiz-adv-x="682" />
<glyph unicode=" " />
<glyph unicode="!" horiz-adv-x="256" d="M61 6q2 8 16.5 22.5t33 27t37 20.5t30.5 6q16 0 17 -10q0 -15 -25 -33q-47 -43 -92 -43q-16 0 -17 10zM61 262v895q0 8 12.5 21.5t30 26t38 20.5t38.5 8q14 0 15 -10v-895q0 -16 -27 -37q-18 -14 -43 -26.5t-49 -12.5q-14 0 -15 10z" />
<glyph unicode="&#x22;" horiz-adv-x="512" d="M61 901v256q0 8 12.5 21.5t30 26t38 20.5t38.5 8q14 0 15 -10v-256q0 -25 -66 -60q-37 -16 -51 -16q-16 0 -17 10zM317 901v256q0 8 12.5 21.5t30 26t38 20.5t38.5 8q14 0 15 -10v-256q0 -25 -66 -60q-37 -16 -51 -16q-16 0 -17 10z" />
<glyph unicode="#" horiz-adv-x="894" d="M61 262v127q0 18 41 47q45 29 76 29h10v299h-112q-6 0 -10.5 4t-4.5 6v127q0 18 41 47q45 29 76 29h10v180q0 8 12.5 21.5t30 26t38 20.5t38.5 8q14 0 15 -10v-246h251v180q0 12 12.5 25.5t31 25t39 18.5t36.5 7q14 0 15 -10v-246h112q6 0 9 -4t6 -6v-127q0 -23 -43 -49 q-39 -27 -74 -27h-10v-299h112q6 0 9 -4t6 -6v-127q0 -23 -43 -49q-39 -27 -74 -27h-10v-180q0 -8 -12.5 -21.5t-30 -26t-38 -20.5t-38.5 -8q-14 0 -15 10v246h-251v-180q0 -16 -27 -37q-18 -14 -43 -26.5t-49 -12.5q-14 0 -15 10v246h-112q-6 0 -10.5 4t-4.5 6zM322 465 h251v299h-251v-299z" />
<glyph unicode="$" d="M61 133v129q0 25 66 60q37 16 51 16q16 0 17 -10q18 -59 57 -80q63 -39 182 -39q49 0 76 3t47 13q16 16 16 37v256q-23 57 -59 78q-66 39 -182 39q-133 0 -203 43q-43 29 -68 96v127v129q0 23 13 45q25 47 88 86q33 20 77 36.5t78 25.5v63q0 25 66 60q37 16 51 16 q16 0 17 -10v-119q156 0 221 -68q10 -10 18 -28.5t17 -40.5v-129q0 -8 -13.5 -20.5t-32 -25t-39 -21.5t-34.5 -9t-15 10q-23 59 -59 80q-63 39 -182 39q-47 0 -80 -5t-43 -11q-14 -14 -14 -37q18 -57 57 -78q66 -39 182 -39q166 0 236 -70q20 -20 37 -69v-512q0 -14 -7 -29 q-23 -55 -96 -102q-31 -20 -75 -37t-78 -25v-63q0 -8 -13.5 -20.5t-32 -25t-39 -21.5t-34.5 -9t-15 10v119q-125 0 -192 43q-43 31 -64 94z" />
<glyph unicode="%" d="M61 6v383v129q0 66 93 125q-57 14 -80 76q-6 18 -13 55v256q0 37 19 72q29 51 80 84q31 23 65.5 35t79.5 12q90 0 127 -68q12 -20 19 -69v-256q0 -39 -14.5 -67t-39.5 -52h37q49 0 76 3t47 13q16 16 16 37v383q0 12 12.5 25.5t31 25t39 18.5t36.5 7q14 0 15 -10v-383 v-129q0 -23 -13 -43q-20 -41 -80 -82q55 -14 80 -76q6 -18 13 -55v-256q0 -39 -19 -72q-29 -49 -82 -84q-31 -23 -65.5 -35t-79.5 -12q-92 0 -125 67q-8 20 -19 70v256q0 39 14.5 67.5t37.5 51.5h-37q-47 0 -80 -5t-43 -11q-14 -14 -14 -37v-383q0 -8 -12.5 -21.5t-30 -26 t-38 -20.5t-38.5 -8q-14 0 -15 10zM195 967q0 -41 20 -70q31 -47 90 -47q12 26 12 51q0 39 -20 72q-31 47 -90 47q-12 -25 -12 -53zM451 328q0 -39 20 -72q31 -47 90 -47q12 33 12 53q0 41 -20 70q-31 47 -90 47q-12 -22 -12 -51z" />
<glyph unicode="&#x26;" d="M61 133v897q0 23 13 45q25 47 88 86q33 20 77 36.5t78 25.5v63q0 25 66 60q37 16 51 16q16 0 17 -10v-119q156 0 221 -68q10 -10 18 -28.5t17 -40.5v-129q0 -8 -13.5 -20.5t-32 -25t-39 -21.5t-34.5 -9t-15 10q-23 59 -59 80q-63 39 -182 39q-47 0 -80 -5t-43 -11 q-14 -14 -14 -37v-170q55 29 120.5 41t118.5 12q8 0 11.5 -4t5.5 -6v-129q0 -20 -45 -47l-17.5 -10.5t-11.5 -6.5q-29 -12 -45 -12q-57 0 -78 -3t-45 -11q-14 -14 -14 -37v-256q18 -59 57 -80q63 -39 182 -39q49 0 76 3t47 13q16 16 16 37q0 25 66 60q37 16 51 16 q16 0 17 -10v-129q0 -14 -7 -29q-23 -55 -96 -102q-31 -20 -75 -37t-78 -25v-63q0 -8 -13.5 -20.5t-32 -25t-39 -21.5t-34.5 -9t-15 10v119q-125 0 -192 43q-43 31 -64 94z" />
<glyph unicode="'" horiz-adv-x="256" d="M61 901v256q0 8 12.5 21.5t30 26t38 20.5t38.5 8q14 0 15 -10v-256q0 -25 -66 -60q-37 -16 -51 -16q-16 0 -17 10z" />
<glyph unicode="(" horiz-adv-x="512" d="M61 262v127v385v127q0 164 150 258q70 45 149 64q47 10 76 10q6 0 9.5 -4t5.5 -6v-127q0 -23 -43 -49q-39 -27 -74 -27q-33 0 -47.5 -2t-24.5 -8q-12 -8 -23.5 -26.5t-21.5 -42t-16 -50.5t-6 -51v-385q0 -147 120 -213q39 -20 121 -33q6 0 9.5 -4t5.5 -6v-127 q0 -23 -43 -49q-39 -27 -74 -27q-133 0 -203 80q-70 78 -70 186z" />
<glyph unicode=")" horiz-adv-x="512" d="M61 6v127q0 20 45 47q41 29 74 29q16 0 42 6t36 12q10 10 17.5 18.5t11.5 16.5q31 51 30 127v385q-12 82 -30 123q-59 123 -209 123q-8 0 -12.5 4t-4.5 6v127q0 18 43 47q45 29 76 29q55 0 104.5 -16.5t86.5 -50t58.5 -83t21.5 -116.5v-127v-385v-127q0 -61 -25 -119 q-37 -88 -137 -152q-98 -61 -211 -61q-8 0 -12.5 4t-4.5 6z" />
<glyph unicode="*" d="M61 518v127v66q0 23 13 45q25 47 88 86l12 8q-70 20 -98 72q-6 12 -15 45v63v127q0 12 12.5 25.5t31 25t39 18.5t36.5 7q14 0 15 -10v-127q8 -37 28 -58q33 -33 94 -49v168q0 12 12.5 25.5t31 25t39 18.5t36.5 7q14 0 15 -10v-246q43 0 60 2t46 14q16 16 16 37v127 q0 12 12.5 25.5t31 25t39 18.5t36.5 7q14 0 15 -10v-127v-66q0 -14 -7 -29q-23 -55 -96 -102l-12 -8q70 -20 98 -72q4 -8 8 -19.5t9 -25.5v-63v-127q0 -8 -12.5 -21.5t-30 -26t-38 -20.5t-38.5 -8q-14 0 -15 10v127q-4 14 -6 25q-29 61 -116 82v-168q0 -8 -12.5 -21.5 t-30 -26t-38 -20.5t-38.5 -8q-14 0 -15 10v246q-41 0 -62.5 -4t-45.5 -12q-14 -14 -14 -37v-127q0 -8 -12.5 -21.5t-30 -26t-38 -20.5t-38.5 -8q-14 0 -15 10z" />
<glyph unicode="+" d="M61 645v129q0 18 43 47l17.5 10.5t11.5 6.5q27 12 45 12h139v180q0 25 66 60q37 16 51 16q16 0 17 -10v-246h239q8 0 11.5 -4t5.5 -6v-129q0 -20 -45 -47l-17.5 -10.5t-11.5 -6.5q-29 -12 -45 -12h-137v-180q0 -8 -13.5 -20.5t-32 -25t-39 -21.5t-34.5 -9t-15 10v246 h-241q-8 0 -11.5 4t-3.5 6z" />
<glyph unicode="," horiz-adv-x="256" d="M61 6q0 8 12.5 20.5t31 24.5t39 21.5t36.5 9.5q14 0 15 -10v-129q0 -25 -66 -60q-37 -16 -51 -16q-16 0 -17 10v129z" />
<glyph unicode="-" d="M61 645v129q0 18 43 47l17.5 10.5t11.5 6.5q27 12 45 12h512q8 0 11.5 -4t5.5 -6v-129q0 -20 -45 -47l-17.5 -10.5t-11.5 -6.5q-29 -12 -45 -12h-512q-8 0 -11.5 4t-3.5 6z" />
<glyph unicode="." horiz-adv-x="256" d="M61 6q2 8 16.5 22.5t33 27t37 20.5t30.5 6q16 0 17 -10q0 -15 -25 -33q-47 -43 -92 -43q-16 0 -17 10z" />
<glyph unicode="/" d="M61 6v383v129q0 23 13 45q25 45 90 87t135 57q66 14 135 14q49 0 76 3t47 13q16 16 16 37v383q0 12 12.5 25.5t31 25t39 18.5t36.5 7q14 0 15 -10v-383v-129q0 -14 -7 -29q-20 -51 -94 -100q-68 -43 -139 -60q-66 -14 -135 -14q-47 0 -80 -5t-43 -11q-14 -14 -14 -37 v-383q0 -8 -12.5 -21.5t-30 -26t-38 -20.5t-38.5 -8q-14 0 -15 10z" />
<glyph unicode="0" d="M61 133v897q0 23 13 45q25 45 90 87t135 57q66 14 135 14q168 0 236 -68q20 -20 37 -69v-897q0 -14 -7 -29q-20 -51 -94 -100q-68 -43 -139 -60q-66 -14 -135 -14q-133 0 -203 43q-43 29 -68 94zM195 328q18 -59 57 -80q63 -39 182 -39q49 0 76 3t47 13q16 16 16 37v639 q-23 59 -59 80q-63 39 -182 39q-47 0 -80 -5t-43 -11q-14 -14 -14 -37v-639z" />
<glyph unicode="1" horiz-adv-x="256" d="M61 6v1151q0 8 12.5 21.5t30 26t38 20.5t38.5 8q14 0 15 -10v-1151q0 -16 -27 -37q-18 -14 -43 -26.5t-49 -12.5q-14 0 -15 10z" />
<glyph unicode="2" d="M61 133v512q0 25 13 47q12 20 35.5 43t54.5 43.5t65.5 35.5t69.5 22q66 14 135 14q57 0 77.5 3t45.5 11q6 6 11 18.5t5 18.5q-4 25 -12 37q-51 82 -229 82q-47 0 -80 -5t-43 -11q-14 -14 -14 -37q0 -8 -13.5 -20.5t-32 -25t-39 -21.5t-34.5 -9t-15 10v129q0 23 13 45 q25 45 90 87t135 57q66 14 135 14q168 0 236 -68q20 -20 37 -69v-129v-127q0 -16 -7 -31q-23 -53 -94 -100q-68 -43 -139 -60q-66 -14 -135 -14q-57 0 -78 -3t-45 -11q-14 -14 -14 -37v-256q18 -59 57 -80q63 -39 182 -39q49 0 76 3t47 13q16 16 16 37q0 25 66 60 q37 16 51 16q16 0 17 -10v-129q0 -14 -7 -29q-20 -51 -94 -100q-68 -43 -139 -60q-66 -14 -135 -14q-133 0 -203 43q-43 29 -68 94z" />
<glyph unicode="3" d="M61 133v129q0 25 66 60q37 16 51 16q16 0 17 -10q18 -59 57 -80q63 -39 182 -39q49 0 76 3t47 13q16 16 16 37v256q-23 57 -59 78q-66 39 -182 39q-8 0 -11.5 4t-3.5 6v129q0 18 43 47l17.5 10.5t11.5 6.5q27 12 45 12q78 0 139 -16v67q-23 59 -59 80q-63 39 -182 39 q-47 0 -80 -5t-43 -11q-14 -14 -14 -37q0 -8 -13.5 -20.5t-32 -25t-39 -21.5t-34.5 -9t-15 10v129q0 23 13 45q25 45 90 87t135 57q66 14 135 14q168 0 236 -68q20 -20 37 -69v-897q0 -14 -7 -29q-20 -51 -94 -100q-68 -43 -139 -60q-66 -14 -135 -14q-133 0 -203 43 q-43 29 -68 94z" />
<glyph unicode="4" d="M61 774v383q0 12 12.5 25.5t31 25t39 18.5t36.5 7q14 0 15 -10v-256q18 -57 57 -78q66 -39 182 -39q78 0 139 -16v323q0 12 12.5 25.5t31 25t39 18.5t36.5 7q14 0 15 -10v-1151q0 -8 -12.5 -21.5t-30 -26t-38 -20.5t-38.5 -8q-14 0 -15 10v512q-23 57 -59 78 q-66 39 -182 39q-133 0 -203 43q-43 29 -68 96z" />
<glyph unicode="5" d="M61 133v129q0 25 66 60q37 16 51 16q16 0 17 -10q18 -59 57 -80q63 -39 182 -39q49 0 76 3t47 13q16 16 16 37v256q-23 57 -59 78q-66 39 -182 39q-133 0 -203 43q-43 29 -68 96v127v129q0 23 13 45q25 45 90 87t135 57q66 14 135 14q168 0 236 -68q20 -20 37 -69v-129 q0 -8 -13.5 -20.5t-32 -25t-39 -21.5t-34.5 -9t-15 10q-23 59 -59 80q-63 39 -182 39q-47 0 -80 -5t-43 -11q-14 -14 -14 -37q18 -57 57 -78q66 -39 182 -39q166 0 236 -70q20 -20 37 -69v-512q0 -14 -7 -29q-20 -51 -94 -100q-68 -43 -139 -60q-66 -14 -135 -14 q-133 0 -203 43q-43 29 -68 94z" />
<glyph unicode="6" d="M61 133v897q0 23 13 45q25 45 90 87t135 57q66 14 135 14q168 0 236 -68q20 -20 37 -69v-129q0 -8 -13.5 -20.5t-32 -25t-39 -21.5t-34.5 -9t-15 10q-23 59 -59 80q-63 39 -182 39q-47 0 -80 -5t-43 -11q-14 -14 -14 -37v-170q55 29 120.5 41t118.5 12q166 0 236 -70 q20 -20 37 -69v-512q0 -14 -7 -29q-20 -51 -94 -100q-68 -43 -139 -60q-66 -14 -135 -14q-133 0 -203 43q-43 29 -68 94zM195 328q18 -59 57 -80q63 -39 182 -39q49 0 76 3t47 13q16 16 16 37v256q-23 57 -59 78q-66 39 -182 39q-57 0 -78 -3t-45 -11q-14 -14 -14 -37v-256z " />
<glyph unicode="7" d="M61 901v129q0 23 13 45q25 45 90 87t135 57q66 14 135 14q168 0 236 -68q20 -20 37 -69v-1024q0 -8 -12.5 -21.5t-30 -26t-38 -20.5t-38.5 -8q-14 0 -15 10v895q-23 59 -59 80q-63 39 -182 39q-47 0 -80 -5t-43 -11q-14 -14 -14 -37q0 -8 -13.5 -20.5t-32 -25t-39 -21.5 t-34.5 -9t-15 10z" />
<glyph unicode="8" d="M61 133v256v129v64q0 23 13 45q25 47 88 86l12 8q-70 25 -98 72q-8 12 -15 45v63v129q0 23 13 45q25 45 90 87t135 57q66 14 135 14q168 0 236 -68q20 -20 37 -69v-129v-64q0 -14 -7 -29q-23 -55 -96 -102l-12 -8q70 -25 98 -72q4 -8 8 -18t9 -27v-63v-129v-256 q0 -14 -7 -29q-20 -51 -94 -100q-68 -43 -139 -60q-66 -14 -135 -14q-133 0 -203 43q-43 29 -68 94zM195 328q18 -59 57 -80q63 -39 182 -39q49 0 76 3t47 13q16 16 16 37v127v129q-23 57 -59 78q-66 39 -182 39q-57 0 -78 -3t-45 -11q-14 -14 -14 -37v-129v-127zM195 967 q23 -57 59 -78q66 -39 180 -39q57 0 77.5 3t45.5 11q6 6 11 18.5t5 18.5q-4 25 -12 37q-51 82 -229 82q-47 0 -80 -5t-43 -11q-14 -14 -14 -37z" />
<glyph unicode="9" d="M61 774v127v129q0 23 13 45q25 45 90 87t135 57q66 14 135 14q168 0 236 -68q20 -20 37 -69v-1024q0 -8 -12.5 -21.5t-30 -26t-38 -20.5t-38.5 -8q-14 0 -15 10v512q-23 57 -59 78q-66 39 -182 39q-133 0 -203 43q-43 29 -68 96zM195 967q18 -57 57 -78q65 -39 182 -39 q78 0 139 -16v67q-23 59 -59 80q-63 39 -182 39q-47 0 -80 -5t-43 -11q-14 -14 -14 -37z" />
<glyph unicode=":" horiz-adv-x="256" d="M61 6q2 8 16.5 22.5t33 27t37 20.5t30.5 6q16 0 17 -10q0 -15 -25 -33q-47 -43 -92 -43q-16 0 -17 10zM61 1157q0 14 25 33q51 43 92 43q16 0 17 -10q0 -13 -25 -33q-20 -18 -46 -30.5t-46 -12.5q-16 0 -17 10z" />
<glyph unicode=";" horiz-adv-x="256" d="M61 6q0 8 12.5 20.5t31 24.5t39 21.5t36.5 9.5q14 0 15 -10v-129q0 -25 -66 -60q-37 -16 -51 -16q-16 0 -17 10v129zM61 1157q0 15 25 33q51 43 92 43q16 0 17 -10q0 -10 -13.5 -23.5t-32 -25t-39 -19.5t-32.5 -8q-16 0 -17 10z" />
<glyph unicode="&#x3c;" horiz-adv-x="638" d="M61 772v6l5 8l4 5l4 6q61 61 129.5 118.5t134 100.5t124 67.5t99.5 22.5q8 0 11 -4t6 -6v-129q0 -20 -46 -47q-45 -29 -71 -29q-39 0 -103.5 -19.5t-126.5 -44.5q45 -23 86 -39t80 -30q104 -37 164 -37q8 0 11 -4t6 -6v-127q0 -20 -46 -47q-41 -29 -71 -29 q-90 0 -240 119q-78 61 -158 141z" />
<glyph unicode="=" d="M61 582v129q0 16 43 47q41 27 74 26h512q16 0 17 -10v-127q0 -20 -45 -47q-10 -6 -17.5 -10t-11.5 -6q-29 -12 -45 -13h-512q-8 0 -11.5 4.5t-3.5 6.5zM61 838v129q0 16 43 47q41 27 74 26h512q16 0 17 -10v-127q0 -20 -45 -47q-10 -6 -17.5 -10t-11.5 -6 q-29 -12 -45 -13h-512q-8 0 -11.5 4.5t-3.5 6.5z" />
<glyph unicode="&#x3e;" horiz-adv-x="638" d="M61 518v127q0 18 41 47q45 29 76 29t83 14.5t145 50.5q-90 39 -166 68q-109 37 -164 37q-8 0 -11.5 4t-3.5 6v129q0 18 43 47l17.5 10.5t11.5 6.5q27 12 45 12q88 0 238 -119q82 -66 159 -141l3 -4l-3 -13l-4 -4l-4 -6l-4 -4q-61 -61 -129.5 -118.5t-135.5 -99.5 t-125 -66.5t-97 -22.5q-8 0 -11.5 4t-3.5 6z" />
<glyph unicode="?" d="M61 901v129q0 23 13 45q25 45 90 87t135 57q66 14 135 14q168 0 236 -68q20 -20 37 -69v-129v-127q0 -16 -7 -31q-23 -53 -96 -102q-37 -23 -78 -38.5t-75 -23.5v-317q0 -8 -12.5 -21.5t-30 -26t-38 -20.5t-38.5 -8q-14 0 -15 10v512q0 18 43 47l17.5 10.5t11.5 6.5 q27 12 45 12q57 0 77.5 3t45.5 11q6 6 11 18.5t5 18.5q-4 25 -12 37q-51 82 -229 82q-47 0 -80 -5t-43 -11q-14 -14 -14 -37q0 -8 -13.5 -20.5t-32 -25t-39 -21.5t-34.5 -9t-15 10zM317 6q0 10 23 33q27 20 49.5 31.5t44.5 11.5q14 0 15 -10q0 -17 -23 -33q-53 -43 -94 -43 q-14 0 -15 10z" />
<glyph unicode="@" d="M61 6v1024q0 23 13 45q25 45 90 87t135 57q66 14 135 14q168 0 236 -68q20 -20 37 -69v-641v-127v-129q0 -39 -19 -72q-29 -49 -82 -84q-31 -23 -65.5 -35t-79.5 -12q-92 0 -125 67q-8 20 -19 70v256q0 39 21.5 81t77.5 77q31 20 61 31q49 16 84 16l12 -2v309 q-23 59 -59 80q-63 39 -182 39q-47 0 -80 -5t-43 -11q-14 -14 -14 -37v-895q0 -8 -12.5 -21.5t-30 -26t-38 -20.5t-38.5 -8q-14 0 -15 10zM451 328q0 -39 20 -72q31 -47 90 -47q12 33 12 53q0 41 -20 70q-31 47 -90 47q-12 -22 -12 -51z" />
<glyph unicode="A" d="M61 6v1024q0 23 13 45q25 45 90 87t135 57q66 14 135 14q168 0 236 -68q20 -20 37 -69v-1024q0 -8 -12.5 -21.5t-30 -26t-38 -20.5t-38.5 -8q-14 0 -15 10v512q-23 57 -59 78q-66 39 -182 39q-57 0 -78 -3t-45 -11q-14 -14 -14 -37v-512q0 -8 -12.5 -21.5t-30 -26 t-38 -20.5t-38.5 -8q-14 0 -15 10zM195 797q55 29 120.5 41t118.5 12q78 0 139 -16v67q-23 59 -59 80q-63 39 -182 39q-47 0 -80 -5t-43 -11q-14 -14 -14 -37v-170z" />
<glyph unicode="B" d="M61 133v256v129v512q0 23 13 45q25 45 90 87t135 57q66 14 135 14q168 0 236 -68q20 -20 37 -69v-66v-63v-64q0 -14 -7 -29q-23 -55 -96 -102l-12 -8q70 -25 98 -72q4 -8 8 -18t9 -27v-63v-256v-129q0 -14 -7 -29q-20 -51 -94 -100q-68 -43 -139 -60q-66 -14 -135 -14 q-133 0 -203 43q-43 29 -68 94zM195 328q18 -59 57 -80q63 -39 182 -39q49 0 76 3t47 13q16 16 16 37v256q-23 57 -59 78q-66 39 -182 39q-57 0 -78 -3t-45 -11q-14 -14 -14 -37v-129v-127zM195 797q55 29 120.5 41t118.5 12q57 0 77.5 3t45.5 11q6 6 11 18.5t5 18.5 q-4 25 -12 37q-51 82 -229 82q-47 0 -80 -5t-43 -11q-14 -14 -14 -37v-170z" />
<glyph unicode="C" d="M61 133v897q0 23 13 45q25 45 90 87t135 57q66 14 135 14q168 0 236 -68q20 -20 37 -69v-129q0 -8 -13.5 -20.5t-32 -25t-39 -21.5t-34.5 -9t-15 10q-23 59 -59 80q-63 39 -182 39q-47 0 -80 -5t-43 -11q-14 -14 -14 -37v-639q18 -59 57 -80q63 -39 182 -39q49 0 76 3 t47 13q16 16 16 37q0 25 66 60q37 16 51 16q16 0 17 -10v-129q0 -14 -7 -29q-20 -51 -94 -100q-68 -43 -139 -60q-66 -14 -135 -14q-133 0 -203 43q-43 29 -68 94z" />
<glyph unicode="D" d="M61 133v897q0 23 13 45q25 45 90 87t135 57q66 14 135 14q131 0 203 -80q70 -78 70 -186v-639q0 -63 -25 -119q-39 -88 -137 -152q-96 -61 -213 -61q-133 0 -203 43q-43 29 -68 94zM195 328q18 -59 57 -80q63 -39 182 -39q33 0 47.5 2t24.5 8q12 8 23.5 26.5t21.5 42 t16 50.5t6 51v385q-10 82 -30 123q-61 123 -211 123q-47 0 -80 -5t-43 -11q-14 -14 -14 -37v-639z" />
<glyph unicode="E" d="M61 133v897q0 23 13 45q25 45 90 87t135 57q66 14 135 14q168 0 236 -68q20 -20 37 -69v-129q0 -8 -13.5 -20.5t-32 -25t-39 -21.5t-34.5 -9t-15 10q-23 59 -59 80q-63 39 -182 39q-47 0 -80 -5t-43 -11q-14 -14 -14 -37v-170q55 29 120.5 41t118.5 12q8 0 11.5 -4 t5.5 -6v-129q0 -20 -45 -47l-17.5 -10.5t-11.5 -6.5q-29 -12 -45 -12q-57 0 -78 -3t-45 -11q-14 -14 -14 -37v-256q18 -59 57 -80q63 -39 182 -39q49 0 76 3t47 13q16 16 16 37q0 25 66 60q37 16 51 16q16 0 17 -10v-129q0 -14 -7 -29q-20 -51 -94 -100q-68 -43 -139 -60 q-66 -14 -135 -14q-133 0 -203 43q-43 29 -68 94z" />
<glyph unicode="F" d="M61 6v1024q0 23 13 45q25 45 90 87t135 57q66 14 135 14q168 0 236 -68q20 -20 37 -69v-129q0 -8 -13.5 -20.5t-32 -25t-39 -21.5t-34.5 -9t-15 10q-23 59 -59 80q-63 39 -182 39q-47 0 -80 -5t-43 -11q-14 -14 -14 -37v-170q55 29 120.5 41t118.5 12q8 0 11.5 -4t5.5 -6 v-129q0 -20 -45 -47l-17.5 -10.5t-11.5 -6.5q-29 -12 -45 -12q-57 0 -78 -3t-45 -11q-14 -14 -14 -37v-512q0 -8 -12.5 -21.5t-30 -26t-38 -20.5t-38.5 -8q-14 0 -15 10z" />
<glyph unicode="G" d="M61 133v897q0 23 13 45q25 45 90 87t135 57q66 14 135 14q168 0 236 -68q20 -20 37 -69v-129q0 -8 -13.5 -20.5t-32 -25t-39 -21.5t-34.5 -9t-15 10q-23 59 -59 80q-63 39 -182 39q-47 0 -80 -5t-43 -11q-14 -14 -14 -37v-639q18 -59 57 -80q63 -39 182 -39q49 0 76 3 t47 13q16 16 16 37v256q-23 57 -59 78q-66 39 -182 39q-8 0 -11.5 4t-3.5 6v129q0 18 43 47l17.5 10.5t11.5 6.5q27 12 45 12q166 0 236 -70q20 -20 37 -69v-512q0 -14 -7 -29q-20 -51 -94 -100q-68 -43 -139 -60q-66 -14 -135 -14q-133 0 -203 43q-43 29 -68 94z" />
<glyph unicode="H" d="M61 6v1151q0 12 12.5 25.5t31 25t39 18.5t36.5 7q14 0 15 -10v-426q55 29 120.5 41t118.5 12q78 0 139 -16v323q0 12 12.5 25.5t31 25t39 18.5t36.5 7q14 0 15 -10v-1151q0 -8 -12.5 -21.5t-30 -26t-38 -20.5t-38.5 -8q-14 0 -15 10v512q-23 57 -59 78q-66 39 -182 39 q-57 0 -78 -3t-45 -11q-14 -14 -14 -37v-512q0 -8 -12.5 -21.5t-30 -26t-38 -20.5t-38.5 -8q-14 0 -15 10z" />
<glyph unicode="I" d="M61 133v129q0 25 66 60q37 16 51 16q16 0 17 -10q8 -37 28 -58q33 -33 94 -49v799q-41 0 -62.5 -4t-45.5 -12q-14 -14 -14 -37q0 -8 -13.5 -20.5t-32 -25t-39 -21.5t-34.5 -9t-15 10v129q0 23 13 45q25 45 90 87t135 57q66 14 135 14q168 0 236 -68q20 -20 37 -69v-129 q0 -8 -13.5 -20.5t-32 -25t-39 -21.5t-34.5 -9t-15 10q-4 14 -6 25q-29 61 -116 82v-799q43 0 60 2t46 14q16 16 16 37q0 25 66 60q37 16 51 16q16 0 17 -10v-129q0 -14 -7 -29q-20 -51 -94 -100q-68 -43 -139 -60q-66 -14 -135 -14q-133 0 -203 43q-43 29 -68 94z" />
<glyph unicode="J" d="M61 133v129q0 25 66 60q37 16 51 16q16 0 17 -10q18 -59 57 -80q63 -39 182 -39q49 0 76 3t47 13q16 16 16 37v895q0 12 12.5 25.5t31 25t39 18.5t36.5 7q14 0 15 -10v-1024q0 -14 -7 -29q-20 -51 -94 -100q-68 -43 -139 -60q-66 -14 -135 -14q-133 0 -203 43 q-43 29 -68 94z" />
<glyph unicode="K" d="M61 6v1151q0 12 12.5 25.5t31 25t39 18.5t36.5 7q14 0 15 -10v-426q55 29 120.5 41t118.5 12q57 0 77.5 3t45.5 11q6 6 11 18.5t5 18.5v129v127q0 12 12.5 25.5t31 25t39 18.5t36.5 7q14 0 15 -10v-127v-129v-64q0 -14 -7 -29q-23 -55 -96 -102l-12 -8q70 -25 98 -72 q4 -8 8 -18t9 -27v-63v-256v-256q0 -8 -12.5 -21.5t-30 -26t-38 -20.5t-38.5 -8q-14 0 -15 10v256v256q-23 57 -59 78q-66 39 -182 39q-57 0 -78 -3t-45 -11q-14 -14 -14 -37v-512q0 -8 -12.5 -21.5t-30 -26t-38 -20.5t-38.5 -8q-14 0 -15 10z" />
<glyph unicode="L" d="M61 133v1024q0 12 12.5 25.5t31 25t39 18.5t36.5 7q14 0 15 -10v-895q18 -59 57 -80q63 -39 182 -39q49 0 76 3t47 13q16 16 16 37q0 25 66 60q37 16 51 16q16 0 17 -10v-129q0 -14 -7 -29q-20 -51 -94 -100q-68 -43 -139 -60q-66 -14 -135 -14q-133 0 -203 43 q-43 29 -68 94z" />
<glyph unicode="M" horiz-adv-x="1280" d="M61 6v1024q0 12 7 29q20 53 92 100q68 43 139 60q66 14 135 14q98 0 155.5 -20.5t86.5 -51.5q68 43 136.5 57.5t133.5 14.5q133 0 205 -43q43 -29 68 -94v-1024q0 -16 -27 -37q-18 -14 -43 -26.5t-49 -12.5q-14 0 -15 10v895q-18 59 -57 80q-63 39 -182 39q-49 0 -76 -3 t-47 -13q-16 -16 -16 -37v-895q0 -16 -27 -37q-18 -14 -43 -26.5t-49 -12.5q-14 0 -15 10v895q-18 59 -57 80q-63 39 -182 39q-49 0 -76 -3t-47 -13q-16 -16 -16 -37v-895q0 -16 -27 -37q-18 -14 -43 -26.5t-49 -12.5q-14 0 -15 10z" />
<glyph unicode="N" d="M61 6v1024q0 23 13 45q25 45 90 87t135 57q66 14 135 14q168 0 236 -68q20 -20 37 -69v-1024q0 -8 -12.5 -21.5t-30 -26t-38 -20.5t-38.5 -8q-14 0 -15 10v895q-23 59 -59 80q-63 39 -182 39q-47 0 -80 -5t-43 -11q-14 -14 -14 -37v-895q0 -8 -12.5 -21.5t-30 -26 t-38 -20.5t-38.5 -8q-14 0 -15 10z" />
<glyph unicode="O" d="M61 133v897q0 23 13 45q25 45 90 87t135 57q66 14 135 14q168 0 236 -68q20 -20 37 -69v-897q0 -14 -7 -29q-20 -51 -94 -100q-68 -43 -139 -60q-66 -14 -135 -14q-133 0 -203 43q-43 29 -68 94zM195 328q18 -59 57 -80q63 -39 182 -39q49 0 76 3t47 13q16 16 16 37v639 q-23 59 -59 80q-63 39 -182 39q-47 0 -80 -5t-43 -11q-14 -14 -14 -37v-639z" />
<glyph unicode="P" d="M61 6v1024q0 23 13 45q25 45 90 87t135 57q66 14 135 14q168 0 236 -68q20 -20 37 -69v-129v-127q0 -16 -7 -31q-23 -53 -94 -100q-68 -43 -139 -60q-66 -14 -135 -14q-57 0 -78 -3t-45 -11q-14 -14 -14 -37v-512q0 -8 -12.5 -21.5t-30 -26t-38 -20.5t-38.5 -8 q-14 0 -15 10zM195 797q55 29 120.5 41t118.5 12q57 0 77.5 3t45.5 11q6 6 11 18.5t5 18.5q-4 25 -12 37q-51 82 -229 82q-47 0 -80 -5t-43 -11q-14 -14 -14 -37v-170z" />
<glyph unicode="Q" d="M61 133v897q0 23 13 45q25 45 90 87t135 57q66 14 135 14q168 0 236 -68q20 -20 37 -69v-897q0 -14 -7 -29q-23 -55 -96 -102q-31 -20 -75 -37t-78 -25v-63q0 -8 -13.5 -20.5t-32 -25t-39 -21.5t-34.5 -9t-15 10v119q-125 0 -192 43q-43 31 -64 94zM195 328 q18 -59 57 -80q63 -39 182 -39q49 0 76 3t47 13q16 16 16 37v639q-23 59 -59 80q-63 39 -182 39q-47 0 -80 -5t-43 -11q-14 -14 -14 -37v-639z" />
<glyph unicode="R" d="M61 6v1024q0 23 13 45q25 45 90 87t135 57q66 14 135 14q168 0 236 -68q20 -20 37 -69v-66v-63v-64q0 -14 -7 -29q-23 -55 -96 -102l-12 -8q70 -25 98 -72q4 -8 8 -18t9 -27v-63v-256v-256q0 -8 -12.5 -21.5t-30 -26t-38 -20.5t-38.5 -8q-14 0 -15 10v256v256 q-23 57 -59 78q-66 39 -182 39q-57 0 -78 -3t-45 -11q-14 -14 -14 -37v-512q0 -8 -12.5 -21.5t-30 -26t-38 -20.5t-38.5 -8q-14 0 -15 10zM195 797q55 29 120.5 41t118.5 12q57 0 77.5 3t45.5 11q6 6 11 18.5t5 18.5q-4 25 -12 37q-51 82 -229 82q-47 0 -80 -5t-43 -11 q-14 -14 -14 -37v-170z" />
<glyph unicode="S" d="M61 133v129q0 25 66 60q37 16 51 16q16 0 17 -10q18 -59 57 -80q63 -39 182 -39q49 0 76 3t47 13q16 16 16 37v256q-23 57 -59 78q-66 39 -182 39q-133 0 -203 43q-43 29 -68 96v127v129q0 23 13 45q25 45 90 87t135 57q66 14 135 14q168 0 236 -68q20 -20 37 -69v-129 q0 -8 -13.5 -20.5t-32 -25t-39 -21.5t-34.5 -9t-15 10q-23 59 -59 80q-63 39 -182 39q-47 0 -80 -5t-43 -11q-14 -14 -14 -37q18 -57 57 -78q66 -39 182 -39q166 0 236 -70q20 -20 37 -69v-512q0 -14 -7 -29q-20 -51 -94 -100q-68 -43 -139 -60q-66 -14 -135 -14 q-133 0 -203 43q-43 29 -68 94z" />
<glyph unicode="T" d="M61 901v129q0 23 13 45q25 45 90 87t135 57q66 14 135 14q168 0 236 -68q20 -20 37 -69v-129q0 -8 -13.5 -20.5t-32 -25t-39 -21.5t-34.5 -9t-15 10q-4 14 -6 25q-29 61 -116 82v-936q0 -8 -12.5 -21.5t-30 -26t-38 -20.5t-38.5 -8q-14 0 -15 10v1014q-41 0 -62.5 -4 t-45.5 -12q-14 -14 -14 -37q0 -8 -13.5 -20.5t-32 -25t-39 -21.5t-34.5 -9t-15 10z" />
<glyph unicode="U" d="M61 133v1024q0 12 12.5 25.5t31 25t39 18.5t36.5 7q14 0 15 -10v-895q18 -59 57 -80q63 -39 182 -39q49 0 76 3t47 13q16 16 16 37v895q0 12 12.5 25.5t31 25t39 18.5t36.5 7q14 0 15 -10v-1024q0 -14 -7 -29q-20 -51 -94 -100q-68 -43 -139 -60q-66 -14 -135 -14 q-133 0 -203 43q-43 29 -68 94z" />
<glyph unicode="V" d="M61 262v895q0 12 12.5 25.5t31 25t39 18.5t36.5 7q14 0 15 -10v-768q0 -49 59 -112.5t172 -125.5q18 10 35.5 23.5t34.5 27.5q78 66 77 121v768q0 12 12.5 25.5t31 25t39 18.5t36.5 7q14 0 15 -10v-895q0 -82 -119 -183q-92 -80 -203 -133q-33 -17 -50 -17q-8 0 -13 3 q-88 33 -181 123q-80 76 -80 141z" />
<glyph unicode="W" horiz-adv-x="1280" d="M61 133v1024q0 8 12.5 21.5t30 26t38 20.5t38.5 8q14 0 15 -10v-895q18 -59 57 -80q63 -39 182 -39q49 0 82 5t43 11q14 14 14 37v895q0 8 12.5 21.5t30 26t38 20.5t38.5 8q14 0 15 -10v-895q18 -59 57 -80q63 -39 182 -39q49 0 82 5t43 11q14 14 14 37v895 q0 8 12.5 21.5t30 26t38 20.5t38.5 8q14 0 15 -10v-1024q0 -25 -13 -45q-25 -45 -90 -87t-135 -57q-66 -14 -135 -14q-98 0 -155.5 20.5t-86.5 51.5q-66 -43 -136.5 -57.5t-133.5 -14.5q-168 0 -236 67q-20 20 -37 70z" />
<glyph unicode="X" d="M61 6v383v129v64q0 23 13 45q25 47 88 86l12 8q-70 25 -98 72q-8 12 -15 45v63v129v127q0 12 12.5 25.5t31 25t39 18.5t36.5 7q14 0 15 -10v-127v-129q18 -57 57 -78q66 -39 182 -39q57 0 77.5 3t45.5 11q6 6 11 18.5t5 18.5v129v127q0 12 12.5 25.5t31 25t39 18.5 t36.5 7q14 0 15 -10v-127v-129v-64q0 -14 -7 -29q-23 -55 -96 -102l-12 -8q70 -25 98 -72q4 -8 8 -18t9 -27v-63v-129v-383q0 -8 -12.5 -21.5t-30 -26t-38 -20.5t-38.5 -8q-14 0 -15 10v383v129q-23 57 -59 78q-66 39 -182 39q-57 0 -78 -3t-45 -11q-14 -14 -14 -37v-129 v-383q0 -8 -12.5 -21.5t-30 -26t-38 -20.5t-38.5 -8q-14 0 -15 10z" />
<glyph unicode="Y" d="M61 774v383q0 12 12.5 25.5t31 25t39 18.5t36.5 7q14 0 15 -10v-256q18 -57 57 -78q66 -39 182 -39q57 0 77.5 3t45.5 11q6 6 11 18.5t5 18.5v256q0 12 12.5 25.5t31 25t39 18.5t36.5 7q14 0 15 -10v-383q0 -16 -7 -31q-23 -53 -96 -102q-37 -23 -78 -38.5t-75 -23.5 v-573q0 -8 -12.5 -21.5t-30 -26t-38 -20.5t-38.5 -8q-14 0 -15 10v631q-125 0 -192 43q-43 31 -64 94z" />
<glyph unicode="Z" d="M61 133l2 10l472 826q-66 51 -203 51q-47 0 -80 -5t-43 -11q-14 -14 -14 -37q0 -8 -13.5 -20.5t-32 -25t-39 -21.5t-34.5 -9t-15 10v129q0 23 13 45q25 45 90 87t135 57q66 14 135 14q168 0 236 -68q20 -20 37 -69l-5 -11l-471 -825q66 -51 203 -51q49 0 76 3t47 13 q16 16 16 37q0 25 66 60q37 16 51 16q16 0 17 -10v-129q0 -14 -7 -29q-20 -51 -94 -100q-68 -43 -139 -60q-66 -14 -135 -14q-133 0 -203 43q-43 29 -68 94z" />
<glyph unicode="[" horiz-adv-x="512" d="M61 133v897q0 12 7 29q20 53 92 100q35 23 70.5 37t70.5 23q66 14 135 14q6 0 9.5 -4t5.5 -6v-127q0 -23 -43 -49q-39 -27 -74 -27q-47 0 -80 -5t-43 -11q-16 -16 -16 -37v-639q2 -25 12 -37q51 -82 229 -82q6 0 9.5 -4t5.5 -6v-127q0 -23 -43 -49q-39 -27 -74 -27 q-168 0 -236 67q-20 20 -37 70z" />
<glyph unicode="\" d="M61 645v129v383q0 12 12.5 25.5t31 25t39 18.5t36.5 7q14 0 15 -10v-383q18 -59 57 -80q63 -39 182 -39q168 0 236 -68q20 -20 37 -69v-129v-383q0 -8 -12.5 -21.5t-30 -26t-38 -20.5t-38.5 -8q-14 0 -15 10v383q-23 59 -59 80q-63 39 -182 39q-133 0 -203 43 q-43 29 -68 94z" />
<glyph unicode="]" horiz-adv-x="512" d="M61 6v127q0 18 43 47q45 29 76 29q47 0 80 5t43 11q14 14 14 37v639q-18 59 -57 80q-63 39 -182 39q-8 0 -12.5 4t-4.5 6v127q0 18 43 47q45 29 76 29q131 0 203 -43q43 -29 68 -94v-897q0 -25 -13 -45q-25 -45 -90 -87t-135 -57q-66 -14 -135 -14q-8 0 -12.5 4t-4.5 6z " />
<glyph unicode="^" horiz-adv-x="512" d="M61 901l2 19q0 82 68 178q27 37 74 84q29 29 65 43q41 12 52 4q37 -37 65 -80q63 -90 64 -172v-10q0 -25 -66 -60q-37 -16 -51 -16q-16 0 -17 10v10q-6 53 -37.5 81t-72.5 28q-10 -35 -10 -43l-2 -8v-2q0 -25 -66 -60q-37 -16 -51 -16q-16 0 -17 10z" />
<glyph unicode="_" d="M61 6q0 18 43 47l17.5 10.5t11.5 6.5q27 12 45 12h512q8 0 11.5 -4t5.5 -6v-129q0 -20 -45 -47l-17.5 -10.5t-11.5 -6.5q-29 -12 -45 -12h-512q-6 0 -9.5 4t-5.5 6v129z" />
<glyph unicode="`" horiz-adv-x="256" d="M61 901v256q0 8 12.5 21.5t30 26t38 20.5t38.5 8q14 0 15 -10v-256q0 -25 -66 -60q-37 -16 -51 -16q-16 0 -17 10z" />
<glyph unicode="a" d="M61 133v129q0 23 13 45q25 45 90 87t135 57q66 14 135 14h139v53q-23 57 -59 78q-66 39 -182 39q-57 0 -78 -3t-45 -11q-14 -14 -14 -37q0 -8 -12.5 -21.5t-30 -26t-38 -20.5t-38.5 -8q-14 0 -15 10v127q0 25 13 47q12 20 35.5 43t54.5 43.5t65.5 35.5t69.5 22 q66 14 135 14q166 0 236 -70q20 -20 37 -69v-256v-256v-127q0 -8 -12.5 -21.5t-30 -26t-38 -20.5t-38.5 -8q-14 0 -15 10v43q-57 -29 -122.5 -41t-118.5 -12q-133 0 -203 43q-43 29 -68 94zM195 328q18 -59 57 -80q63 -39 182 -39q49 0 76 3t47 13q16 16 16 37v117h-241 q-57 0 -78 -3t-45 -11q-14 -14 -14 -37z" />
<glyph unicode="b" d="M61 6v127v512v512q0 12 12.5 25.5t31 25t39 18.5t36.5 7q14 0 15 -10v-426q55 29 120.5 41t118.5 12q166 0 236 -70q20 -20 37 -69v-512q0 -14 -7 -29q-20 -51 -94 -100q-68 -43 -139 -60q-66 -14 -135 -14q-59 0 -103.5 8t-74.5 23l-27 -17q-27 -14 -51 -14 q-14 0 -15 10zM195 328q18 -59 57 -80q63 -39 182 -39q49 0 76 3t47 13q16 16 16 37v256q-23 57 -59 78q-66 39 -182 39q-57 0 -78 -3t-45 -11q-14 -14 -14 -37v-256z" />
<glyph unicode="c" d="M61 133v512q0 25 13 47q12 20 35.5 43t54.5 43.5t65.5 35.5t69.5 22q66 14 135 14q166 0 236 -70q20 -20 37 -69v-127q0 -8 -12.5 -21.5t-30 -26t-38 -20.5t-38.5 -8q-14 0 -15 10q-23 57 -59 78q-66 39 -182 39q-57 0 -78 -3t-45 -11q-14 -14 -14 -37v-256 q18 -59 57 -80q63 -39 182 -39q49 0 76 3t47 13q16 16 16 37q0 25 66 60q37 16 51 16q16 0 17 -10v-129q0 -14 -7 -29q-20 -51 -94 -100q-68 -43 -139 -60q-66 -14 -135 -14q-133 0 -203 43q-43 29 -68 94z" />
<glyph unicode="d" d="M61 133v512q0 25 13 47q12 20 35.5 43t54.5 43.5t65.5 35.5t69.5 22q66 14 135 14q78 0 139 -16v323q0 12 12.5 25.5t31 25t39 18.5t36.5 7q14 0 15 -10v-512v-512v-127q0 -8 -12.5 -21.5t-30 -26t-38 -20.5t-38.5 -8q-14 0 -15 10v43q-57 -29 -122.5 -41t-118.5 -12 q-133 0 -203 43q-43 29 -68 94zM195 328q18 -59 57 -80q63 -39 182 -39q49 0 76 3t47 13q16 16 16 37v256q-23 57 -59 78q-66 39 -182 39q-57 0 -78 -3t-45 -11q-14 -14 -14 -37v-256z" />
<glyph unicode="e" d="M61 133v512q0 25 13 47q12 20 35.5 43t54.5 43.5t65.5 35.5t69.5 22q66 14 135 14q166 0 236 -70q20 -20 37 -69v-127q0 -16 -7 -31q-23 -53 -94 -100q-68 -43 -139 -60q-66 -14 -135 -14h-137v-51q18 -59 57 -80q63 -39 182 -39q49 0 76 3t47 13q16 16 16 37q0 25 66 60 q37 16 51 16q16 0 17 -10v-129q0 -14 -7 -29q-20 -51 -94 -100q-68 -43 -139 -60q-66 -14 -135 -14q-133 0 -203 43q-43 29 -68 94zM195 465h239q49 0 76 3t47 13q16 16 16 37q-23 57 -61 78q-66 39 -180 39q-57 0 -78 -3t-45 -11q-14 -14 -14 -37v-119z" />
<glyph unicode="f" horiz-adv-x="638" d="M61 645v129q0 18 43 47l17.5 10.5t11.5 6.5q27 12 45 12h10v180q0 66 103 131q66 43 136.5 57.5t133.5 14.5q8 0 11 -4t6 -6v-127q0 -20 -43 -47q-41 -29 -74 -29q-47 0 -80 -5t-45 -11q-14 -16 -14 -37v-117h112q6 0 9 -4t6 -6v-129q0 -20 -43 -47l-17.5 -10.5 t-11.5 -6.5q-29 -12 -45 -12h-10v-563q0 -8 -11.5 -21.5t-30 -26t-39 -20.5t-38.5 -8q-14 0 -15 10v629h-112q-8 0 -11.5 4t-3.5 6z" />
<glyph unicode="g" d="M61 -123q0 12 12.5 25.5t31 25t39 18.5t36.5 7q14 0 15 -10q18 -57 57 -78q66 -39 182 -39q57 0 77.5 3t45.5 11q6 6 11 18.5t5 18.5v172q-57 -29 -122.5 -41t-118.5 -12q-133 0 -203 43q-43 29 -68 94v512q0 25 13 47q12 20 35.5 43t54.5 43.5t65.5 35.5t69.5 22 q66 14 135 14q59 0 100 -7t80 -24l25 15q37 16 51 16q16 0 17 -10v-129v-512v-383q0 -16 -7 -31q-20 -51 -94 -98q-72 -47 -139 -62q-66 -14 -135 -14q-133 0 -203 43q-43 29 -68 96v127zM195 328q18 -59 57 -80q63 -39 182 -39q49 0 76 3t47 13q16 16 16 37v256 q-23 57 -59 78q-66 39 -182 39q-57 0 -78 -3t-45 -11q-14 -14 -14 -37v-256z" />
<glyph unicode="h" d="M61 6v1151q0 12 12.5 25.5t31 25t39 18.5t36.5 7q14 0 15 -10v-426q55 29 120.5 41t118.5 12q166 0 236 -70q20 -20 37 -69v-639q0 -8 -12.5 -21.5t-30 -26t-38 -20.5t-38.5 -8q-14 0 -15 10v512q-23 57 -59 78q-66 39 -182 39q-57 0 -78 -3t-45 -11q-14 -14 -14 -37 v-512q0 -8 -12.5 -21.5t-30 -26t-38 -20.5t-38.5 -8q-14 0 -15 10z" />
<glyph unicode="i" horiz-adv-x="256" d="M61 6v768q0 8 12.5 20.5t31 24.5t39 21.5t36.5 9.5q14 0 15 -10v-768q0 -16 -27 -37q-18 -14 -43 -26.5t-49 -12.5q-14 0 -15 10zM61 1030q0 10 25 33q55 43 92 43q16 0 17 -10q0 -14 -25 -33q-47 -43 -92 -43q-16 0 -17 10z" />
<glyph unicode="j" d="M61 -123q0 12 12.5 25.5t31 25t39 18.5t36.5 7q14 0 15 -10q18 -57 57 -78q66 -39 182 -39q57 0 77.5 3t45.5 11q6 6 11 18.5t5 18.5v897q0 25 66 60q37 16 51 16q16 0 17 -10v-1024q0 -16 -7 -31q-20 -51 -94 -98q-72 -47 -139 -62q-66 -14 -135 -14q-133 0 -203 43 q-43 29 -68 96v127zM573 1030q0 10 23 33q27 20 49.5 31.5t44.5 11.5q14 0 15 -10q0 -16 -23 -33q-53 -43 -94 -43q-14 0 -15 10z" />
<glyph unicode="k" d="M61 6v1151q0 12 12.5 25.5t31 25t39 18.5t36.5 7q14 0 15 -10v-426q55 29 120.5 41t118.5 12q57 0 77.5 3t45.5 11q6 6 11 18.5t5 18.5v129q0 25 66 60q37 16 51 16q16 0 17 -10v-129v-64q0 -14 -7 -29q-23 -55 -96 -102l-12 -8q70 -25 98 -72q4 -8 8 -18t9 -27v-575 q0 -8 -12.5 -21.5t-30 -26t-38 -20.5t-38.5 -8q-14 0 -15 10v512q-23 57 -59 78q-66 39 -182 39q-57 0 -78 -3t-45 -11q-14 -14 -14 -37v-512q0 -8 -12.5 -21.5t-30 -26t-38 -20.5t-38.5 -8q-14 0 -15 10z" />
<glyph unicode="l" horiz-adv-x="256" d="M61 6v1151q0 8 12.5 21.5t30 26t38 20.5t38.5 8q14 0 15 -10v-1151q0 -16 -27 -37q-18 -14 -43 -26.5t-49 -12.5q-14 0 -15 10z" />
<glyph unicode="m" horiz-adv-x="1280" d="M61 6v383v256v129q0 8 12.5 20.5t31 24.5t39 21.5t36.5 9.5q14 0 15 -10v-43q43 23 102 38t137 15q98 0 155.5 -20.5t86.5 -51.5q68 43 136.5 57.5t133.5 14.5q133 0 205 -43q43 -29 68 -96v-639q0 -16 -27 -37q-18 -14 -43 -26.5t-49 -12.5q-14 0 -15 10v512 q-18 57 -57 78q-66 39 -182 39q-57 0 -77.5 -3t-45.5 -11q-6 -6 -11 -18.5t-5 -18.5v-512q0 -16 -27 -37q-18 -14 -43 -26.5t-49 -12.5q-14 0 -15 10v512q-18 57 -57 78q-66 39 -182 39q-57 0 -77.5 -3t-45.5 -11q-6 -6 -11 -18.5t-5 -18.5v-129v-383q0 -16 -27 -37 q-18 -14 -43 -26.5t-49 -12.5q-14 0 -15 10z" />
<glyph unicode="n" d="M61 6v383v256v129q0 25 66 60q37 16 51 16q16 0 17 -10v-43q55 29 120.5 41t118.5 12q166 0 236 -70q20 -20 37 -69v-639q0 -8 -12.5 -21.5t-30 -26t-38 -20.5t-38.5 -8q-14 0 -15 10v512q-23 57 -59 78q-66 39 -182 39q-57 0 -78 -3t-45 -11q-14 -14 -14 -37v-129v-383 q0 -8 -12.5 -21.5t-30 -26t-38 -20.5t-38.5 -8q-14 0 -15 10z" />
<glyph unicode="o" d="M61 133v512q0 25 13 47q12 20 35.5 43t54.5 43.5t65.5 35.5t69.5 22q66 14 135 14q166 0 236 -70q20 -20 37 -69v-512q0 -14 -7 -29q-20 -51 -94 -100q-68 -43 -139 -60q-66 -14 -135 -14q-133 0 -203 43q-43 29 -68 94zM195 328q18 -59 57 -80q63 -39 182 -39q49 0 76 3 t47 13q16 16 16 37v256q-23 57 -59 78q-66 39 -182 39q-57 0 -78 -3t-45 -11q-14 -14 -14 -37v-256z" />
<glyph unicode="p" d="M61 133v512v129q0 25 66 60q37 16 51 16q16 0 17 -10v-43q55 29 120.5 41t118.5 12q166 0 236 -70q20 -20 37 -69v-512q0 -14 -7 -29q-20 -51 -94 -100q-68 -43 -139 -60q-66 -14 -135 -14q-78 0 -137 16v-325q0 -8 -13.5 -20.5t-32 -25t-39 -21.5t-34.5 -9t-15 10v512z M195 328q18 -59 57 -80q63 -39 182 -39q49 0 76 3t47 13q16 16 16 37v256q-23 57 -59 78q-66 39 -182 39q-57 0 -78 -3t-45 -11q-14 -14 -14 -37v-256z" />
<glyph unicode="q" d="M61 133v512q0 25 13 47q12 20 35.5 43t54.5 43.5t65.5 35.5t69.5 22q66 14 135 14q59 0 100 -7t80 -24l25 15q37 16 51 16q16 0 17 -10v-129v-512v-512q0 -8 -13.5 -20.5t-32 -25t-39 -21.5t-34.5 -9t-15 10v428q-57 -29 -122.5 -41t-118.5 -12q-133 0 -203 43 q-43 29 -68 94zM195 328q18 -59 57 -80q63 -39 182 -39q49 0 76 3t47 13q16 16 16 37v256q-23 57 -59 78q-66 39 -182 39q-57 0 -78 -3t-45 -11q-14 -14 -14 -37v-256z" />
<glyph unicode="r" d="M61 6v768q0 25 66 60q37 16 51 16q16 0 17 -10v-43q55 29 120.5 41t118.5 12q166 0 236 -70q20 -20 37 -69v-127q0 -8 -12.5 -21.5t-30 -26t-38 -20.5t-38.5 -8q-14 0 -15 10q-23 57 -59 78q-66 39 -182 39q-57 0 -78 -3t-45 -11q-14 -14 -14 -37v-512q0 -8 -12.5 -21.5 t-30 -26t-38 -20.5t-38.5 -8q-14 0 -15 10z" />
<glyph unicode="s" d="M61 133v129q0 25 66 60q37 16 51 16q16 0 17 -10q18 -59 57 -80q63 -39 182 -39q49 0 76 3t47 13q16 16 16 37q-23 57 -61 78q-66 39 -180 39q-133 0 -203 43q-43 29 -68 96v127q0 25 13 47q12 20 35.5 43t54.5 43.5t65.5 35.5t69.5 22q66 14 135 14q166 0 236 -70 q20 -20 37 -69v-127q0 -8 -12.5 -21.5t-30 -26t-38 -20.5t-38.5 -8q-14 0 -15 10q-23 57 -59 78q-66 39 -182 39q-57 0 -78 -3t-45 -11q-14 -14 -14 -37q23 -59 59 -80q63 -39 180 -39q168 0 236 -68q20 -20 37 -69v-129q0 -14 -7 -29q-20 -51 -94 -100q-68 -43 -139 -60 q-66 -14 -135 -14q-133 0 -203 43q-43 29 -68 94z" />
<glyph unicode="t" d="M61 133v897q0 25 66 60q37 16 51 16q16 0 17 -10v-299q55 29 120.5 41t118.5 12q8 0 11.5 -4t5.5 -6v-129q0 -20 -45 -47l-17.5 -10.5t-11.5 -6.5q-29 -12 -45 -12q-57 0 -78 -3t-45 -11q-14 -14 -14 -37v-256q18 -59 57 -80q63 -39 182 -39q49 0 76 3t47 13q16 16 16 37 q0 25 66 60q37 16 51 16q16 0 17 -10v-129q0 -14 -7 -29q-20 -51 -94 -100q-68 -43 -139 -60q-66 -14 -135 -14q-133 0 -203 43q-43 29 -68 94z" />
<glyph unicode="u" d="M61 133v641q0 25 66 60q37 16 51 16q16 0 17 -10v-512q18 -59 57 -80q63 -39 182 -39q49 0 76 3t47 13q16 16 16 37v127v385q0 25 66 60q37 16 51 16q16 0 17 -10v-385v-256v-127q0 -8 -12.5 -21.5t-30 -26t-38 -20.5t-38.5 -8q-14 0 -15 10v43q-57 -29 -122.5 -41 t-118.5 -12q-133 0 -203 43q-43 29 -68 94z" />
<glyph unicode="v" d="M61 262v512q0 25 66 60q37 16 51 16q16 0 17 -10v-385q0 -49 59 -112.5t172 -125.5q18 10 35.5 23.5t34.5 27.5q78 66 77 121v385q0 25 66 60q37 16 51 16q16 0 17 -10v-512q0 -82 -119 -183q-92 -80 -203 -133q-33 -17 -50 -17q-8 0 -13 3q-88 33 -181 123 q-80 76 -80 141z" />
<glyph unicode="w" horiz-adv-x="1280" d="M61 133v641q0 8 12.5 20.5t31 24.5t39 21.5t36.5 9.5q14 0 15 -10v-512q18 -59 57 -80q63 -39 182 -39q49 0 82 5t43 11q14 14 14 37v512q0 8 12.5 20.5t31 24.5t39 21.5t36.5 9.5q14 0 15 -10v-512q18 -59 57 -80q63 -39 182 -39q49 0 82 5t43 11q14 14 14 37v512 q0 8 12.5 20.5t31 24.5t39 21.5t36.5 9.5q14 0 15 -10v-641q0 -25 -13 -45q-25 -45 -90 -87t-135 -57q-66 -14 -135 -14q-98 0 -155.5 20.5t-86.5 51.5q-66 -43 -136.5 -57.5t-133.5 -14.5q-168 0 -236 67q-20 20 -37 70z" />
<glyph unicode="x" d="M61 6v256q0 23 13 45q25 47 88 86l12 8q-70 20 -98 72q-6 12 -15 45v256q0 25 66 60q37 16 51 16q16 0 17 -10v-193q18 -59 57 -80q63 -39 182 -39q47 0 74 4.5t49 12.5q6 6 11 18t5 19v192q0 25 66 60q37 16 51 16q16 0 17 -10v-256q0 -16 -7 -31q-23 -53 -96 -102 l-12 -7q70 -25 98 -71q4 -8 8 -18.5t9 -26.5v-256q0 -8 -12.5 -21.5t-30 -26t-38 -20.5t-38.5 -8q-14 0 -15 10v191q-23 59 -59 79q-63 39 -182 39q-57 0 -78 -3t-45 -11q-14 -16 -14 -39v-190q0 -8 -12.5 -21.5t-30 -26t-38 -20.5t-38.5 -8q-14 0 -15 10z" />
<glyph unicode="y" d="M61 -123q0 12 12.5 25.5t31 25t39 18.5t36.5 7q14 0 15 -10q18 -57 57 -78q66 -39 182 -39q57 0 77.5 3t45.5 11q6 6 11 18.5t5 18.5v172q-57 -29 -122.5 -41t-118.5 -12q-133 0 -203 43q-43 29 -68 94v641q0 25 66 60q37 16 51 16q16 0 17 -10v-512q18 -59 57 -80 q63 -39 182 -39q49 0 76 3t47 13q16 16 16 37v512q0 25 66 60q37 16 51 16q16 0 17 -10v-1024q0 -16 -7 -31q-20 -51 -94 -98q-72 -47 -139 -62q-66 -14 -135 -14q-133 0 -203 43q-43 29 -68 96v127z" />
<glyph unicode="z" d="M61 133q2 6 4.5 12.5t10.5 12.5l438 440q-61 37 -182 37q-57 0 -78 -3t-45 -11q-14 -14 -14 -37q0 -8 -12.5 -21.5t-30 -26t-38 -20.5t-38.5 -8q-14 0 -15 10v127q0 25 13 47q12 20 35.5 43t54.5 43.5t65.5 35.5t69.5 22q66 14 135 14q166 0 236 -70q20 -20 37 -69l-5 -9 q-8 -12 -12 -16l-438 -438q63 -39 182 -39q49 0 76 3t47 13q16 16 16 37q0 25 66 60q37 16 51 16q16 0 17 -10v-129q0 -14 -7 -29q-20 -51 -94 -100q-68 -43 -139 -60q-66 -14 -135 -14q-133 0 -203 43q-43 29 -68 94z" />
<glyph unicode="{" horiz-adv-x="638" d="M61 645v129q0 18 43 47l17.5 10.5t11.5 6.5q27 12 45 12h10v51q0 162 148 258q70 45 151 64q47 10 74 10q8 0 11 -4t6 -6v-127q0 -20 -43 -47q-41 -29 -74 -29t-47.5 -2t-24.5 -8q-12 -8 -23.5 -26.5t-21.5 -42t-16 -50.5t-6 -51v-385q0 -152 118 -213q39 -20 121 -33 q8 0 11 -4t6 -6v-127q0 -20 -43 -47q-41 -29 -74 -29q-133 0 -203 80q-70 78 -70 186v373h-112q-8 0 -11.5 4t-3.5 6z" />
<glyph unicode="|" horiz-adv-x="256" d="M61 -123v1409q0 8 12.5 20.5t31 24.5t39 21.5t36.5 9.5q14 0 15 -10v-1409q0 -25 -66 -60q-37 -16 -51 -16q-16 0 -17 10z" />
<glyph unicode="}" horiz-adv-x="638" d="M61 6v127q0 18 41 47q45 29 76 29q16 0 42 6t36 12q20 16 31 35q31 51 30 127v385q0 147 -120 213q-39 20 -121 33q-8 0 -11.5 4t-3.5 6v127q0 18 41 47q45 29 76 29q55 0 104.5 -16.5t86.5 -50t58.5 -83t21.5 -116.5v-117h112q8 0 11 -4t6 -6v-129q0 -20 -46 -47 q-47 -29 -71 -29h-12v-307q0 -61 -25 -119q-35 -86 -135 -152q-96 -61 -213 -61q-8 0 -11.5 4t-3.5 6z" />
<glyph unicode="~" d="M61 645v129q0 23 13 45q25 45 90 87t135 57q66 14 135 14q8 0 11.5 -4t5.5 -6v-246q43 0 60 2t46 14q16 16 16 37q0 25 66 60q37 16 51 16q16 0 17 -10v-129q0 -14 -7 -29q-20 -51 -94 -100q-68 -43 -139 -60q-66 -14 -135 -14q-8 0 -11.5 4t-3.5 6v246q-41 0 -62.5 -4 t-45.5 -12q-14 -14 -14 -37q0 -8 -13.5 -20.5t-32 -25t-39 -21.5t-34.5 -9t-15 10z" />
<glyph unicode="&#xa0;" />
<glyph unicode="&#xad;" d="M61 645v129q0 18 43 47l17.5 10.5t11.5 6.5q27 12 45 12h512q8 0 11.5 -4t5.5 -6v-129q0 -20 -45 -47l-17.5 -10.5t-11.5 -6.5q-29 -12 -45 -12h-512q-8 0 -11.5 4t-3.5 6z" />
<glyph unicode="&#xc0;" d="M61 6v1024q0 23 13 45q25 45 90 87t135 57q66 14 135 14q168 0 236 -68q20 -20 37 -69v-1024q0 -8 -12.5 -21.5t-30 -26t-38 -20.5t-38.5 -8q-14 0 -15 10v512q-23 57 -59 78q-66 39 -182 39q-57 0 -78 -3t-45 -11q-14 -14 -14 -37v-512q0 -8 -12.5 -21.5t-30 -26 t-38 -20.5t-38.5 -8q-14 0 -15 10zM188 1413v129q0 18 43 47q47 29 74 29q68 0 119 -21.5t85 -57.5t51.5 -84t17.5 -103q0 -16 -27 -37q-18 -14 -43 -26.5t-49 -12.5q-14 0 -15 10q-18 57 -57 78q-66 39 -182 39q-8 0 -12.5 4t-4.5 6zM195 797q55 29 120.5 41t118.5 12 q78 0 139 -16v67q-23 59 -59 80q-63 39 -182 39q-47 0 -80 -5t-43 -11q-14 -14 -14 -37v-170z" />
<glyph unicode="&#xc1;" d="M61 6v1024q0 23 13 45q25 45 90 87t135 57q66 14 135 14q168 0 236 -68q20 -20 37 -69v-1024q0 -8 -12.5 -21.5t-30 -26t-38 -20.5t-38.5 -8q-14 0 -15 10v512q-23 57 -59 78q-66 39 -182 39q-57 0 -78 -3t-45 -11q-14 -14 -14 -37v-512q0 -8 -12.5 -21.5t-30 -26 t-38 -20.5t-38.5 -8q-14 0 -15 10zM188 1286q0 61 25 117q41 90 131 147q100 68 217 68q8 0 11 -4t6 -6v-129q0 -20 -43 -47l-17.5 -10.5t-11.5 -6.5q-29 -12 -45 -12q-57 0 -78 -3t-45 -11q-6 -6 -11 -18.5t-5 -18.5q0 -16 -27 -37q-18 -14 -43 -26.5t-49 -12.5 q-15 0 -15 10zM195 797q55 29 120.5 41t118.5 12q78 0 139 -16v67q-23 59 -59 80q-63 39 -182 39q-47 0 -80 -5t-43 -11q-14 -14 -14 -37v-170z" />
<glyph unicode="&#xc2;" d="M61 6v1024q0 23 13 45q25 45 90 87t135 57q66 14 135 14q168 0 236 -68q20 -20 37 -69v-1024q0 -8 -12.5 -21.5t-30 -26t-38 -20.5t-38.5 -8q-14 0 -15 10v512q-23 57 -59 78q-66 39 -182 39q-57 0 -78 -3t-45 -11q-14 -14 -14 -37v-512q0 -8 -12.5 -21.5t-30 -26 t-38 -20.5t-38.5 -8q-14 0 -15 10zM188 1286l2 19q0 80 68 176q27 39 74 86q10 8 30.5 21.5t34.5 19.5q39 14 49 6q55 -55 93.5 -124t38.5 -130v-8q0 -16 -27 -37q-18 -14 -43 -26.5t-49 -12.5q-14 0 -15 10v10q-2 37 -24 66q-31 41 -86 41q-10 -16 -12 -43v-8 q0 -16 -27 -37q-18 -14 -43 -26.5t-49 -12.5q-14 0 -15 10zM195 797q55 29 120.5 41t118.5 12q78 0 139 -16v67q-23 59 -59 80q-63 39 -182 39q-47 0 -80 -5t-43 -11q-14 -14 -14 -37v-170z" />
<glyph unicode="&#xc3;" d="M61 6v1024q0 23 13 45q25 45 90 87t135 57q66 14 135 14q168 0 236 -68q20 -20 37 -69v-1024q0 -8 -12.5 -21.5t-30 -26t-38 -20.5t-38.5 -8q-14 0 -15 10v512q-23 57 -59 78q-66 39 -182 39q-57 0 -78 -3t-45 -11q-14 -14 -14 -37v-512q0 -8 -12.5 -21.5t-30 -26 t-38 -20.5t-38.5 -8q-14 0 -15 10zM61 1286v127q0 25 13 47q12 20 35.5 43t54.5 43.5t65.5 35.5t69.5 22q66 14 135 14q8 0 11.5 -4t5.5 -6v-119q43 0 60 2t46 14q16 16 16 37q0 25 66 60q37 16 51 16q16 0 17 -10v-129q0 -14 -7 -29q-20 -51 -94 -100q-68 -43 -139 -60 q-66 -14 -135 -14q-8 0 -11.5 4t-3.5 6v117q-25 0 -40 -1t-25 -2t-20.5 -4t-22.5 -7q-14 -14 -14 -37q0 -8 -12.5 -21.5t-30 -26t-38 -20.5t-38.5 -8q-14 0 -15 10zM195 797q55 29 120.5 41t118.5 12q78 0 139 -16v67q-23 59 -59 80q-63 39 -182 39q-47 0 -80 -5t-43 -11 q-14 -14 -14 -37v-170z" />
<glyph unicode="&#xc4;" d="M61 6v1024q0 23 13 45q25 45 90 87t135 57q66 14 135 14q168 0 236 -68q20 -20 37 -69v-1024q0 -8 -12.5 -21.5t-30 -26t-38 -20.5t-38.5 -8q-14 0 -15 10v512q-23 57 -59 78q-66 39 -182 39q-57 0 -78 -3t-45 -11q-14 -14 -14 -37v-512q0 -8 -12.5 -21.5t-30 -26 t-38 -20.5t-38.5 -8q-14 0 -15 10zM188 1286q0 10 25 33q55 43 92 43q16 0 17 -10q0 -14 -25 -33q-47 -43 -92 -43q-16 0 -17 10zM195 797q55 29 120.5 41t118.5 12q78 0 139 -16v67q-23 59 -59 80q-63 39 -182 39q-47 0 -80 -5t-43 -11q-14 -14 -14 -37v-170zM444 1286 q0 10 25 33q55 43 92 43q16 0 17 -10q0 -14 -25 -33q-47 -43 -92 -43q-16 0 -17 10z" />
<glyph unicode="&#xc5;" d="M61 6v1024q0 23 13 45q25 47 88 86l59 33q-20 27 -31 72q0 10 -2 20v127q0 39 21.5 80t79.5 78q31 20 61 31q49 16 84 16q88 0 125 -70q8 -20 19 -69v-127q0 -31 -12.5 -61.5t-45.5 -63.5q117 -16 162 -74q16 -18 25 -57v-1024q0 -8 -12.5 -21.5t-30 -26t-38 -20.5 t-38.5 -8q-14 0 -15 10v512q-23 57 -59 78q-66 39 -182 39q-57 0 -78 -3t-45 -11q-14 -14 -14 -37v-512q0 -8 -12.5 -21.5t-30 -26t-38 -20.5t-38.5 -8q-14 0 -15 10zM195 797q55 29 120.5 41t118.5 12q78 0 139 -16v67q-23 59 -59 80q-63 39 -182 39q-47 0 -80 -5t-43 -11 q-14 -14 -14 -37v-170zM322 1415q0 -39 20 -72q31 -47 90 -47q12 25 12 54q0 39 -20 71q-31 47 -90 47q-12 -35 -12 -53z" />
<glyph unicode="&#xc6;" horiz-adv-x="1280" d="M61 6v1024q0 12 7 29q20 53 92 100q68 43 139 60q66 14 135 14q98 0 155.5 -20.5t86.5 -51.5q68 43 136.5 57.5t133.5 14.5q133 0 205 -43q43 -29 68 -94v-129q0 -25 -66 -60q-37 -16 -51 -16q-16 0 -17 10q-18 59 -57 80q-63 39 -182 39q-49 0 -76 -3t-47 -13 q-16 -16 -16 -37v-170q43 23 102 38t137 15q8 0 11.5 -4t5.5 -6v-129q0 -20 -43 -47l-17.5 -10.5t-11.5 -6.5q-29 -12 -45 -12q-57 0 -77.5 -3t-45.5 -11q-6 -6 -11 -18.5t-5 -18.5v-256q18 -59 57 -80q63 -39 182 -39q49 0 82 5t43 11q14 14 14 37q0 8 12.5 20.5t31 24.5 t39 21.5t36.5 9.5q14 0 15 -10v-129q0 -25 -13 -45q-25 -45 -90 -87t-135 -57q-66 -14 -135 -14q-168 0 -236 67q-20 20 -37 70v385q-18 57 -57 78q-66 39 -182 39q-57 0 -77.5 -3t-45.5 -11q-6 -6 -11 -18.5t-5 -18.5v-512q0 -16 -27 -37q-18 -14 -43 -26.5t-49 -12.5 q-14 0 -15 10zM195 797q43 23 102 38t137 15q80 0 139 -16v67q-18 59 -57 80q-63 39 -182 39q-49 0 -76 -3t-47 -13q-16 -16 -16 -37v-170z" />
<glyph unicode="&#xc7;" d="M61 133v897q0 23 13 45q25 45 90 87t135 57q66 14 135 14q168 0 236 -68q20 -20 37 -69v-129q0 -8 -13.5 -20.5t-32 -25t-39 -21.5t-34.5 -9t-15 10q-23 59 -59 80q-63 39 -182 39q-47 0 -80 -5t-43 -11q-14 -14 -14 -37v-639q18 -59 57 -80q63 -39 182 -39q49 0 76 3 t47 13q16 16 16 37q0 25 66 60q37 16 51 16q16 0 17 -10v-129q0 -14 -7 -29q-23 -55 -96 -102q-39 -27 -78 -41.5t-80 -20.5q-10 -80 -38.5 -135t-83.5 -90q-20 -12 -55.5 -26.5t-63.5 -14.5q-8 0 -12.5 4t-4.5 6v127q0 18 43 47q47 29 74 29q10 35 10 43q-123 0 -190 43 q-43 31 -64 94z" />
<glyph unicode="&#xc8;" d="M61 133v897q0 23 13 45q25 45 90 87t135 57q66 14 135 14q168 0 236 -68q20 -20 37 -69v-129q0 -8 -13.5 -20.5t-32 -25t-39 -21.5t-34.5 -9t-15 10q-23 59 -59 80q-63 39 -182 39q-47 0 -80 -5t-43 -11q-14 -14 -14 -37v-170q55 29 120.5 41t118.5 12q8 0 11.5 -4 t5.5 -6v-129q0 -20 -45 -47l-17.5 -10.5t-11.5 -6.5q-29 -12 -45 -12q-57 0 -78 -3t-45 -11q-14 -14 -14 -37v-256q18 -59 57 -80q63 -39 182 -39q49 0 76 3t47 13q16 16 16 37q0 25 66 60q37 16 51 16q16 0 17 -10v-129q0 -14 -7 -29q-20 -51 -94 -100q-68 -43 -139 -60 q-66 -14 -135 -14q-133 0 -203 43q-43 29 -68 94zM188 1413v129q0 18 43 47q47 29 74 29q68 0 119 -21.5t85 -57.5t51.5 -84t17.5 -103q0 -16 -27 -37q-18 -14 -43 -26.5t-49 -12.5q-14 0 -15 10q-18 57 -57 78q-66 39 -182 39q-8 0 -12.5 4t-4.5 6z" />
<glyph unicode="&#xc9;" d="M61 133v897q0 23 13 45q25 45 90 87t135 57q66 14 135 14q168 0 236 -68q20 -20 37 -69v-129q0 -8 -13.5 -20.5t-32 -25t-39 -21.5t-34.5 -9t-15 10q-23 59 -59 80q-63 39 -182 39q-47 0 -80 -5t-43 -11q-14 -14 -14 -37v-170q55 29 120.5 41t118.5 12q8 0 11.5 -4 t5.5 -6v-129q0 -20 -45 -47l-17.5 -10.5t-11.5 -6.5q-29 -12 -45 -12q-57 0 -78 -3t-45 -11q-14 -14 -14 -37v-256q18 -59 57 -80q63 -39 182 -39q49 0 76 3t47 13q16 16 16 37q0 25 66 60q37 16 51 16q16 0 17 -10v-129q0 -14 -7 -29q-20 -51 -94 -100q-68 -43 -139 -60 q-66 -14 -135 -14q-133 0 -203 43q-43 29 -68 94zM188 1286q0 61 25 117q41 90 131 147q100 68 217 68q8 0 11 -4t6 -6v-129q0 -20 -43 -47l-17.5 -10.5t-11.5 -6.5q-29 -12 -45 -12q-57 0 -78 -3t-45 -11q-6 -6 -11 -18.5t-5 -18.5q0 -16 -27 -37q-18 -14 -43 -26.5 t-49 -12.5q-15 0 -15 10z" />
<glyph unicode="&#xca;" d="M61 133v897q0 23 13 45q25 45 90 87t135 57q66 14 135 14q168 0 236 -68q20 -20 37 -69v-129q0 -8 -13.5 -20.5t-32 -25t-39 -21.5t-34.5 -9t-15 10q-23 59 -59 80q-63 39 -182 39q-47 0 -80 -5t-43 -11q-14 -14 -14 -37v-170q55 29 120.5 41t118.5 12q8 0 11.5 -4 t5.5 -6v-129q0 -20 -45 -47l-17.5 -10.5t-11.5 -6.5q-29 -12 -45 -12q-57 0 -78 -3t-45 -11q-14 -14 -14 -37v-256q18 -59 57 -80q63 -39 182 -39q49 0 76 3t47 13q16 16 16 37q0 25 66 60q37 16 51 16q16 0 17 -10v-129q0 -14 -7 -29q-20 -51 -94 -100q-68 -43 -139 -60 q-66 -14 -135 -14q-133 0 -203 43q-43 29 -68 94zM188 1286l2 19q0 80 68 176q27 39 74 86q10 8 30.5 21.5t34.5 19.5q39 14 49 6q55 -55 93.5 -124t38.5 -130v-8q0 -16 -27 -37q-18 -14 -43 -26.5t-49 -12.5q-14 0 -15 10v10q-2 37 -24 66q-31 41 -86 41q-10 -16 -12 -43 v-8q0 -16 -27 -37q-18 -14 -43 -26.5t-49 -12.5q-14 0 -15 10z" />
<glyph unicode="&#xcb;" d="M61 133v897q0 23 13 45q25 45 90 87t135 57q66 14 135 14q168 0 236 -68q20 -20 37 -69v-129q0 -8 -13.5 -20.5t-32 -25t-39 -21.5t-34.5 -9t-15 10q-23 59 -59 80q-63 39 -182 39q-47 0 -80 -5t-43 -11q-14 -14 -14 -37v-170q55 29 120.5 41t118.5 12q8 0 11.5 -4 t5.5 -6v-129q0 -20 -45 -47l-17.5 -10.5t-11.5 -6.5q-29 -12 -45 -12q-57 0 -78 -3t-45 -11q-14 -14 -14 -37v-256q18 -59 57 -80q63 -39 182 -39q49 0 76 3t47 13q16 16 16 37q0 25 66 60q37 16 51 16q16 0 17 -10v-129q0 -14 -7 -29q-20 -51 -94 -100q-68 -43 -139 -60 q-66 -14 -135 -14q-133 0 -203 43q-43 29 -68 94zM188 1286q0 10 25 33q55 43 92 43q16 0 17 -10q0 -14 -25 -33q-47 -43 -92 -43q-16 0 -17 10zM444 1286q0 10 25 33q55 43 92 43q16 0 17 -10q0 -14 -25 -33q-47 -43 -92 -43q-16 0 -17 10z" />
<glyph unicode="&#xcc;" d="M61 133v129q0 25 66 60q37 16 51 16q16 0 17 -10q8 -37 28 -58q33 -33 94 -49v799q-41 0 -62.5 -4t-45.5 -12q-14 -14 -14 -37q0 -8 -13.5 -20.5t-32 -25t-39 -21.5t-34.5 -9t-15 10v129q0 23 13 45q25 45 90 87t135 57q66 14 135 14q168 0 236 -68q20 -20 37 -69v-129 q0 -8 -13.5 -20.5t-32 -25t-39 -21.5t-34.5 -9t-15 10q-4 14 -6 25q-29 61 -116 82v-799q43 0 60 2t46 14q16 16 16 37q0 25 66 60q37 16 51 16q16 0 17 -10v-129q0 -14 -7 -29q-20 -51 -94 -100q-68 -43 -139 -60q-66 -14 -135 -14q-133 0 -203 43q-43 29 -68 94zM188 1413 v129q0 18 43 47q47 29 74 29q68 0 119 -21.5t85 -57.5t51.5 -84t17.5 -103q0 -16 -27 -37q-18 -14 -43 -26.5t-49 -12.5q-14 0 -15 10q-18 57 -57 78q-66 39 -182 39q-8 0 -12.5 4t-4.5 6z" />
<glyph unicode="&#xcd;" d="M61 133v129q0 25 66 60q37 16 51 16q16 0 17 -10q8 -37 28 -58q33 -33 94 -49v799q-41 0 -62.5 -4t-45.5 -12q-14 -14 -14 -37q0 -8 -13.5 -20.5t-32 -25t-39 -21.5t-34.5 -9t-15 10v129q0 23 13 45q25 45 90 87t135 57q66 14 135 14q168 0 236 -68q20 -20 37 -69v-129 q0 -8 -13.5 -20.5t-32 -25t-39 -21.5t-34.5 -9t-15 10q-4 14 -6 25q-29 61 -116 82v-799q43 0 60 2t46 14q16 16 16 37q0 25 66 60q37 16 51 16q16 0 17 -10v-129q0 -14 -7 -29q-20 -51 -94 -100q-68 -43 -139 -60q-66 -14 -135 -14q-133 0 -203 43q-43 29 -68 94zM188 1286 q0 61 25 117q41 90 131 147q100 68 217 68q8 0 11 -4t6 -6v-129q0 -20 -43 -47l-17.5 -10.5t-11.5 -6.5q-29 -12 -45 -12q-57 0 -78 -3t-45 -11q-6 -6 -11 -18.5t-5 -18.5q0 -16 -27 -37q-18 -14 -43 -26.5t-49 -12.5q-15 0 -15 10z" />
<glyph unicode="&#xce;" d="M61 133v129q0 25 66 60q37 16 51 16q16 0 17 -10q8 -37 28 -58q33 -33 94 -49v799q-41 0 -62.5 -4t-45.5 -12q-14 -14 -14 -37q0 -8 -13.5 -20.5t-32 -25t-39 -21.5t-34.5 -9t-15 10v129q0 23 13 45q25 45 90 87t135 57q66 14 135 14q168 0 236 -68q20 -20 37 -69v-129 q0 -8 -13.5 -20.5t-32 -25t-39 -21.5t-34.5 -9t-15 10q-4 14 -6 25q-29 61 -116 82v-799q43 0 60 2t46 14q16 16 16 37q0 25 66 60q37 16 51 16q16 0 17 -10v-129q0 -14 -7 -29q-20 -51 -94 -100q-68 -43 -139 -60q-66 -14 -135 -14q-133 0 -203 43q-43 29 -68 94zM188 1286 l2 19q0 80 68 176q27 39 74 86q10 8 30.5 21.5t34.5 19.5q39 14 49 6q55 -55 93.5 -124t38.5 -130v-8q0 -16 -27 -37q-18 -14 -43 -26.5t-49 -12.5q-14 0 -15 10v10q-2 37 -24 66q-31 41 -86 41q-10 -16 -12 -43v-8q0 -16 -27 -37q-18 -14 -43 -26.5t-49 -12.5q-14 0 -15 10 z" />
<glyph unicode="&#xcf;" d="M61 133v129q0 25 66 60q37 16 51 16q16 0 17 -10q8 -37 28 -58q33 -33 94 -49v799q-41 0 -62.5 -4t-45.5 -12q-14 -14 -14 -37q0 -8 -13.5 -20.5t-32 -25t-39 -21.5t-34.5 -9t-15 10v129q0 23 13 45q25 45 90 87t135 57q66 14 135 14q168 0 236 -68q20 -20 37 -69v-129 q0 -8 -13.5 -20.5t-32 -25t-39 -21.5t-34.5 -9t-15 10q-4 14 -6 25q-29 61 -116 82v-799q43 0 60 2t46 14q16 16 16 37q0 25 66 60q37 16 51 16q16 0 17 -10v-129q0 -14 -7 -29q-20 -51 -94 -100q-68 -43 -139 -60q-66 -14 -135 -14q-133 0 -203 43q-43 29 -68 94zM188 1286 q0 10 25 33q55 43 92 43q16 0 17 -10q0 -14 -25 -33q-47 -43 -92 -43q-16 0 -17 10zM444 1286q0 10 25 33q55 43 92 43q16 0 17 -10q0 -14 -25 -33q-47 -43 -92 -43q-16 0 -17 10z" />
<glyph unicode="&#xd0;" horiz-adv-x="894" d="M61 645v129q0 18 43 47l17.5 10.5t11.5 6.5q27 12 45 12h10v180q0 12 7 29q20 53 92 100q35 23 70.5 37t70.5 23q66 14 135 14q68 0 118 -21.5t84 -57.5t51.5 -84t17.5 -103v-639q0 -61 -25 -119q-37 -88 -137 -152q-98 -61 -211 -61q-168 0 -236 67q-20 20 -37 70v502 h-112q-6 0 -10.5 4t-4.5 6zM322 328q23 -59 59 -80q63 -39 182 -39q37 0 51.5 3t20.5 7q25 18 45 68.5t20 101.5v385q-12 82 -30 123q-59 123 -209 123q-49 0 -76 -3t-47 -13q-16 -16 -16 -37v-117h112q8 0 11.5 -4t5.5 -6v-129q0 -20 -45 -47q-45 -29 -74 -29h-10v-307z " />
<glyph unicode="&#xd1;" d="M61 6v1024q0 23 13 45q25 45 90 87t135 57q66 14 135 14q168 0 236 -68q20 -20 37 -69v-1024q0 -8 -12.5 -21.5t-30 -26t-38 -20.5t-38.5 -8q-14 0 -15 10v895q-23 59 -59 80q-63 39 -182 39q-47 0 -80 -5t-43 -11q-14 -14 -14 -37v-895q0 -8 -12.5 -21.5t-30 -26 t-38 -20.5t-38.5 -8q-14 0 -15 10zM61 1286v127q0 25 13 47q12 20 35.5 43t54.5 43.5t65.5 35.5t69.5 22q66 14 135 14q8 0 11.5 -4t5.5 -6v-119q43 0 60 2t46 14q16 16 16 37q0 25 66 60q37 16 51 16q16 0 17 -10v-129q0 -14 -7 -29q-20 -51 -94 -100q-68 -43 -139 -60 q-66 -14 -135 -14q-8 0 -11.5 4t-3.5 6v117q-25 0 -40 -1t-25 -2t-20.5 -4t-22.5 -7q-14 -14 -14 -37q0 -8 -12.5 -21.5t-30 -26t-38 -20.5t-38.5 -8q-14 0 -15 10z" />
<glyph unicode="&#xd2;" d="M61 133v897q0 23 13 45q25 45 90 87t135 57q66 14 135 14q168 0 236 -68q20 -20 37 -69v-897q0 -14 -7 -29q-20 -51 -94 -100q-68 -43 -139 -60q-66 -14 -135 -14q-133 0 -203 43q-43 29 -68 94zM188 1413v129q0 18 43 47q47 29 74 29q68 0 119 -21.5t85 -57.5t51.5 -84 t17.5 -103q0 -16 -27 -37q-18 -14 -43 -26.5t-49 -12.5q-14 0 -15 10q-18 57 -57 78q-66 39 -182 39q-8 0 -12.5 4t-4.5 6zM195 328q18 -59 57 -80q63 -39 182 -39q49 0 76 3t47 13q16 16 16 37v639q-23 59 -59 80q-63 39 -182 39q-47 0 -80 -5t-43 -11q-14 -14 -14 -37 v-639z" />
<glyph unicode="&#xd3;" d="M61 133v897q0 23 13 45q25 45 90 87t135 57q66 14 135 14q168 0 236 -68q20 -20 37 -69v-897q0 -14 -7 -29q-20 -51 -94 -100q-68 -43 -139 -60q-66 -14 -135 -14q-133 0 -203 43q-43 29 -68 94zM188 1286q0 61 25 117q41 90 131 147q100 68 217 68q8 0 11 -4t6 -6v-129 q0 -20 -43 -47l-17.5 -10.5t-11.5 -6.5q-29 -12 -45 -12q-57 0 -78 -3t-45 -11q-6 -6 -11 -18.5t-5 -18.5q0 -16 -27 -37q-18 -14 -43 -26.5t-49 -12.5q-15 0 -15 10zM195 328q18 -59 57 -80q63 -39 182 -39q49 0 76 3t47 13q16 16 16 37v639q-23 59 -59 80q-63 39 -182 39 q-47 0 -80 -5t-43 -11q-14 -14 -14 -37v-639z" />
<glyph unicode="&#xd4;" d="M61 133v897q0 23 13 45q25 45 90 87t135 57q66 14 135 14q168 0 236 -68q20 -20 37 -69v-897q0 -14 -7 -29q-20 -51 -94 -100q-68 -43 -139 -60q-66 -14 -135 -14q-133 0 -203 43q-43 29 -68 94zM188 1286l2 19q0 80 68 176q27 39 74 86q10 8 30.5 21.5t34.5 19.5 q39 14 49 6q55 -55 93.5 -124t38.5 -130v-8q0 -16 -27 -37q-18 -14 -43 -26.5t-49 -12.5q-14 0 -15 10v10q-2 37 -24 66q-31 41 -86 41q-10 -16 -12 -43v-8q0 -16 -27 -37q-18 -14 -43 -26.5t-49 -12.5q-14 0 -15 10zM195 328q18 -59 57 -80q63 -39 182 -39q49 0 76 3t47 13 q16 16 16 37v639q-23 59 -59 80q-63 39 -182 39q-47 0 -80 -5t-43 -11q-14 -14 -14 -37v-639z" />
<glyph unicode="&#xd5;" d="M61 133v897q0 23 13 45q25 45 90 87t135 57q66 14 135 14q168 0 236 -68q20 -20 37 -69v-897q0 -14 -7 -29q-20 -51 -94 -100q-68 -43 -139 -60q-66 -14 -135 -14q-133 0 -203 43q-43 29 -68 94zM61 1286v127q0 25 13 47q12 20 35.5 43t54.5 43.5t65.5 35.5t69.5 22 q66 14 135 14q8 0 11.5 -4t5.5 -6v-119q43 0 60 2t46 14q16 16 16 37q0 25 66 60q37 16 51 16q16 0 17 -10v-129q0 -14 -7 -29q-20 -51 -94 -100q-68 -43 -139 -60q-66 -14 -135 -14q-8 0 -11.5 4t-3.5 6v117q-25 0 -40 -1t-25 -2t-20.5 -4t-22.5 -7q-14 -14 -14 -37 q0 -8 -12.5 -21.5t-30 -26t-38 -20.5t-38.5 -8q-14 0 -15 10zM195 328q18 -59 57 -80q63 -39 182 -39q49 0 76 3t47 13q16 16 16 37v639q-23 59 -59 80q-63 39 -182 39q-47 0 -80 -5t-43 -11q-14 -14 -14 -37v-639z" />
<glyph unicode="&#xd6;" d="M61 133v897q0 23 13 45q25 45 90 87t135 57q66 14 135 14q168 0 236 -68q20 -20 37 -69v-897q0 -14 -7 -29q-20 -51 -94 -100q-68 -43 -139 -60q-66 -14 -135 -14q-133 0 -203 43q-43 29 -68 94zM188 1286q0 10 25 33q55 43 92 43q16 0 17 -10q0 -14 -25 -33 q-47 -43 -92 -43q-16 0 -17 10zM195 328q18 -59 57 -80q63 -39 182 -39q49 0 76 3t47 13q16 16 16 37v639q-23 59 -59 80q-63 39 -182 39q-47 0 -80 -5t-43 -11q-14 -14 -14 -37v-639zM444 1286q0 10 25 33q55 43 92 43q16 0 17 -10q0 -14 -25 -33q-47 -43 -92 -43 q-16 0 -17 10z" />
<glyph unicode="&#xd8;" d="M61 133v897q0 23 13 45q25 45 90 87t135 57q66 14 135 14q168 0 236 -68q20 -20 37 -69v-897q0 -14 -7 -29q-20 -51 -94 -100q-68 -43 -139 -60q-66 -14 -135 -14q-133 0 -203 43q-43 29 -68 94zM195 322q6 -37 43 -66q66 -47 196 -47q49 0 76 3t47 13q16 16 16 37v533z M195 434l376 473q-6 37 -43 66q-66 47 -196 47q-47 0 -80 -5t-43 -11q-14 -14 -14 -37v-533z" />
<glyph unicode="&#xd9;" d="M61 133v1024q0 12 12.5 25.5t31 25t39 18.5t36.5 7q14 0 15 -10v-895q18 -59 57 -80q63 -39 182 -39q49 0 76 3t47 13q16 16 16 37v895q0 12 12.5 25.5t31 25t39 18.5t36.5 7q14 0 15 -10v-1024q0 -14 -7 -29q-20 -51 -94 -100q-68 -43 -139 -60q-66 -14 -135 -14 q-133 0 -203 43q-43 29 -68 94zM188 1413v129q0 18 43 47q47 29 74 29q68 0 119 -21.5t85 -57.5t51.5 -84t17.5 -103q0 -16 -27 -37q-18 -14 -43 -26.5t-49 -12.5q-14 0 -15 10q-18 57 -57 78q-66 39 -182 39q-8 0 -12.5 4t-4.5 6z" />
<glyph unicode="&#xda;" d="M61 133v1024q0 12 12.5 25.5t31 25t39 18.5t36.5 7q14 0 15 -10v-895q18 -59 57 -80q63 -39 182 -39q49 0 76 3t47 13q16 16 16 37v895q0 12 12.5 25.5t31 25t39 18.5t36.5 7q14 0 15 -10v-1024q0 -14 -7 -29q-20 -51 -94 -100q-68 -43 -139 -60q-66 -14 -135 -14 q-133 0 -203 43q-43 29 -68 94zM188 1286q0 61 25 117q41 90 131 147q100 68 217 68q8 0 11 -4t6 -6v-129q0 -20 -43 -47l-17.5 -10.5t-11.5 -6.5q-29 -12 -45 -12q-57 0 -78 -3t-45 -11q-6 -6 -11 -18.5t-5 -18.5q0 -16 -27 -37q-18 -14 -43 -26.5t-49 -12.5q-15 0 -15 10z " />
<glyph unicode="&#xdb;" d="M61 133v1024q0 12 12.5 25.5t31 25t39 18.5t36.5 7q14 0 15 -10v-895q18 -59 57 -80q63 -39 182 -39q49 0 76 3t47 13q16 16 16 37v895q0 12 12.5 25.5t31 25t39 18.5t36.5 7q14 0 15 -10v-1024q0 -14 -7 -29q-20 -51 -94 -100q-68 -43 -139 -60q-66 -14 -135 -14 q-133 0 -203 43q-43 29 -68 94zM188 1286l2 19q0 80 68 176q27 39 74 86q10 8 30.5 21.5t34.5 19.5q39 14 49 6q55 -55 93.5 -124t38.5 -130v-8q0 -16 -27 -37q-18 -14 -43 -26.5t-49 -12.5q-14 0 -15 10v10q-2 37 -24 66q-31 41 -86 41q-10 -16 -12 -43v-8q0 -16 -27 -37 q-18 -14 -43 -26.5t-49 -12.5q-14 0 -15 10z" />
<glyph unicode="&#xdc;" d="M61 133v1024q0 12 12.5 25.5t31 25t39 18.5t36.5 7q14 0 15 -10v-895q18 -59 57 -80q63 -39 182 -39q49 0 76 3t47 13q16 16 16 37v895q0 12 12.5 25.5t31 25t39 18.5t36.5 7q14 0 15 -10v-1024q0 -14 -7 -29q-20 -51 -94 -100q-68 -43 -139 -60q-66 -14 -135 -14 q-133 0 -203 43q-43 29 -68 94zM188 1286q0 10 25 33q55 43 92 43q16 0 17 -10q0 -14 -25 -33q-47 -43 -92 -43q-16 0 -17 10zM444 1286q0 10 25 33q55 43 92 43q16 0 17 -10q0 -14 -25 -33q-47 -43 -92 -43q-16 0 -17 10z" />
<glyph unicode="&#xdd;" d="M61 774v383q0 12 12.5 25.5t31 25t39 18.5t36.5 7q14 0 15 -10v-256q18 -57 57 -78q66 -39 182 -39q57 0 77.5 3t45.5 11q6 6 11 18.5t5 18.5v256q0 12 12.5 25.5t31 25t39 18.5t36.5 7q14 0 15 -10v-383q0 -16 -7 -31q-23 -53 -96 -102q-37 -23 -78 -38.5t-75 -23.5 v-573q0 -8 -12.5 -21.5t-30 -26t-38 -20.5t-38.5 -8q-14 0 -15 10v631q-125 0 -192 43q-43 31 -64 94zM188 1286q0 61 25 117q41 90 131 147q100 68 217 68q8 0 11 -4t6 -6v-129q0 -20 -43 -47l-17.5 -10.5t-11.5 -6.5q-29 -12 -45 -12q-57 0 -78 -3t-45 -11 q-6 -6 -11 -18.5t-5 -18.5q0 -16 -27 -37q-18 -14 -43 -26.5t-49 -12.5q-15 0 -15 10z" />
<glyph unicode="&#xde;" d="M61 6v1151q0 12 12.5 25.5t31 25t39 18.5t36.5 7q14 0 15 -10v-299q55 29 120.5 41t118.5 12q168 0 236 -68q20 -20 37 -69v-385q0 -14 -7 -29q-20 -51 -94 -100q-68 -43 -139 -60q-66 -14 -135 -14q-78 0 -137 16v-196q0 -8 -12.5 -21.5t-30 -26t-38 -20.5t-38.5 -8 q-14 0 -15 10zM195 584q18 -59 57 -80q63 -39 182 -39q49 0 76 3t47 13q16 16 16 37v127q-23 59 -59 80q-63 39 -182 39q-47 0 -80 -5t-43 -11q-14 -14 -14 -37v-127z" />
<glyph unicode="&#xdf;" d="M61 6v1024q0 23 13 45q25 45 90 87t135 57q66 14 135 14q168 0 236 -68q20 -20 37 -69v-129v-64q0 -14 -7 -29q-23 -55 -96 -102l-12 -8q70 -25 98 -72q4 -8 8 -18t9 -27v-63v-193v-192q0 -14 -7 -29q-20 -51 -94 -100q-68 -43 -139 -60q-66 -14 -135 -14q-8 0 -11.5 4 t-3.5 6v127q0 18 41 47q45 29 76 29q49 0 76 3t47 13q16 16 16 37v64v192q-23 57 -59 78q-66 39 -182 39q-8 0 -11.5 4t-3.5 6v129q0 18 43 47l17.5 10.5t11.5 6.5q27 12 45 12q57 0 77.5 3t45.5 11q6 6 11 18.5t5 18.5q-4 25 -12 37q-51 82 -229 82q-47 0 -80 -5t-43 -11 q-14 -14 -14 -37v-895q0 -8 -12.5 -21.5t-30 -26t-38 -20.5t-38.5 -8q-14 0 -15 10z" />
<glyph unicode="&#xe0;" d="M61 133v129q0 23 13 45q25 45 90 87t135 57q66 14 135 14h139v53q-23 57 -59 78q-66 39 -182 39q-57 0 -78 -3t-45 -11q-14 -14 -14 -37q0 -8 -12.5 -21.5t-30 -26t-38 -20.5t-38.5 -8q-14 0 -15 10v127q0 25 13 47q12 20 35.5 43t54.5 43.5t65.5 35.5t69.5 22 q66 14 135 14q166 0 236 -70q20 -20 37 -69v-256v-256v-127q0 -8 -12.5 -21.5t-30 -26t-38 -20.5t-38.5 -8q-14 0 -15 10v43q-57 -29 -122.5 -41t-118.5 -12q-133 0 -203 43q-43 29 -68 94zM188 1030v127q0 20 45 47q41 29 72 29q135 0 204 -78t69 -188q0 -25 -66 -60 q-37 -16 -51 -16q-16 0 -17 10q-18 59 -57 80q-63 39 -182 39q-8 0 -12.5 4t-4.5 6zM195 328q18 -59 57 -80q63 -39 182 -39q49 0 76 3t47 13q16 16 16 37v117h-241q-57 0 -78 -3t-45 -11q-14 -14 -14 -37z" />
<glyph unicode="&#xe1;" d="M61 133v129q0 23 13 45q25 45 90 87t135 57q66 14 135 14h139v53q-23 57 -59 78q-66 39 -182 39q-57 0 -78 -3t-45 -11q-14 -14 -14 -37q0 -8 -12.5 -21.5t-30 -26t-38 -20.5t-38.5 -8q-14 0 -15 10v127q0 25 13 47q12 20 35.5 43t54.5 43.5t65.5 35.5t69.5 22 q66 14 135 14q166 0 236 -70q20 -20 37 -69v-256v-256v-127q0 -8 -12.5 -21.5t-30 -26t-38 -20.5t-38.5 -8q-14 0 -15 10v43q-57 -29 -122.5 -41t-118.5 -12q-133 0 -203 43q-43 29 -68 94zM188 901q0 63 25 119q41 90 131 147q102 66 217 66q8 0 11 -4t6 -6v-127 q0 -23 -43 -49q-39 -27 -74 -27q-49 0 -76 -3t-47 -13q-16 -16 -16 -37q0 -25 -66 -60q-37 -16 -51 -16q-17 0 -17 10zM195 328q18 -59 57 -80q63 -39 182 -39q49 0 76 3t47 13q16 16 16 37v117h-241q-57 0 -78 -3t-45 -11q-14 -14 -14 -37z" />
<glyph unicode="&#xe2;" d="M61 133v129q0 23 13 45q25 45 90 87t135 57q66 14 135 14h139v53q-23 57 -59 78q-66 39 -182 39q-57 0 -78 -3t-45 -11q-14 -14 -14 -37q0 -8 -12.5 -21.5t-30 -26t-38 -20.5t-38.5 -8q-14 0 -15 10v127q0 25 13 47q12 20 35.5 43t54.5 43.5t65.5 35.5t69.5 22 q66 14 135 14q166 0 236 -70q20 -20 37 -69v-256v-256v-127q0 -8 -12.5 -21.5t-30 -26t-38 -20.5t-38.5 -8q-14 0 -15 10v43q-57 -29 -122.5 -41t-118.5 -12q-133 0 -203 43q-43 29 -68 94zM188 901l2 19q0 61 43 139q51 92 99 123q27 27 66.5 42t47.5 5q20 -16 68 -80 q63 -90 64 -172v-10q0 -25 -66 -60q-37 -16 -51 -16q-16 0 -17 10v10q-4 39 -24 68q-31 41 -86 41q-10 -16 -12 -43v-8v-2q0 -25 -66 -60q-37 -16 -51 -16q-16 0 -17 10zM195 328q18 -59 57 -80q63 -39 182 -39q49 0 76 3t47 13q16 16 16 37v117h-241q-57 0 -78 -3t-45 -11 q-14 -14 -14 -37z" />
<glyph unicode="&#xe3;" d="M61 133v129q0 23 13 45q25 45 90 87t135 57q66 14 135 14h139v53q-23 57 -59 78q-66 39 -182 39q-57 0 -78 -3t-45 -11q-14 -14 -14 -37q0 -8 -12.5 -21.5t-30 -26t-38 -20.5t-38.5 -8q-14 0 -15 10v127q0 25 13 47q12 20 35.5 43t54.5 43.5t65.5 35.5t69.5 22 q66 14 135 14q166 0 236 -70q20 -20 37 -69v-256v-256v-127q0 -8 -12.5 -21.5t-30 -26t-38 -20.5t-38.5 -8q-14 0 -15 10v43q-57 -29 -122.5 -41t-118.5 -12q-133 0 -203 43q-43 29 -68 94zM61 901v129q0 23 13 45q25 45 90 87t135 57q66 14 135 14q8 0 11.5 -4t5.5 -6v-117 q47 0 67.5 3t38.5 11q6 6 11 18.5t5 18.5q0 12 12.5 25.5t31 25t39 18.5t36.5 7q14 0 15 -10v-127q0 -16 -7 -31q-23 -53 -94 -100q-68 -43 -139 -60q-66 -14 -135 -14q-8 0 -11.5 4t-3.5 6v119q-41 0 -62.5 -4t-45.5 -12q-14 -14 -14 -37q0 -8 -13.5 -20.5t-32 -25 t-39 -21.5t-34.5 -9t-15 10zM195 328q18 -59 57 -80q63 -39 182 -39q49 0 76 3t47 13q16 16 16 37v117h-241q-57 0 -78 -3t-45 -11q-14 -14 -14 -37z" />
<glyph unicode="&#xe4;" d="M61 133v129q0 23 13 45q25 45 90 87t135 57q66 14 135 14h139v53q-23 57 -59 78q-66 39 -182 39q-57 0 -78 -3t-45 -11q-14 -14 -14 -37q0 -8 -12.5 -21.5t-30 -26t-38 -20.5t-38.5 -8q-14 0 -15 10v127q0 25 13 47q12 20 35.5 43t54.5 43.5t65.5 35.5t69.5 22 q66 14 135 14q166 0 236 -70q20 -20 37 -69v-256v-256v-127q0 -8 -12.5 -21.5t-30 -26t-38 -20.5t-38.5 -8q-14 0 -15 10v43q-57 -29 -122.5 -41t-118.5 -12q-133 0 -203 43q-43 29 -68 94zM188 901q0 15 25 33q51 43 92 43q16 0 17 -10q0 -10 -13.5 -23.5t-32 -25 t-39 -19.5t-32.5 -8q-16 0 -17 10zM195 328q18 -59 57 -80q63 -39 182 -39q49 0 76 3t47 13q16 16 16 37v117h-241q-57 0 -78 -3t-45 -11q-14 -14 -14 -37zM444 901q0 15 25 33q51 43 92 43q16 0 17 -10q0 -10 -13.5 -23.5t-32 -25t-39 -19.5t-32.5 -8q-16 0 -17 10z" />
<glyph unicode="&#xe5;" d="M61 133v129q0 23 13 45q25 45 90 87t135 57q66 14 135 14h139v53q-23 57 -59 78q-66 39 -182 39q-57 0 -78 -3t-45 -11q-14 -14 -14 -37q0 -8 -12.5 -21.5t-30 -26t-38 -20.5t-38.5 -8q-14 0 -15 10v127q0 25 13 47q25 45 88 86l59 31q-20 27 -31 72q0 10 -2 20v129 q0 37 19 72q29 49 82 84q31 23 65.5 35t79.5 12q90 0 125 -68q8 -20 19 -69v-129q0 -31 -12.5 -62t-45.5 -61q117 -16 162 -76q16 -18 25 -57v-256v-256v-127q0 -8 -12.5 -21.5t-30 -26t-38 -20.5t-38.5 -8q-14 0 -15 10v43q-57 -29 -122.5 -41t-118.5 -12q-133 0 -203 43 q-43 29 -68 94zM195 328q18 -59 57 -80q63 -39 182 -39q49 0 76 3t47 13q16 16 16 37v117h-241q-57 0 -78 -3t-45 -11q-14 -14 -14 -37zM322 1030q0 -41 20 -69q31 -47 90 -48q12 21 12 54q0 41 -20 69q-31 47 -90 47q-12 -29 -12 -53z" />
<glyph unicode="&#xe6;" horiz-adv-x="1280" d="M61 133v129q0 12 7 29q20 53 92 100q68 43 139 60q66 14 135 14h139v53q-18 57 -57 78q-66 39 -182 39q-57 0 -77.5 -3t-45.5 -11q-6 -6 -11 -18.5t-5 -18.5q0 -16 -27 -37q-18 -14 -43 -26.5t-49 -12.5q-14 0 -15 10v127q0 14 7 31q20 51 91.5 98t139.5 62q66 14 135 14 q98 0 155.5 -20.5t86.5 -51.5q68 43 136.5 57.5t133.5 14.5q133 0 205 -43q43 -29 68 -96v-127q0 -27 -13 -47q-12 -23 -35.5 -44.5t-54.5 -42t-65.5 -36t-69.5 -21.5q-66 -14 -135 -14h-139v-51q18 -59 57 -80q63 -39 182 -39q49 0 82 5t43 11q14 14 14 37q0 8 12.5 20.5 t31 24.5t39 21.5t36.5 9.5q14 0 15 -10v-129q0 -25 -13 -45q-25 -45 -90 -87t-135 -57q-66 -14 -135 -14q-98 0 -155.5 20.5t-86.5 51.5q-66 -43 -136.5 -57.5t-133.5 -14.5q-168 0 -236 67q-20 20 -37 70zM195 328q23 -59 59 -80q63 -39 180 -39q49 0 82 5t43 11 q14 14 14 37v117h-239q-57 0 -77.5 -3t-45.5 -11q-6 -6 -11 -18.5t-5 -18.5zM707 465h239q49 0 82 5t43 11q14 14 14 37q-23 57 -59 78q-66 39 -180 39q-57 0 -77.5 -3t-45.5 -11q-6 -6 -11 -18.5t-5 -18.5v-119z" />
<glyph unicode="&#xe7;" d="M61 133v512q0 25 13 47q12 20 35.5 43t54.5 43.5t65.5 35.5t69.5 22q66 14 135 14q166 0 236 -70q20 -20 37 -69v-127q0 -8 -12.5 -21.5t-30 -26t-38 -20.5t-38.5 -8q-14 0 -15 10q-23 57 -59 78q-66 39 -182 39q-57 0 -78 -3t-45 -11q-14 -14 -14 -37v-256 q18 -59 57 -80q63 -39 182 -39q49 0 76 3t47 13q16 16 16 37q0 25 66 60q37 16 51 16q16 0 17 -10v-129q0 -14 -7 -29q-23 -55 -96 -102q-39 -27 -78 -41.5t-80 -20.5q-10 -80 -38.5 -135t-83.5 -90q-20 -12 -55.5 -26.5t-63.5 -14.5q-8 0 -12.5 4t-4.5 6v127q0 18 43 47 q47 29 74 29q10 35 10 43q-123 0 -190 43q-43 31 -64 94z" />
<glyph unicode="&#xe8;" d="M61 133v512q0 25 13 47q12 20 35.5 43t54.5 43.5t65.5 35.5t69.5 22q66 14 135 14q166 0 236 -70q20 -20 37 -69v-127q0 -16 -7 -31q-23 -53 -94 -100q-68 -43 -139 -60q-66 -14 -135 -14h-137v-51q18 -59 57 -80q63 -39 182 -39q49 0 76 3t47 13q16 16 16 37q0 25 66 60 q37 16 51 16q16 0 17 -10v-129q0 -14 -7 -29q-20 -51 -94 -100q-68 -43 -139 -60q-66 -14 -135 -14q-133 0 -203 43q-43 29 -68 94zM188 1030v127q0 20 45 47q41 29 72 29q135 0 204 -78t69 -188q0 -25 -66 -60q-37 -16 -51 -16q-16 0 -17 10q-18 59 -57 80q-63 39 -182 39 q-8 0 -12.5 4t-4.5 6zM195 465h239q49 0 76 3t47 13q16 16 16 37q-23 57 -61 78q-66 39 -180 39q-57 0 -78 -3t-45 -11q-14 -14 -14 -37v-119z" />
<glyph unicode="&#xe9;" d="M61 133v512q0 25 13 47q12 20 35.5 43t54.5 43.5t65.5 35.5t69.5 22q66 14 135 14q166 0 236 -70q20 -20 37 -69v-127q0 -16 -7 -31q-23 -53 -94 -100q-68 -43 -139 -60q-66 -14 -135 -14h-137v-51q18 -59 57 -80q63 -39 182 -39q49 0 76 3t47 13q16 16 16 37q0 25 66 60 q37 16 51 16q16 0 17 -10v-129q0 -14 -7 -29q-20 -51 -94 -100q-68 -43 -139 -60q-66 -14 -135 -14q-133 0 -203 43q-43 29 -68 94zM188 901q0 63 25 119q41 90 131 147q102 66 217 66q8 0 11 -4t6 -6v-127q0 -23 -43 -49q-39 -27 -74 -27q-49 0 -76 -3t-47 -13 q-16 -16 -16 -37q0 -25 -66 -60q-37 -16 -51 -16q-17 0 -17 10zM195 465h239q49 0 76 3t47 13q16 16 16 37q-23 57 -61 78q-66 39 -180 39q-57 0 -78 -3t-45 -11q-14 -14 -14 -37v-119z" />
<glyph unicode="&#xea;" d="M61 133v512q0 25 13 47q12 20 35.5 43t54.5 43.5t65.5 35.5t69.5 22q66 14 135 14q166 0 236 -70q20 -20 37 -69v-127q0 -16 -7 -31q-23 -53 -94 -100q-68 -43 -139 -60q-66 -14 -135 -14h-137v-51q18 -59 57 -80q63 -39 182 -39q49 0 76 3t47 13q16 16 16 37q0 25 66 60 q37 16 51 16q16 0 17 -10v-129q0 -14 -7 -29q-20 -51 -94 -100q-68 -43 -139 -60q-66 -14 -135 -14q-133 0 -203 43q-43 29 -68 94zM188 901l2 19q0 61 43 139q51 92 99 123q27 27 66.5 42t47.5 5q20 -16 68 -80q63 -90 64 -172v-10q0 -25 -66 -60q-37 -16 -51 -16 q-16 0 -17 10v10q-4 39 -24 68q-31 41 -86 41q-10 -16 -12 -43v-8v-2q0 -25 -66 -60q-37 -16 -51 -16q-16 0 -17 10zM195 465h239q49 0 76 3t47 13q16 16 16 37q-23 57 -61 78q-66 39 -180 39q-57 0 -78 -3t-45 -11q-14 -14 -14 -37v-119z" />
<glyph unicode="&#xeb;" d="M61 133v512q0 25 13 47q12 20 35.5 43t54.5 43.5t65.5 35.5t69.5 22q66 14 135 14q166 0 236 -70q20 -20 37 -69v-127q0 -16 -7 -31q-23 -53 -94 -100q-68 -43 -139 -60q-66 -14 -135 -14h-137v-51q18 -59 57 -80q63 -39 182 -39q49 0 76 3t47 13q16 16 16 37q0 25 66 60 q37 16 51 16q16 0 17 -10v-129q0 -14 -7 -29q-20 -51 -94 -100q-68 -43 -139 -60q-66 -14 -135 -14q-133 0 -203 43q-43 29 -68 94zM188 901q0 15 25 33q51 43 92 43q16 0 17 -10q0 -10 -13.5 -23.5t-32 -25t-39 -19.5t-32.5 -8q-16 0 -17 10zM195 465h239q49 0 76 3t47 13 q16 16 16 37q-23 57 -61 78q-66 39 -180 39q-57 0 -78 -3t-45 -11q-14 -14 -14 -37v-119zM444 901q0 15 25 33q51 43 92 43q16 0 17 -10q0 -10 -13.5 -23.5t-32 -25t-39 -19.5t-32.5 -8q-16 0 -17 10z" />
<glyph unicode="&#xec;" horiz-adv-x="512" d="M61 1030v127q0 18 43 47q45 29 76 29q68 0 118 -21.5t84 -57.5t51.5 -84t17.5 -103q0 -25 -66 -60q-37 -16 -51 -16q-16 0 -17 10q-18 59 -57 80q-63 39 -182 39q-8 0 -12.5 4t-4.5 6zM190 6v768q0 25 66 60q37 16 51 16q16 0 17 -10v-768q0 -8 -12.5 -21.5t-30 -26 t-38 -20.5t-38.5 -8q-14 0 -15 10z" />
<glyph unicode="&#xed;" horiz-adv-x="512" d="M61 901q0 63 25 119q41 90 131 147q102 66 219 66q6 0 9.5 -4t5.5 -6v-127q0 -23 -43 -49q-39 -27 -74 -27q-47 0 -80 -5t-43 -11q-16 -16 -16 -37q0 -25 -66 -60q-37 -16 -51 -16q-16 0 -17 10zM190 6v768q0 25 66 60q37 16 51 16q16 0 17 -10v-768q0 -8 -12.5 -21.5 t-30 -26t-38 -20.5t-38.5 -8q-14 0 -15 10z" />
<glyph unicode="&#xee;" horiz-adv-x="512" d="M61 901l2 19q0 82 68 178q27 37 74 84q29 29 65 43q41 12 52 4q37 -37 65 -80q63 -90 64 -172v-10q0 -25 -66 -60q-37 -16 -51 -16q-16 0 -17 10v10q-6 53 -37.5 81t-72.5 28q-10 -35 -10 -43l-2 -8v-2q0 -25 -66 -60q-37 -16 -51 -16q-16 0 -17 10zM190 6v768 q0 25 66 60q37 16 51 16q16 0 17 -10v-768q0 -8 -12.5 -21.5t-30 -26t-38 -20.5t-38.5 -8q-14 0 -15 10z" />
<glyph unicode="&#xef;" horiz-adv-x="509" d="M61 901q0 16 23 33q51 43 94 43q14 0 15 -10q0 -10 -23 -33q-27 -20 -49.5 -31.5t-44.5 -11.5q-14 0 -15 10zM188 6v768q0 8 12.5 20.5t31 24.5t39 21.5t34.5 9.5q16 0 17 -10v-768q0 -8 -12.5 -21.5t-30 -26t-38 -20.5t-38.5 -8q-14 0 -15 10zM317 901q0 16 23 33 q51 43 94 43q14 0 15 -10q0 -10 -23 -33q-27 -20 -49.5 -31.5t-44.5 -11.5q-14 0 -15 10z" />
<glyph unicode="&#xf0;" d="M61 133v512q0 25 13 47q12 20 35.5 43t54.5 43.5t65.5 35.5t69.5 22q66 14 135 14q78 0 139 -16v67q-4 14 -6 25q-29 61 -116 82v-41q0 -8 -13.5 -20.5t-32 -25t-39 -21.5t-34.5 -9t-15 10v119q-41 0 -62.5 -4t-45.5 -12q-14 -14 -14 -37q0 -8 -13.5 -20.5t-32 -25 t-39 -21.5t-34.5 -9t-15 10v129q0 23 13 45q25 47 88 86q33 20 77 36.5t78 25.5v63q0 25 66 60q37 16 51 16q16 0 17 -10v-119q156 0 221 -68q10 -10 18 -28.5t17 -40.5v-385v-256v-256q0 -14 -7 -29q-20 -51 -94 -100q-68 -43 -139 -60q-66 -14 -135 -14q-133 0 -203 43 q-43 29 -68 94zM195 328q18 -59 57 -80q63 -39 182 -39q49 0 76 3t47 13q16 16 16 37v127v129q-23 57 -59 78q-66 39 -182 39q-57 0 -78 -3t-45 -11q-14 -14 -14 -37v-256z" />
<glyph unicode="&#xf1;" d="M61 6v383v256v129q0 25 66 60q37 16 51 16q16 0 17 -10v-43q55 29 120.5 41t118.5 12q166 0 236 -70q20 -20 37 -69v-639q0 -8 -12.5 -21.5t-30 -26t-38 -20.5t-38.5 -8q-14 0 -15 10v512q-23 57 -59 78q-66 39 -182 39q-57 0 -78 -3t-45 -11q-14 -14 -14 -37v-129v-383 q0 -8 -12.5 -21.5t-30 -26t-38 -20.5t-38.5 -8q-14 0 -15 10zM61 901v129q0 23 13 45q25 45 90 87t135 57q66 14 135 14q8 0 11.5 -4t5.5 -6v-117q47 0 67.5 3t38.5 11q6 6 11 18.5t5 18.5q0 12 12.5 25.5t31 25t39 18.5t36.5 7q14 0 15 -10v-127q0 -16 -7 -31 q-23 -53 -94 -100q-68 -43 -139 -60q-66 -14 -135 -14q-8 0 -11.5 4t-3.5 6v119q-41 0 -62.5 -4t-45.5 -12q-14 -14 -14 -37q0 -8 -13.5 -20.5t-32 -25t-39 -21.5t-34.5 -9t-15 10z" />
<glyph unicode="&#xf2;" d="M61 133v512q0 25 13 47q12 20 35.5 43t54.5 43.5t65.5 35.5t69.5 22q66 14 135 14q166 0 236 -70q20 -20 37 -69v-512q0 -14 -7 -29q-20 -51 -94 -100q-68 -43 -139 -60q-66 -14 -135 -14q-133 0 -203 43q-43 29 -68 94zM188 1030v127q0 20 45 47q41 29 72 29 q135 0 204 -78t69 -188q0 -25 -66 -60q-37 -16 -51 -16q-16 0 -17 10q-18 59 -57 80q-63 39 -182 39q-8 0 -12.5 4t-4.5 6zM195 328q18 -59 57 -80q63 -39 182 -39q49 0 76 3t47 13q16 16 16 37v256q-23 57 -59 78q-66 39 -182 39q-57 0 -78 -3t-45 -11q-14 -14 -14 -37 v-256z" />
<glyph unicode="&#xf3;" d="M61 133v512q0 25 13 47q12 20 35.5 43t54.5 43.5t65.5 35.5t69.5 22q66 14 135 14q166 0 236 -70q20 -20 37 -69v-512q0 -14 -7 -29q-20 -51 -94 -100q-68 -43 -139 -60q-66 -14 -135 -14q-133 0 -203 43q-43 29 -68 94zM188 901q0 63 25 119q41 90 131 147 q102 66 217 66q8 0 11 -4t6 -6v-127q0 -23 -43 -49q-39 -27 -74 -27q-49 0 -76 -3t-47 -13q-16 -16 -16 -37q0 -25 -66 -60q-37 -16 -51 -16q-17 0 -17 10zM195 328q18 -59 57 -80q63 -39 182 -39q49 0 76 3t47 13q16 16 16 37v256q-23 57 -59 78q-66 39 -182 39 q-57 0 -78 -3t-45 -11q-14 -14 -14 -37v-256z" />
<glyph unicode="&#xf4;" d="M61 133v512q0 25 13 47q12 20 35.5 43t54.5 43.5t65.5 35.5t69.5 22q66 14 135 14q166 0 236 -70q20 -20 37 -69v-512q0 -14 -7 -29q-20 -51 -94 -100q-68 -43 -139 -60q-66 -14 -135 -14q-133 0 -203 43q-43 29 -68 94zM188 901l2 19q0 61 43 139q51 92 99 123 q27 27 66.5 42t47.5 5q20 -16 68 -80q63 -90 64 -172v-10q0 -25 -66 -60q-37 -16 -51 -16q-16 0 -17 10v10q-4 39 -24 68q-31 41 -86 41q-10 -16 -12 -43v-8v-2q0 -25 -66 -60q-37 -16 -51 -16q-16 0 -17 10zM195 328q18 -59 57 -80q63 -39 182 -39q49 0 76 3t47 13 q16 16 16 37v256q-23 57 -59 78q-66 39 -182 39q-57 0 -78 -3t-45 -11q-14 -14 -14 -37v-256z" />
<glyph unicode="&#xf5;" d="M61 133v512q0 25 13 47q12 20 35.5 43t54.5 43.5t65.5 35.5t69.5 22q66 14 135 14q166 0 236 -70q20 -20 37 -69v-512q0 -14 -7 -29q-20 -51 -94 -100q-68 -43 -139 -60q-66 -14 -135 -14q-133 0 -203 43q-43 29 -68 94zM61 901v129q0 23 13 45q25 45 90 87t135 57 q66 14 135 14q8 0 11.5 -4t5.5 -6v-117q47 0 67.5 3t38.5 11q6 6 11 18.5t5 18.5q0 12 12.5 25.5t31 25t39 18.5t36.5 7q14 0 15 -10v-127q0 -16 -7 -31q-23 -53 -94 -100q-68 -43 -139 -60q-66 -14 -135 -14q-8 0 -11.5 4t-3.5 6v119q-41 0 -62.5 -4t-45.5 -12 q-14 -14 -14 -37q0 -8 -13.5 -20.5t-32 -25t-39 -21.5t-34.5 -9t-15 10zM195 328q18 -59 57 -80q63 -39 182 -39q49 0 76 3t47 13q16 16 16 37v256q-23 57 -59 78q-66 39 -182 39q-57 0 -78 -3t-45 -11q-14 -14 -14 -37v-256z" />
<glyph unicode="&#xf6;" d="M61 133v512q0 25 13 47q12 20 35.5 43t54.5 43.5t65.5 35.5t69.5 22q66 14 135 14q166 0 236 -70q20 -20 37 -69v-512q0 -14 -7 -29q-20 -51 -94 -100q-68 -43 -139 -60q-66 -14 -135 -14q-133 0 -203 43q-43 29 -68 94zM188 901q0 15 25 33q51 43 92 43q16 0 17 -10 q0 -10 -13.5 -23.5t-32 -25t-39 -19.5t-32.5 -8q-16 0 -17 10zM195 328q18 -59 57 -80q63 -39 182 -39q49 0 76 3t47 13q16 16 16 37v256q-23 57 -59 78q-66 39 -182 39q-57 0 -78 -3t-45 -11q-14 -14 -14 -37v-256zM444 901q0 15 25 33q51 43 92 43q16 0 17 -10 q0 -10 -13.5 -23.5t-32 -25t-39 -19.5t-32.5 -8q-16 0 -17 10z" />
<glyph unicode="&#xf8;" d="M61 133v512q0 25 13 47q12 20 35.5 43t54.5 43.5t65.5 35.5t69.5 22q66 14 135 14q166 0 236 -70q20 -20 37 -69v-512q0 -14 -7 -29q-20 -51 -94 -100q-68 -43 -139 -60q-66 -14 -135 -14q-133 0 -203 43q-43 29 -68 94zM195 354l372 187q-23 47 -86 70.5t-149 23.5 q-57 0 -78 -3t-45 -11q-14 -14 -14 -37v-230zM201 303q16 -39 57 -59q66 -35 176 -35q49 0 76 3t47 13q16 16 16 37v227z" />
<glyph unicode="&#xf9;" d="M61 133v641q0 25 66 60q37 16 51 16q16 0 17 -10v-512q18 -59 57 -80q63 -39 182 -39q49 0 76 3t47 13q16 16 16 37v127v385q0 25 66 60q37 16 51 16q16 0 17 -10v-385v-256v-127q0 -8 -12.5 -21.5t-30 -26t-38 -20.5t-38.5 -8q-14 0 -15 10v43q-57 -29 -122.5 -41 t-118.5 -12q-133 0 -203 43q-43 29 -68 94zM188 1030v127q0 20 45 47q41 29 72 29q135 0 204 -78t69 -188q0 -25 -66 -60q-37 -16 -51 -16q-16 0 -17 10q-18 59 -57 80q-63 39 -182 39q-8 0 -12.5 4t-4.5 6z" />
<glyph unicode="&#xfa;" d="M61 133v641q0 25 66 60q37 16 51 16q16 0 17 -10v-512q18 -59 57 -80q63 -39 182 -39q47 0 80 5t43 11q16 16 16 37v127v385q0 25 66 60q37 16 51 16q16 0 17 -10v-385v-256v-127q0 -8 -12.5 -21.5t-30 -26t-38 -20.5t-38.5 -8q-14 0 -15 10v43q-57 -29 -122.5 -41 t-118.5 -12q-133 0 -203 43q-43 29 -68 94zM188 901q0 63 25 119q41 90 131 147q102 66 217 66q8 0 11 -4t6 -6v-127q0 -23 -43 -49q-39 -27 -74 -27q-49 0 -76 -3t-47 -13q-16 -16 -16 -37q0 -25 -66 -60q-37 -16 -51 -16q-17 0 -17 10z" />
<glyph unicode="&#xfb;" d="M61 133v641q0 25 66 60q37 16 51 16q16 0 17 -10v-512q18 -59 57 -80q63 -39 182 -39q49 0 76 3t47 13q16 16 16 37v127v385q0 25 66 60q37 16 51 16q16 0 17 -10v-385v-256v-127q0 -8 -12.5 -21.5t-30 -26t-38 -20.5t-38.5 -8q-14 0 -15 10v43q-57 -29 -122.5 -41 t-118.5 -12q-133 0 -203 43q-43 29 -68 94zM188 901l2 19q0 61 43 139q51 92 99 123q27 27 66.5 42t47.5 5q20 -16 68 -80q63 -90 64 -172v-10q0 -25 -66 -60q-37 -16 -51 -16q-16 0 -17 10v10q-4 39 -24 68q-31 41 -86 41q-10 -16 -12 -43v-8v-2q0 -25 -66 -60 q-37 -16 -51 -16q-16 0 -17 10z" />
<glyph unicode="&#xfc;" d="M61 133v641q0 25 66 60q37 16 51 16q16 0 17 -10v-512q18 -59 57 -80q63 -39 182 -39q49 0 76 3t47 13q16 16 16 37v127v385q0 25 66 60q37 16 51 16q16 0 17 -10v-385v-256v-127q0 -8 -12.5 -21.5t-30 -26t-38 -20.5t-38.5 -8q-14 0 -15 10v43q-57 -29 -122.5 -41 t-118.5 -12q-133 0 -203 43q-43 29 -68 94zM188 901q0 15 25 33q51 43 92 43q16 0 17 -10q0 -10 -13.5 -23.5t-32 -25t-39 -19.5t-32.5 -8q-16 0 -17 10zM444 901q0 15 25 33q51 43 92 43q16 0 17 -10q0 -10 -13.5 -23.5t-32 -25t-39 -19.5t-32.5 -8q-16 0 -17 10z" />
<glyph unicode="&#xfd;" d="M61 -123q0 12 12.5 25.5t31 25t39 18.5t36.5 7q14 0 15 -10q18 -57 57 -78q66 -39 182 -39q57 0 77.5 3t45.5 11q6 6 11 18.5t5 18.5v172q-57 -29 -122.5 -41t-118.5 -12q-133 0 -203 43q-43 29 -68 94v641q0 25 66 60q37 16 51 16q16 0 17 -10v-512q18 -59 57 -80 q63 -39 182 -39q49 0 76 3t47 13q16 16 16 37v512q0 25 66 60q37 16 51 16q16 0 17 -10v-1024q0 -16 -7 -31q-20 -51 -94 -98q-72 -47 -139 -62q-66 -14 -135 -14q-133 0 -203 43q-43 29 -68 96v127zM188 901q0 63 25 119q41 90 131 147q102 66 217 66q8 0 11 -4t6 -6v-127 q0 -23 -43 -49q-39 -27 -74 -27q-49 0 -76 -3t-47 -13q-16 -16 -16 -37q0 -25 -66 -60q-37 -16 -51 -16q-17 0 -17 10z" />
<glyph unicode="&#xfe;" d="M61 6v1151q0 12 12.5 25.5t31 25t39 18.5t36.5 7q14 0 15 -10v-299q55 29 120.5 41t118.5 12q168 0 236 -68q20 -20 37 -69v-385q0 -14 -7 -29q-20 -51 -94 -100q-68 -43 -139 -60q-66 -14 -135 -14q-78 0 -137 16v-196q0 -8 -12.5 -21.5t-30 -26t-38 -20.5t-38.5 -8 q-14 0 -15 10zM195 584q18 -59 57 -80q63 -39 182 -39q49 0 76 3t47 13q16 16 16 37v127q-23 59 -59 80q-63 39 -182 39q-47 0 -80 -5t-43 -11q-14 -14 -14 -37v-127z" />
<glyph unicode="&#xff;" d="M61 -123q0 12 12.5 25.5t31 25t39 18.5t36.5 7q14 0 15 -10q18 -57 57 -78q66 -39 182 -39q57 0 77.5 3t45.5 11q6 6 11 18.5t5 18.5v172q-57 -29 -122.5 -41t-118.5 -12q-133 0 -203 43q-43 29 -68 94v641q0 25 66 60q37 16 51 16q16 0 17 -10v-512q18 -59 57 -80 q63 -39 182 -39q49 0 76 3t47 13q16 16 16 37v512q0 25 66 60q37 16 51 16q16 0 17 -10v-1024q0 -16 -7 -31q-20 -51 -94 -98q-72 -47 -139 -62q-66 -14 -135 -14q-133 0 -203 43q-43 29 -68 96v127zM188 901q0 15 25 33q51 43 92 43q16 0 17 -10q0 -10 -13.5 -23.5t-32 -25 t-39 -19.5t-32.5 -8q-16 0 -17 10zM444 901q0 15 25 33q51 43 92 43q16 0 17 -10q0 -10 -13.5 -23.5t-32 -25t-39 -19.5t-32.5 -8q-16 0 -17 10z" />
<glyph unicode="&#x152;" horiz-adv-x="1280" d="M61 133v897q0 12 7 29q20 53 92 100q68 43 139 60q66 14 135 14q98 0 155.5 -20.5t86.5 -51.5q68 43 136.5 57.5t133.5 14.5q133 0 205 -43q43 -29 68 -94v-129q0 -25 -66 -60q-37 -16 -51 -16q-16 0 -17 10q-18 59 -57 80q-63 39 -182 39q-49 0 -76 -3t-47 -13 q-16 -16 -16 -37v-170q43 23 102 38t137 15q8 0 11.5 -4t5.5 -6v-129q0 -20 -43 -47l-17.5 -10.5t-11.5 -6.5q-29 -12 -45 -12q-57 0 -77.5 -3t-45.5 -11q-6 -6 -11 -18.5t-5 -18.5v-256q18 -59 57 -80q63 -39 182 -39q49 0 82 5t43 11q14 14 14 37q0 8 12.5 20.5t31 24.5 t39 21.5t36.5 9.5q14 0 15 -10v-129q0 -25 -13 -45q-25 -45 -90 -87t-135 -57q-66 -14 -135 -14q-98 0 -155.5 20.5t-86.5 51.5q-66 -43 -136.5 -57.5t-133.5 -14.5q-168 0 -236 67q-20 20 -37 70zM195 328q18 -59 57 -80q63 -39 182 -39q49 0 82 5t43 11q14 14 14 37v639 q-18 59 -57 80q-63 39 -182 39q-49 0 -76 -3t-47 -13q-16 -16 -16 -37v-639z" />
<glyph unicode="&#x153;" horiz-adv-x="1280" d="M61 133v512q0 14 7 31q20 51 91.5 98t139.5 62q66 14 135 14q98 0 155.5 -20.5t86.5 -51.5q68 43 136.5 57.5t133.5 14.5q133 0 205 -43q43 -29 68 -96v-127q0 -27 -13 -47q-12 -23 -35.5 -44.5t-54.5 -42t-65.5 -36t-69.5 -21.5q-66 -14 -135 -14h-139v-51 q18 -59 57 -80q63 -39 182 -39q49 0 82 5t43 11q14 14 14 37q0 8 12.5 20.5t31 24.5t39 21.5t36.5 9.5q14 0 15 -10v-129q0 -25 -13 -45q-25 -45 -90 -87t-135 -57q-66 -14 -135 -14q-98 0 -155.5 20.5t-86.5 51.5q-66 -43 -136.5 -57.5t-133.5 -14.5q-168 0 -236 67 q-20 20 -37 70zM195 328q18 -59 57 -80q63 -39 182 -39q49 0 82 5t43 11q14 14 14 37v127v129q-18 57 -57 78q-66 39 -182 39q-57 0 -77.5 -3t-45.5 -11q-6 -6 -11 -18.5t-5 -18.5v-256zM707 465h239q49 0 82 5t43 11q14 14 14 37q-23 57 -59 78q-66 39 -180 39 q-57 0 -77.5 -3t-45.5 -11q-6 -6 -11 -18.5t-5 -18.5v-119z" />
<glyph unicode="&#x178;" d="M61 774v383q0 12 12.5 25.5t31 25t39 18.5t36.5 7q14 0 15 -10v-256q18 -57 57 -78q66 -39 182 -39q57 0 77.5 3t45.5 11q6 6 11 18.5t5 18.5v256q0 12 12.5 25.5t31 25t39 18.5t36.5 7q14 0 15 -10v-383q0 -16 -7 -31q-23 -53 -96 -102q-37 -23 -78 -38.5t-75 -23.5 v-573q0 -8 -12.5 -21.5t-30 -26t-38 -20.5t-38.5 -8q-14 0 -15 10v631q-125 0 -192 43q-43 31 -64 94zM188 1286q0 10 25 33q55 43 92 43q16 0 17 -10q0 -14 -25 -33q-47 -43 -92 -43q-16 0 -17 10zM444 1286q0 10 25 33q55 43 92 43q16 0 17 -10q0 -14 -25 -33 q-47 -43 -92 -43q-16 0 -17 10z" />
<glyph unicode="&#x2000;" horiz-adv-x="809" />
<glyph unicode="&#x2001;" horiz-adv-x="1618" />
<glyph unicode="&#x2002;" horiz-adv-x="809" />
<glyph unicode="&#x2003;" horiz-adv-x="1618" />
<glyph unicode="&#x2004;" horiz-adv-x="539" />
<glyph unicode="&#x2005;" horiz-adv-x="404" />
<glyph unicode="&#x2006;" horiz-adv-x="269" />
<glyph unicode="&#x2007;" horiz-adv-x="269" />
<glyph unicode="&#x2008;" horiz-adv-x="202" />
<glyph unicode="&#x2009;" horiz-adv-x="323" />
<glyph unicode="&#x200a;" horiz-adv-x="89" />
<glyph unicode="&#x2010;" d="M61 645v129q0 18 43 47l17.5 10.5t11.5 6.5q27 12 45 12h512q8 0 11.5 -4t5.5 -6v-129q0 -20 -45 -47l-17.5 -10.5t-11.5 -6.5q-29 -12 -45 -12h-512q-8 0 -11.5 4t-3.5 6z" />
<glyph unicode="&#x2011;" d="M61 645v129q0 18 43 47l17.5 10.5t11.5 6.5q27 12 45 12h512q8 0 11.5 -4t5.5 -6v-129q0 -20 -45 -47l-17.5 -10.5t-11.5 -6.5q-29 -12 -45 -12h-512q-8 0 -11.5 4t-3.5 6z" />
<glyph unicode="&#x2012;" d="M61 645v129q0 18 43 47l17.5 10.5t11.5 6.5q27 12 45 12h512q8 0 11.5 -4t5.5 -6v-129q0 -20 -45 -47l-17.5 -10.5t-11.5 -6.5q-29 -12 -45 -12h-512q-8 0 -11.5 4t-3.5 6z" />
<glyph unicode="&#x2013;" horiz-adv-x="1146" d="M61 645v129q0 18 68 47l28 10.5t18 6.5q43 12 71 12h812q13 0 18.5 -4t8.5 -6v-129q0 -20 -71 -47l-28 -10.5t-18 -6.5q-46 -12 -72 -12h-811q-13 0 -18.5 4t-5.5 6z" />
<glyph unicode="&#x2014;" horiz-adv-x="2170" d="M61 645v129q0 18 136 47l56 10.5t36 6.5q86 12 143 12h1623q25 0 36.5 -4t17.5 -6v-129q0 -20 -143 -47q-31 -6 -55 -10.5t-37 -6.5q-92 -12 -142 -12h-1623q-26 0 -37 4t-11 6z" />
<glyph unicode="&#x202f;" horiz-adv-x="323" />
<glyph unicode="&#x205f;" horiz-adv-x="404" />
<glyph unicode="&#x25fc;" horiz-adv-x="849" d="M0 0v850h850v-850h-850z" />
</font>
</defs>
</svg>
